<?xml version="1.0" encoding="utf-8" standalone="no"?>
<!DOCTYPE svg PUBLIC "-//W3C//DTD SVG 1.1//EN"
  "http://www.w3.org/Graphics/SVG/1.1/DTD/svg11.dtd">
<!-- Created with matplotlib (https://matplotlib.org/) -->
<svg height="792pt" version="1.1" viewBox="0 0 612 792" width="612pt" xmlns="http://www.w3.org/2000/svg" xmlns:xlink="http://www.w3.org/1999/xlink">
 <metadata>
  <rdf:RDF xmlns:cc="http://creativecommons.org/ns#" xmlns:dc="http://purl.org/dc/elements/1.1/" xmlns:rdf="http://www.w3.org/1999/02/22-rdf-syntax-ns#">
   <cc:Work>
    <dc:type rdf:resource="http://purl.org/dc/dcmitype/StillImage"/>
    <dc:date>2021-04-15T17:25:15.329977</dc:date>
    <dc:format>image/svg+xml</dc:format>
    <dc:creator>
     <cc:Agent>
      <dc:title>Matplotlib v3.3.4, https://matplotlib.org/</dc:title>
     </cc:Agent>
    </dc:creator>
   </cc:Work>
  </rdf:RDF>
 </metadata>
 <defs>
  <style type="text/css">*{stroke-linecap:butt;stroke-linejoin:round;}</style>
 </defs>
 <g id="figure_1">
  <g id="patch_1">
   <path d="M 0 792 
L 612 792 
L 612 0 
L 0 0 
z
" style="fill:none;"/>
  </g>
  <g id="axes_1">
   <g id="patch_2">
    <path d="M 54.840937 351.78 
L 286.898906 351.78 
L 286.898906 90.09 
L 54.840937 90.09 
z
" style="fill:none;"/>
   </g>
   <g id="line2d_1">
    <path clip-path="url(#p612fb70546)" d="M 67.733047 349.761716 
L 121.879906 349.761716 
L 123.169117 290.240325 
L 124.458328 279.946095 
L 125.747539 243.325851 
L 127.03675 237.647178 
L 128.325961 201.336055 
L 129.615172 199.64979 
L 130.904383 201.429282 
L 132.193594 196.470256 
L 133.482805 199.932742 
L 134.772016 201.147965 
L 136.061227 205.827309 
L 137.350438 206.013763 
L 138.639648 198.364238 
L 139.928859 205.735718 
L 141.21807 206.671259 
L 142.507281 209.289795 
L 143.796492 211.069287 
L 145.085703 210.226972 
L 146.374914 209.008478 
L 147.664125 211.630285 
L 148.953336 211.816739 
L 150.242547 211.069287 
L 151.531758 211.348968 
L 154.11018 212.377737 
L 155.399391 211.255741 
L 156.688602 211.442195 
L 157.977813 212.942006 
L 159.267023 212.377737 
L 160.556234 212.191283 
L 163.134656 211.535422 
L 164.423867 213.12846 
L 165.713078 205.264676 
L 167.002289 210.320199 
L 168.2915 210.226972 
L 169.580711 209.198204 
L 170.869922 207.700028 
L 172.159133 204.703678 
L 173.448344 184.491396 
L 174.737555 176.442793 
L 176.026766 176.253068 
L 177.315977 169.514551 
L 178.605188 172.416038 
L 182.47282 147.990548 
L 185.051242 131.14589 
L 187.629664 135.511206 
L 188.918875 124.534946 
L 190.208086 139.879794 
L 196.654141 150.798809 
L 197.943352 128.056312 
L 199.232563 123.470195 
L 200.521773 124.405737 
L 201.810984 124.220918 
L 203.100195 110.76351 
L 204.389406 124.031193 
L 205.678617 119.186657 
L 206.967828 120.151639 
L 208.257039 116.731678 
L 209.54625 117.667219 
L 210.835461 116.918132 
L 212.124672 113.455646 
L 213.413883 111.679425 
L 214.703094 95.127533 
L 215.992305 100.636107 
L 217.281516 92.330721 
L 218.570727 109.433798 
L 248.222578 109.433798 
L 249.511789 253.64625 
L 272.717586 253.64625 
L 272.717586 253.64625 
" style="fill:none;stroke:#2fa19e;stroke-linecap:square;"/>
   </g>
   <g id="patch_3">
    <path d="M 54.840937 351.78 
L 54.840937 90.09 
" style="fill:none;stroke:#000000;stroke-linecap:square;stroke-linejoin:miter;"/>
   </g>
   <g id="patch_4">
    <path d="M 286.898906 351.78 
L 286.898906 90.09 
" style="fill:none;stroke:#000000;stroke-linecap:square;stroke-linejoin:miter;"/>
   </g>
   <g id="patch_5">
    <path d="M 54.840938 351.78 
L 286.898906 351.78 
" style="fill:none;stroke:#000000;stroke-linecap:square;stroke-linejoin:miter;"/>
   </g>
   <g id="patch_6">
    <path d="M 54.840938 90.09 
L 286.898906 90.09 
" style="fill:none;stroke:#000000;stroke-linecap:square;stroke-linejoin:miter;"/>
   </g>
   <g id="matplotlib.axis_1">
    <g id="xtick_1">
     <g id="line2d_2">
      <path clip-path="url(#p612fb70546)" d="M 54.840938 351.78 
L 54.840938 90.09 
" style="fill:none;stroke:#000000;stroke-dasharray:1,3;stroke-dashoffset:0;stroke-width:0.5;"/>
     </g>
     <g id="line2d_3">
      <defs>
       <path d="M 0 0 
L 0 -4 
" id="m0dd1e683a8" style="stroke:#000000;stroke-width:0.5;"/>
      </defs>
      <g>
       <use style="stroke:#000000;stroke-width:0.5;" x="54.840938" xlink:href="#m0dd1e683a8" y="351.78"/>
      </g>
     </g>
     <g id="line2d_4">
      <defs>
       <path d="M 0 0 
L 0 4 
" id="m318d66aab2" style="stroke:#000000;stroke-width:0.5;"/>
      </defs>
      <g>
       <use style="stroke:#000000;stroke-width:0.5;" x="54.840938" xlink:href="#m318d66aab2" y="90.09"/>
      </g>
     </g>
     <g id="text_1">
      <!-- −160 -->
      <g transform="translate(38.360625 364.898125)scale(0.12 -0.12)">
       <defs>
        <path d="M 10.59375 35.5 
L 73.1875 35.5 
L 73.1875 27.203125 
L 10.59375 27.203125 
z
" id="DejaVuSans-8722"/>
        <path d="M 12.40625 8.296875 
L 28.515625 8.296875 
L 28.515625 63.921875 
L 10.984375 60.40625 
L 10.984375 69.390625 
L 28.421875 72.90625 
L 38.28125 72.90625 
L 38.28125 8.296875 
L 54.390625 8.296875 
L 54.390625 0 
L 12.40625 0 
z
" id="DejaVuSans-49"/>
        <path d="M 33.015625 40.375 
Q 26.375 40.375 22.484375 35.828125 
Q 18.609375 31.296875 18.609375 23.390625 
Q 18.609375 15.53125 22.484375 10.953125 
Q 26.375 6.390625 33.015625 6.390625 
Q 39.65625 6.390625 43.53125 10.953125 
Q 47.40625 15.53125 47.40625 23.390625 
Q 47.40625 31.296875 43.53125 35.828125 
Q 39.65625 40.375 33.015625 40.375 
z
M 52.59375 71.296875 
L 52.59375 62.3125 
Q 48.875 64.0625 45.09375 64.984375 
Q 41.3125 65.921875 37.59375 65.921875 
Q 27.828125 65.921875 22.671875 59.328125 
Q 17.53125 52.734375 16.796875 39.40625 
Q 19.671875 43.65625 24.015625 45.921875 
Q 28.375 48.1875 33.59375 48.1875 
Q 44.578125 48.1875 50.953125 41.515625 
Q 57.328125 34.859375 57.328125 23.390625 
Q 57.328125 12.15625 50.6875 5.359375 
Q 44.046875 -1.421875 33.015625 -1.421875 
Q 20.359375 -1.421875 13.671875 8.265625 
Q 6.984375 17.96875 6.984375 36.375 
Q 6.984375 53.65625 15.1875 63.9375 
Q 23.390625 74.21875 37.203125 74.21875 
Q 40.921875 74.21875 44.703125 73.484375 
Q 48.484375 72.75 52.59375 71.296875 
z
" id="DejaVuSans-54"/>
        <path d="M 31.78125 66.40625 
Q 24.171875 66.40625 20.328125 58.90625 
Q 16.5 51.421875 16.5 36.375 
Q 16.5 21.390625 20.328125 13.890625 
Q 24.171875 6.390625 31.78125 6.390625 
Q 39.453125 6.390625 43.28125 13.890625 
Q 47.125 21.390625 47.125 36.375 
Q 47.125 51.421875 43.28125 58.90625 
Q 39.453125 66.40625 31.78125 66.40625 
z
M 31.78125 74.21875 
Q 44.046875 74.21875 50.515625 64.515625 
Q 56.984375 54.828125 56.984375 36.375 
Q 56.984375 17.96875 50.515625 8.265625 
Q 44.046875 -1.421875 31.78125 -1.421875 
Q 19.53125 -1.421875 13.0625 8.265625 
Q 6.59375 17.96875 6.59375 36.375 
Q 6.59375 54.828125 13.0625 64.515625 
Q 19.53125 74.21875 31.78125 74.21875 
z
" id="DejaVuSans-48"/>
       </defs>
       <use xlink:href="#DejaVuSans-8722"/>
       <use x="83.789062" xlink:href="#DejaVuSans-49"/>
       <use x="147.412109" xlink:href="#DejaVuSans-54"/>
       <use x="211.035156" xlink:href="#DejaVuSans-48"/>
      </g>
     </g>
    </g>
    <g id="xtick_2">
     <g id="line2d_5">
      <path clip-path="url(#p612fb70546)" d="M 80.625156 351.78 
L 80.625156 90.09 
" style="fill:none;stroke:#000000;stroke-dasharray:1,3;stroke-dashoffset:0;stroke-width:0.5;"/>
     </g>
     <g id="line2d_6">
      <g>
       <use style="stroke:#000000;stroke-width:0.5;" x="80.625156" xlink:href="#m0dd1e683a8" y="351.78"/>
      </g>
     </g>
     <g id="line2d_7">
      <g>
       <use style="stroke:#000000;stroke-width:0.5;" x="80.625156" xlink:href="#m318d66aab2" y="90.09"/>
      </g>
     </g>
     <g id="text_2">
      <!-- −140 -->
      <g transform="translate(64.144844 364.898125)scale(0.12 -0.12)">
       <defs>
        <path d="M 37.796875 64.3125 
L 12.890625 25.390625 
L 37.796875 25.390625 
z
M 35.203125 72.90625 
L 47.609375 72.90625 
L 47.609375 25.390625 
L 58.015625 25.390625 
L 58.015625 17.1875 
L 47.609375 17.1875 
L 47.609375 0 
L 37.796875 0 
L 37.796875 17.1875 
L 4.890625 17.1875 
L 4.890625 26.703125 
z
" id="DejaVuSans-52"/>
       </defs>
       <use xlink:href="#DejaVuSans-8722"/>
       <use x="83.789062" xlink:href="#DejaVuSans-49"/>
       <use x="147.412109" xlink:href="#DejaVuSans-52"/>
       <use x="211.035156" xlink:href="#DejaVuSans-48"/>
      </g>
     </g>
    </g>
    <g id="xtick_3">
     <g id="line2d_8">
      <path clip-path="url(#p612fb70546)" d="M 106.409375 351.78 
L 106.409375 90.09 
" style="fill:none;stroke:#000000;stroke-dasharray:1,3;stroke-dashoffset:0;stroke-width:0.5;"/>
     </g>
     <g id="line2d_9">
      <g>
       <use style="stroke:#000000;stroke-width:0.5;" x="106.409375" xlink:href="#m0dd1e683a8" y="351.78"/>
      </g>
     </g>
     <g id="line2d_10">
      <g>
       <use style="stroke:#000000;stroke-width:0.5;" x="106.409375" xlink:href="#m318d66aab2" y="90.09"/>
      </g>
     </g>
     <g id="text_3">
      <!-- −120 -->
      <g transform="translate(89.929063 364.898125)scale(0.12 -0.12)">
       <defs>
        <path d="M 19.1875 8.296875 
L 53.609375 8.296875 
L 53.609375 0 
L 7.328125 0 
L 7.328125 8.296875 
Q 12.9375 14.109375 22.625 23.890625 
Q 32.328125 33.6875 34.8125 36.53125 
Q 39.546875 41.84375 41.421875 45.53125 
Q 43.3125 49.21875 43.3125 52.78125 
Q 43.3125 58.59375 39.234375 62.25 
Q 35.15625 65.921875 28.609375 65.921875 
Q 23.96875 65.921875 18.8125 64.3125 
Q 13.671875 62.703125 7.8125 59.421875 
L 7.8125 69.390625 
Q 13.765625 71.78125 18.9375 73 
Q 24.125 74.21875 28.421875 74.21875 
Q 39.75 74.21875 46.484375 68.546875 
Q 53.21875 62.890625 53.21875 53.421875 
Q 53.21875 48.921875 51.53125 44.890625 
Q 49.859375 40.875 45.40625 35.40625 
Q 44.1875 33.984375 37.640625 27.21875 
Q 31.109375 20.453125 19.1875 8.296875 
z
" id="DejaVuSans-50"/>
       </defs>
       <use xlink:href="#DejaVuSans-8722"/>
       <use x="83.789062" xlink:href="#DejaVuSans-49"/>
       <use x="147.412109" xlink:href="#DejaVuSans-50"/>
       <use x="211.035156" xlink:href="#DejaVuSans-48"/>
      </g>
     </g>
    </g>
    <g id="xtick_4">
     <g id="line2d_11">
      <path clip-path="url(#p612fb70546)" d="M 132.193594 351.78 
L 132.193594 90.09 
" style="fill:none;stroke:#000000;stroke-dasharray:1,3;stroke-dashoffset:0;stroke-width:0.5;"/>
     </g>
     <g id="line2d_12">
      <g>
       <use style="stroke:#000000;stroke-width:0.5;" x="132.193594" xlink:href="#m0dd1e683a8" y="351.78"/>
      </g>
     </g>
     <g id="line2d_13">
      <g>
       <use style="stroke:#000000;stroke-width:0.5;" x="132.193594" xlink:href="#m318d66aab2" y="90.09"/>
      </g>
     </g>
     <g id="text_4">
      <!-- −100 -->
      <g transform="translate(115.713281 364.898125)scale(0.12 -0.12)">
       <use xlink:href="#DejaVuSans-8722"/>
       <use x="83.789062" xlink:href="#DejaVuSans-49"/>
       <use x="147.412109" xlink:href="#DejaVuSans-48"/>
       <use x="211.035156" xlink:href="#DejaVuSans-48"/>
      </g>
     </g>
    </g>
    <g id="xtick_5">
     <g id="line2d_14">
      <path clip-path="url(#p612fb70546)" d="M 157.977813 351.78 
L 157.977813 90.09 
" style="fill:none;stroke:#000000;stroke-dasharray:1,3;stroke-dashoffset:0;stroke-width:0.5;"/>
     </g>
     <g id="line2d_15">
      <g>
       <use style="stroke:#000000;stroke-width:0.5;" x="157.977813" xlink:href="#m0dd1e683a8" y="351.78"/>
      </g>
     </g>
     <g id="line2d_16">
      <g>
       <use style="stroke:#000000;stroke-width:0.5;" x="157.977813" xlink:href="#m318d66aab2" y="90.09"/>
      </g>
     </g>
     <g id="text_5">
      <!-- −80 -->
      <g transform="translate(145.315 364.898125)scale(0.12 -0.12)">
       <defs>
        <path d="M 31.78125 34.625 
Q 24.75 34.625 20.71875 30.859375 
Q 16.703125 27.09375 16.703125 20.515625 
Q 16.703125 13.921875 20.71875 10.15625 
Q 24.75 6.390625 31.78125 6.390625 
Q 38.8125 6.390625 42.859375 10.171875 
Q 46.921875 13.96875 46.921875 20.515625 
Q 46.921875 27.09375 42.890625 30.859375 
Q 38.875 34.625 31.78125 34.625 
z
M 21.921875 38.8125 
Q 15.578125 40.375 12.03125 44.71875 
Q 8.5 49.078125 8.5 55.328125 
Q 8.5 64.0625 14.71875 69.140625 
Q 20.953125 74.21875 31.78125 74.21875 
Q 42.671875 74.21875 48.875 69.140625 
Q 55.078125 64.0625 55.078125 55.328125 
Q 55.078125 49.078125 51.53125 44.71875 
Q 48 40.375 41.703125 38.8125 
Q 48.828125 37.15625 52.796875 32.3125 
Q 56.78125 27.484375 56.78125 20.515625 
Q 56.78125 9.90625 50.3125 4.234375 
Q 43.84375 -1.421875 31.78125 -1.421875 
Q 19.734375 -1.421875 13.25 4.234375 
Q 6.78125 9.90625 6.78125 20.515625 
Q 6.78125 27.484375 10.78125 32.3125 
Q 14.796875 37.15625 21.921875 38.8125 
z
M 18.3125 54.390625 
Q 18.3125 48.734375 21.84375 45.5625 
Q 25.390625 42.390625 31.78125 42.390625 
Q 38.140625 42.390625 41.71875 45.5625 
Q 45.3125 48.734375 45.3125 54.390625 
Q 45.3125 60.0625 41.71875 63.234375 
Q 38.140625 66.40625 31.78125 66.40625 
Q 25.390625 66.40625 21.84375 63.234375 
Q 18.3125 60.0625 18.3125 54.390625 
z
" id="DejaVuSans-56"/>
       </defs>
       <use xlink:href="#DejaVuSans-8722"/>
       <use x="83.789062" xlink:href="#DejaVuSans-56"/>
       <use x="147.412109" xlink:href="#DejaVuSans-48"/>
      </g>
     </g>
    </g>
    <g id="xtick_6">
     <g id="line2d_17">
      <path clip-path="url(#p612fb70546)" d="M 183.762031 351.78 
L 183.762031 90.09 
" style="fill:none;stroke:#000000;stroke-dasharray:1,3;stroke-dashoffset:0;stroke-width:0.5;"/>
     </g>
     <g id="line2d_18">
      <g>
       <use style="stroke:#000000;stroke-width:0.5;" x="183.762031" xlink:href="#m0dd1e683a8" y="351.78"/>
      </g>
     </g>
     <g id="line2d_19">
      <g>
       <use style="stroke:#000000;stroke-width:0.5;" x="183.762031" xlink:href="#m318d66aab2" y="90.09"/>
      </g>
     </g>
     <g id="text_6">
      <!-- −60 -->
      <g transform="translate(171.099219 364.898125)scale(0.12 -0.12)">
       <use xlink:href="#DejaVuSans-8722"/>
       <use x="83.789062" xlink:href="#DejaVuSans-54"/>
       <use x="147.412109" xlink:href="#DejaVuSans-48"/>
      </g>
     </g>
    </g>
    <g id="xtick_7">
     <g id="line2d_20">
      <path clip-path="url(#p612fb70546)" d="M 209.54625 351.78 
L 209.54625 90.09 
" style="fill:none;stroke:#000000;stroke-dasharray:1,3;stroke-dashoffset:0;stroke-width:0.5;"/>
     </g>
     <g id="line2d_21">
      <g>
       <use style="stroke:#000000;stroke-width:0.5;" x="209.54625" xlink:href="#m0dd1e683a8" y="351.78"/>
      </g>
     </g>
     <g id="line2d_22">
      <g>
       <use style="stroke:#000000;stroke-width:0.5;" x="209.54625" xlink:href="#m318d66aab2" y="90.09"/>
      </g>
     </g>
     <g id="text_7">
      <!-- −40 -->
      <g transform="translate(196.883438 364.898125)scale(0.12 -0.12)">
       <use xlink:href="#DejaVuSans-8722"/>
       <use x="83.789062" xlink:href="#DejaVuSans-52"/>
       <use x="147.412109" xlink:href="#DejaVuSans-48"/>
      </g>
     </g>
    </g>
    <g id="xtick_8">
     <g id="line2d_23">
      <path clip-path="url(#p612fb70546)" d="M 235.330469 351.78 
L 235.330469 90.09 
" style="fill:none;stroke:#000000;stroke-dasharray:1,3;stroke-dashoffset:0;stroke-width:0.5;"/>
     </g>
     <g id="line2d_24">
      <g>
       <use style="stroke:#000000;stroke-width:0.5;" x="235.330469" xlink:href="#m0dd1e683a8" y="351.78"/>
      </g>
     </g>
     <g id="line2d_25">
      <g>
       <use style="stroke:#000000;stroke-width:0.5;" x="235.330469" xlink:href="#m318d66aab2" y="90.09"/>
      </g>
     </g>
     <g id="text_8">
      <!-- −20 -->
      <g transform="translate(222.667656 364.898125)scale(0.12 -0.12)">
       <use xlink:href="#DejaVuSans-8722"/>
       <use x="83.789062" xlink:href="#DejaVuSans-50"/>
       <use x="147.412109" xlink:href="#DejaVuSans-48"/>
      </g>
     </g>
    </g>
    <g id="xtick_9">
     <g id="line2d_26">
      <path clip-path="url(#p612fb70546)" d="M 261.114688 351.78 
L 261.114688 90.09 
" style="fill:none;stroke:#000000;stroke-dasharray:1,3;stroke-dashoffset:0;stroke-width:0.5;"/>
     </g>
     <g id="line2d_27">
      <g>
       <use style="stroke:#000000;stroke-width:0.5;" x="261.114688" xlink:href="#m0dd1e683a8" y="351.78"/>
      </g>
     </g>
     <g id="line2d_28">
      <g>
       <use style="stroke:#000000;stroke-width:0.5;" x="261.114688" xlink:href="#m318d66aab2" y="90.09"/>
      </g>
     </g>
     <g id="text_9">
      <!-- 0 -->
      <g transform="translate(257.297188 364.898125)scale(0.12 -0.12)">
       <use xlink:href="#DejaVuSans-48"/>
      </g>
     </g>
    </g>
    <g id="xtick_10">
     <g id="line2d_29">
      <path clip-path="url(#p612fb70546)" d="M 286.898906 351.78 
L 286.898906 90.09 
" style="fill:none;stroke:#000000;stroke-dasharray:1,3;stroke-dashoffset:0;stroke-width:0.5;"/>
     </g>
     <g id="line2d_30">
      <g>
       <use style="stroke:#000000;stroke-width:0.5;" x="286.898906" xlink:href="#m0dd1e683a8" y="351.78"/>
      </g>
     </g>
     <g id="line2d_31">
      <g>
       <use style="stroke:#000000;stroke-width:0.5;" x="286.898906" xlink:href="#m318d66aab2" y="90.09"/>
      </g>
     </g>
     <g id="text_10">
      <!-- 20 -->
      <g transform="translate(279.263906 364.898125)scale(0.12 -0.12)">
       <use xlink:href="#DejaVuSans-50"/>
       <use x="63.623047" xlink:href="#DejaVuSans-48"/>
      </g>
     </g>
    </g>
    <g id="text_11">
     <!-- Ranging RSSI -->
     <g transform="translate(130.804922 381.511875)scale(0.12 -0.12)">
      <defs>
       <path d="M 44.390625 34.1875 
Q 47.5625 33.109375 50.5625 29.59375 
Q 53.5625 26.078125 56.59375 19.921875 
L 66.609375 0 
L 56 0 
L 46.6875 18.703125 
Q 43.0625 26.03125 39.671875 28.421875 
Q 36.28125 30.8125 30.421875 30.8125 
L 19.671875 30.8125 
L 19.671875 0 
L 9.8125 0 
L 9.8125 72.90625 
L 32.078125 72.90625 
Q 44.578125 72.90625 50.734375 67.671875 
Q 56.890625 62.453125 56.890625 51.90625 
Q 56.890625 45.015625 53.6875 40.46875 
Q 50.484375 35.9375 44.390625 34.1875 
z
M 19.671875 64.796875 
L 19.671875 38.921875 
L 32.078125 38.921875 
Q 39.203125 38.921875 42.84375 42.21875 
Q 46.484375 45.515625 46.484375 51.90625 
Q 46.484375 58.296875 42.84375 61.546875 
Q 39.203125 64.796875 32.078125 64.796875 
z
" id="DejaVuSans-82"/>
       <path d="M 34.28125 27.484375 
Q 23.390625 27.484375 19.1875 25 
Q 14.984375 22.515625 14.984375 16.5 
Q 14.984375 11.71875 18.140625 8.90625 
Q 21.296875 6.109375 26.703125 6.109375 
Q 34.1875 6.109375 38.703125 11.40625 
Q 43.21875 16.703125 43.21875 25.484375 
L 43.21875 27.484375 
z
M 52.203125 31.203125 
L 52.203125 0 
L 43.21875 0 
L 43.21875 8.296875 
Q 40.140625 3.328125 35.546875 0.953125 
Q 30.953125 -1.421875 24.3125 -1.421875 
Q 15.921875 -1.421875 10.953125 3.296875 
Q 6 8.015625 6 15.921875 
Q 6 25.140625 12.171875 29.828125 
Q 18.359375 34.515625 30.609375 34.515625 
L 43.21875 34.515625 
L 43.21875 35.40625 
Q 43.21875 41.609375 39.140625 45 
Q 35.0625 48.390625 27.6875 48.390625 
Q 23 48.390625 18.546875 47.265625 
Q 14.109375 46.140625 10.015625 43.890625 
L 10.015625 52.203125 
Q 14.9375 54.109375 19.578125 55.046875 
Q 24.21875 56 28.609375 56 
Q 40.484375 56 46.34375 49.84375 
Q 52.203125 43.703125 52.203125 31.203125 
z
" id="DejaVuSans-97"/>
       <path d="M 54.890625 33.015625 
L 54.890625 0 
L 45.90625 0 
L 45.90625 32.71875 
Q 45.90625 40.484375 42.875 44.328125 
Q 39.84375 48.1875 33.796875 48.1875 
Q 26.515625 48.1875 22.3125 43.546875 
Q 18.109375 38.921875 18.109375 30.90625 
L 18.109375 0 
L 9.078125 0 
L 9.078125 54.6875 
L 18.109375 54.6875 
L 18.109375 46.1875 
Q 21.34375 51.125 25.703125 53.5625 
Q 30.078125 56 35.796875 56 
Q 45.21875 56 50.046875 50.171875 
Q 54.890625 44.34375 54.890625 33.015625 
z
" id="DejaVuSans-110"/>
       <path d="M 45.40625 27.984375 
Q 45.40625 37.75 41.375 43.109375 
Q 37.359375 48.484375 30.078125 48.484375 
Q 22.859375 48.484375 18.828125 43.109375 
Q 14.796875 37.75 14.796875 27.984375 
Q 14.796875 18.265625 18.828125 12.890625 
Q 22.859375 7.515625 30.078125 7.515625 
Q 37.359375 7.515625 41.375 12.890625 
Q 45.40625 18.265625 45.40625 27.984375 
z
M 54.390625 6.78125 
Q 54.390625 -7.171875 48.1875 -13.984375 
Q 42 -20.796875 29.203125 -20.796875 
Q 24.46875 -20.796875 20.265625 -20.09375 
Q 16.0625 -19.390625 12.109375 -17.921875 
L 12.109375 -9.1875 
Q 16.0625 -11.328125 19.921875 -12.34375 
Q 23.78125 -13.375 27.78125 -13.375 
Q 36.625 -13.375 41.015625 -8.765625 
Q 45.40625 -4.15625 45.40625 5.171875 
L 45.40625 9.625 
Q 42.625 4.78125 38.28125 2.390625 
Q 33.9375 0 27.875 0 
Q 17.828125 0 11.671875 7.65625 
Q 5.515625 15.328125 5.515625 27.984375 
Q 5.515625 40.671875 11.671875 48.328125 
Q 17.828125 56 27.875 56 
Q 33.9375 56 38.28125 53.609375 
Q 42.625 51.21875 45.40625 46.390625 
L 45.40625 54.6875 
L 54.390625 54.6875 
z
" id="DejaVuSans-103"/>
       <path d="M 9.421875 54.6875 
L 18.40625 54.6875 
L 18.40625 0 
L 9.421875 0 
z
M 9.421875 75.984375 
L 18.40625 75.984375 
L 18.40625 64.59375 
L 9.421875 64.59375 
z
" id="DejaVuSans-105"/>
       <path id="DejaVuSans-32"/>
       <path d="M 53.515625 70.515625 
L 53.515625 60.890625 
Q 47.90625 63.578125 42.921875 64.890625 
Q 37.9375 66.21875 33.296875 66.21875 
Q 25.25 66.21875 20.875 63.09375 
Q 16.5 59.96875 16.5 54.203125 
Q 16.5 49.359375 19.40625 46.890625 
Q 22.3125 44.4375 30.421875 42.921875 
L 36.375 41.703125 
Q 47.40625 39.59375 52.65625 34.296875 
Q 57.90625 29 57.90625 20.125 
Q 57.90625 9.515625 50.796875 4.046875 
Q 43.703125 -1.421875 29.984375 -1.421875 
Q 24.8125 -1.421875 18.96875 -0.25 
Q 13.140625 0.921875 6.890625 3.21875 
L 6.890625 13.375 
Q 12.890625 10.015625 18.65625 8.296875 
Q 24.421875 6.59375 29.984375 6.59375 
Q 38.421875 6.59375 43.015625 9.90625 
Q 47.609375 13.234375 47.609375 19.390625 
Q 47.609375 24.75 44.3125 27.78125 
Q 41.015625 30.8125 33.5 32.328125 
L 27.484375 33.5 
Q 16.453125 35.6875 11.515625 40.375 
Q 6.59375 45.0625 6.59375 53.421875 
Q 6.59375 63.09375 13.40625 68.65625 
Q 20.21875 74.21875 32.171875 74.21875 
Q 37.3125 74.21875 42.625 73.28125 
Q 47.953125 72.359375 53.515625 70.515625 
z
" id="DejaVuSans-83"/>
       <path d="M 9.8125 72.90625 
L 19.671875 72.90625 
L 19.671875 0 
L 9.8125 0 
z
" id="DejaVuSans-73"/>
      </defs>
      <use xlink:href="#DejaVuSans-82"/>
      <use x="67.232422" xlink:href="#DejaVuSans-97"/>
      <use x="128.511719" xlink:href="#DejaVuSans-110"/>
      <use x="191.890625" xlink:href="#DejaVuSans-103"/>
      <use x="255.367188" xlink:href="#DejaVuSans-105"/>
      <use x="283.150391" xlink:href="#DejaVuSans-110"/>
      <use x="346.529297" xlink:href="#DejaVuSans-103"/>
      <use x="410.005859" xlink:href="#DejaVuSans-32"/>
      <use x="441.792969" xlink:href="#DejaVuSans-82"/>
      <use x="511.275391" xlink:href="#DejaVuSans-83"/>
      <use x="574.751953" xlink:href="#DejaVuSans-83"/>
      <use x="638.228516" xlink:href="#DejaVuSans-73"/>
     </g>
    </g>
   </g>
   <g id="matplotlib.axis_2">
    <g id="ytick_1">
     <g id="line2d_32">
      <path clip-path="url(#p612fb70546)" d="M 54.840937 351.78 
L 286.898906 351.78 
" style="fill:none;stroke:#000000;stroke-dasharray:1,3;stroke-dashoffset:0;stroke-width:0.5;"/>
     </g>
     <g id="line2d_33">
      <defs>
       <path d="M 0 0 
L 4 0 
" id="maf42a45415" style="stroke:#000000;stroke-width:0.5;"/>
      </defs>
      <g>
       <use style="stroke:#000000;stroke-width:0.5;" x="54.840937" xlink:href="#maf42a45415" y="351.78"/>
      </g>
     </g>
     <g id="line2d_34">
      <defs>
       <path d="M 0 0 
L -4 0 
" id="m3fc0f72b8a" style="stroke:#000000;stroke-width:0.5;"/>
      </defs>
      <g>
       <use style="stroke:#000000;stroke-width:0.5;" x="286.898906" xlink:href="#m3fc0f72b8a" y="351.78"/>
      </g>
     </g>
     <g id="text_12">
      <!-- −6 -->
      <g transform="translate(33.150312 355.09125)scale(0.12 -0.12)">
       <use xlink:href="#DejaVuSans-8722"/>
       <use x="83.789062" xlink:href="#DejaVuSans-54"/>
      </g>
     </g>
    </g>
    <g id="ytick_2">
     <g id="line2d_35">
      <path clip-path="url(#p612fb70546)" d="M 54.840937 319.06875 
L 286.898906 319.06875 
" style="fill:none;stroke:#000000;stroke-dasharray:1,3;stroke-dashoffset:0;stroke-width:0.5;"/>
     </g>
     <g id="line2d_36">
      <g>
       <use style="stroke:#000000;stroke-width:0.5;" x="54.840937" xlink:href="#maf42a45415" y="319.06875"/>
      </g>
     </g>
     <g id="line2d_37">
      <g>
       <use style="stroke:#000000;stroke-width:0.5;" x="286.898906" xlink:href="#m3fc0f72b8a" y="319.06875"/>
      </g>
     </g>
     <g id="text_13">
      <!-- −4 -->
      <g transform="translate(33.150312 322.38)scale(0.12 -0.12)">
       <use xlink:href="#DejaVuSans-8722"/>
       <use x="83.789062" xlink:href="#DejaVuSans-52"/>
      </g>
     </g>
    </g>
    <g id="ytick_3">
     <g id="line2d_38">
      <path clip-path="url(#p612fb70546)" d="M 54.840937 286.3575 
L 286.898906 286.3575 
" style="fill:none;stroke:#000000;stroke-dasharray:1,3;stroke-dashoffset:0;stroke-width:0.5;"/>
     </g>
     <g id="line2d_39">
      <g>
       <use style="stroke:#000000;stroke-width:0.5;" x="54.840937" xlink:href="#maf42a45415" y="286.3575"/>
      </g>
     </g>
     <g id="line2d_40">
      <g>
       <use style="stroke:#000000;stroke-width:0.5;" x="286.898906" xlink:href="#m3fc0f72b8a" y="286.3575"/>
      </g>
     </g>
     <g id="text_14">
      <!-- −2 -->
      <g transform="translate(33.150312 289.66875)scale(0.12 -0.12)">
       <use xlink:href="#DejaVuSans-8722"/>
       <use x="83.789062" xlink:href="#DejaVuSans-50"/>
      </g>
     </g>
    </g>
    <g id="ytick_4">
     <g id="line2d_41">
      <path clip-path="url(#p612fb70546)" d="M 54.840937 253.64625 
L 286.898906 253.64625 
" style="fill:none;stroke:#000000;stroke-dasharray:1,3;stroke-dashoffset:0;stroke-width:0.5;"/>
     </g>
     <g id="line2d_42">
      <g>
       <use style="stroke:#000000;stroke-width:0.5;" x="54.840937" xlink:href="#maf42a45415" y="253.64625"/>
      </g>
     </g>
     <g id="line2d_43">
      <g>
       <use style="stroke:#000000;stroke-width:0.5;" x="286.898906" xlink:href="#m3fc0f72b8a" y="253.64625"/>
      </g>
     </g>
     <g id="text_15">
      <!-- 0 -->
      <g transform="translate(43.205937 256.9575)scale(0.12 -0.12)">
       <use xlink:href="#DejaVuSans-48"/>
      </g>
     </g>
    </g>
    <g id="ytick_5">
     <g id="line2d_44">
      <path clip-path="url(#p612fb70546)" d="M 54.840937 220.935 
L 286.898906 220.935 
" style="fill:none;stroke:#000000;stroke-dasharray:1,3;stroke-dashoffset:0;stroke-width:0.5;"/>
     </g>
     <g id="line2d_45">
      <g>
       <use style="stroke:#000000;stroke-width:0.5;" x="54.840937" xlink:href="#maf42a45415" y="220.935"/>
      </g>
     </g>
     <g id="line2d_46">
      <g>
       <use style="stroke:#000000;stroke-width:0.5;" x="286.898906" xlink:href="#m3fc0f72b8a" y="220.935"/>
      </g>
     </g>
     <g id="text_16">
      <!-- 2 -->
      <g transform="translate(43.205937 224.24625)scale(0.12 -0.12)">
       <use xlink:href="#DejaVuSans-50"/>
      </g>
     </g>
    </g>
    <g id="ytick_6">
     <g id="line2d_47">
      <path clip-path="url(#p612fb70546)" d="M 54.840937 188.22375 
L 286.898906 188.22375 
" style="fill:none;stroke:#000000;stroke-dasharray:1,3;stroke-dashoffset:0;stroke-width:0.5;"/>
     </g>
     <g id="line2d_48">
      <g>
       <use style="stroke:#000000;stroke-width:0.5;" x="54.840937" xlink:href="#maf42a45415" y="188.22375"/>
      </g>
     </g>
     <g id="line2d_49">
      <g>
       <use style="stroke:#000000;stroke-width:0.5;" x="286.898906" xlink:href="#m3fc0f72b8a" y="188.22375"/>
      </g>
     </g>
     <g id="text_17">
      <!-- 4 -->
      <g transform="translate(43.205937 191.535)scale(0.12 -0.12)">
       <use xlink:href="#DejaVuSans-52"/>
      </g>
     </g>
    </g>
    <g id="ytick_7">
     <g id="line2d_50">
      <path clip-path="url(#p612fb70546)" d="M 54.840937 155.5125 
L 286.898906 155.5125 
" style="fill:none;stroke:#000000;stroke-dasharray:1,3;stroke-dashoffset:0;stroke-width:0.5;"/>
     </g>
     <g id="line2d_51">
      <g>
       <use style="stroke:#000000;stroke-width:0.5;" x="54.840937" xlink:href="#maf42a45415" y="155.5125"/>
      </g>
     </g>
     <g id="line2d_52">
      <g>
       <use style="stroke:#000000;stroke-width:0.5;" x="286.898906" xlink:href="#m3fc0f72b8a" y="155.5125"/>
      </g>
     </g>
     <g id="text_18">
      <!-- 6 -->
      <g transform="translate(43.205937 158.82375)scale(0.12 -0.12)">
       <use xlink:href="#DejaVuSans-54"/>
      </g>
     </g>
    </g>
    <g id="ytick_8">
     <g id="line2d_53">
      <path clip-path="url(#p612fb70546)" d="M 54.840937 122.80125 
L 286.898906 122.80125 
" style="fill:none;stroke:#000000;stroke-dasharray:1,3;stroke-dashoffset:0;stroke-width:0.5;"/>
     </g>
     <g id="line2d_54">
      <g>
       <use style="stroke:#000000;stroke-width:0.5;" x="54.840937" xlink:href="#maf42a45415" y="122.80125"/>
      </g>
     </g>
     <g id="line2d_55">
      <g>
       <use style="stroke:#000000;stroke-width:0.5;" x="286.898906" xlink:href="#m3fc0f72b8a" y="122.80125"/>
      </g>
     </g>
     <g id="text_19">
      <!-- 8 -->
      <g transform="translate(43.205937 126.1125)scale(0.12 -0.12)">
       <use xlink:href="#DejaVuSans-56"/>
      </g>
     </g>
    </g>
    <g id="ytick_9">
     <g id="line2d_56">
      <path clip-path="url(#p612fb70546)" d="M 54.840937 90.09 
L 286.898906 90.09 
" style="fill:none;stroke:#000000;stroke-dasharray:1,3;stroke-dashoffset:0;stroke-width:0.5;"/>
     </g>
     <g id="line2d_57">
      <g>
       <use style="stroke:#000000;stroke-width:0.5;" x="54.840937" xlink:href="#maf42a45415" y="90.09"/>
      </g>
     </g>
     <g id="line2d_58">
      <g>
       <use style="stroke:#000000;stroke-width:0.5;" x="286.898906" xlink:href="#m3fc0f72b8a" y="90.09"/>
      </g>
     </g>
     <g id="text_20">
      <!-- 10 -->
      <g transform="translate(35.570937 93.40125)scale(0.12 -0.12)">
       <use xlink:href="#DejaVuSans-49"/>
       <use x="63.623047" xlink:href="#DejaVuSans-48"/>
      </g>
     </g>
    </g>
    <g id="text_21">
     <!-- Distance correction -->
     <g transform="translate(25.654687 279.224062)rotate(-90)scale(0.12 -0.12)">
      <defs>
       <path d="M 19.671875 64.796875 
L 19.671875 8.109375 
L 31.59375 8.109375 
Q 46.6875 8.109375 53.6875 14.9375 
Q 60.6875 21.78125 60.6875 36.53125 
Q 60.6875 51.171875 53.6875 57.984375 
Q 46.6875 64.796875 31.59375 64.796875 
z
M 9.8125 72.90625 
L 30.078125 72.90625 
Q 51.265625 72.90625 61.171875 64.09375 
Q 71.09375 55.28125 71.09375 36.53125 
Q 71.09375 17.671875 61.125 8.828125 
Q 51.171875 0 30.078125 0 
L 9.8125 0 
z
" id="DejaVuSans-68"/>
       <path d="M 44.28125 53.078125 
L 44.28125 44.578125 
Q 40.484375 46.53125 36.375 47.5 
Q 32.28125 48.484375 27.875 48.484375 
Q 21.1875 48.484375 17.84375 46.4375 
Q 14.5 44.390625 14.5 40.28125 
Q 14.5 37.15625 16.890625 35.375 
Q 19.28125 33.59375 26.515625 31.984375 
L 29.59375 31.296875 
Q 39.15625 29.25 43.1875 25.515625 
Q 47.21875 21.78125 47.21875 15.09375 
Q 47.21875 7.46875 41.1875 3.015625 
Q 35.15625 -1.421875 24.609375 -1.421875 
Q 20.21875 -1.421875 15.453125 -0.5625 
Q 10.6875 0.296875 5.421875 2 
L 5.421875 11.28125 
Q 10.40625 8.6875 15.234375 7.390625 
Q 20.0625 6.109375 24.8125 6.109375 
Q 31.15625 6.109375 34.5625 8.28125 
Q 37.984375 10.453125 37.984375 14.40625 
Q 37.984375 18.0625 35.515625 20.015625 
Q 33.0625 21.96875 24.703125 23.78125 
L 21.578125 24.515625 
Q 13.234375 26.265625 9.515625 29.90625 
Q 5.8125 33.546875 5.8125 39.890625 
Q 5.8125 47.609375 11.28125 51.796875 
Q 16.75 56 26.8125 56 
Q 31.78125 56 36.171875 55.265625 
Q 40.578125 54.546875 44.28125 53.078125 
z
" id="DejaVuSans-115"/>
       <path d="M 18.3125 70.21875 
L 18.3125 54.6875 
L 36.8125 54.6875 
L 36.8125 47.703125 
L 18.3125 47.703125 
L 18.3125 18.015625 
Q 18.3125 11.328125 20.140625 9.421875 
Q 21.96875 7.515625 27.59375 7.515625 
L 36.8125 7.515625 
L 36.8125 0 
L 27.59375 0 
Q 17.1875 0 13.234375 3.875 
Q 9.28125 7.765625 9.28125 18.015625 
L 9.28125 47.703125 
L 2.6875 47.703125 
L 2.6875 54.6875 
L 9.28125 54.6875 
L 9.28125 70.21875 
z
" id="DejaVuSans-116"/>
       <path d="M 48.78125 52.59375 
L 48.78125 44.1875 
Q 44.96875 46.296875 41.140625 47.34375 
Q 37.3125 48.390625 33.40625 48.390625 
Q 24.65625 48.390625 19.8125 42.84375 
Q 14.984375 37.3125 14.984375 27.296875 
Q 14.984375 17.28125 19.8125 11.734375 
Q 24.65625 6.203125 33.40625 6.203125 
Q 37.3125 6.203125 41.140625 7.25 
Q 44.96875 8.296875 48.78125 10.40625 
L 48.78125 2.09375 
Q 45.015625 0.34375 40.984375 -0.53125 
Q 36.96875 -1.421875 32.421875 -1.421875 
Q 20.0625 -1.421875 12.78125 6.34375 
Q 5.515625 14.109375 5.515625 27.296875 
Q 5.515625 40.671875 12.859375 48.328125 
Q 20.21875 56 33.015625 56 
Q 37.15625 56 41.109375 55.140625 
Q 45.0625 54.296875 48.78125 52.59375 
z
" id="DejaVuSans-99"/>
       <path d="M 56.203125 29.59375 
L 56.203125 25.203125 
L 14.890625 25.203125 
Q 15.484375 15.921875 20.484375 11.0625 
Q 25.484375 6.203125 34.421875 6.203125 
Q 39.59375 6.203125 44.453125 7.46875 
Q 49.3125 8.734375 54.109375 11.28125 
L 54.109375 2.78125 
Q 49.265625 0.734375 44.1875 -0.34375 
Q 39.109375 -1.421875 33.890625 -1.421875 
Q 20.796875 -1.421875 13.15625 6.1875 
Q 5.515625 13.8125 5.515625 26.8125 
Q 5.515625 40.234375 12.765625 48.109375 
Q 20.015625 56 32.328125 56 
Q 43.359375 56 49.78125 48.890625 
Q 56.203125 41.796875 56.203125 29.59375 
z
M 47.21875 32.234375 
Q 47.125 39.59375 43.09375 43.984375 
Q 39.0625 48.390625 32.421875 48.390625 
Q 24.90625 48.390625 20.390625 44.140625 
Q 15.875 39.890625 15.1875 32.171875 
z
" id="DejaVuSans-101"/>
       <path d="M 30.609375 48.390625 
Q 23.390625 48.390625 19.1875 42.75 
Q 14.984375 37.109375 14.984375 27.296875 
Q 14.984375 17.484375 19.15625 11.84375 
Q 23.34375 6.203125 30.609375 6.203125 
Q 37.796875 6.203125 41.984375 11.859375 
Q 46.1875 17.53125 46.1875 27.296875 
Q 46.1875 37.015625 41.984375 42.703125 
Q 37.796875 48.390625 30.609375 48.390625 
z
M 30.609375 56 
Q 42.328125 56 49.015625 48.375 
Q 55.71875 40.765625 55.71875 27.296875 
Q 55.71875 13.875 49.015625 6.21875 
Q 42.328125 -1.421875 30.609375 -1.421875 
Q 18.84375 -1.421875 12.171875 6.21875 
Q 5.515625 13.875 5.515625 27.296875 
Q 5.515625 40.765625 12.171875 48.375 
Q 18.84375 56 30.609375 56 
z
" id="DejaVuSans-111"/>
       <path d="M 41.109375 46.296875 
Q 39.59375 47.171875 37.8125 47.578125 
Q 36.03125 48 33.890625 48 
Q 26.265625 48 22.1875 43.046875 
Q 18.109375 38.09375 18.109375 28.8125 
L 18.109375 0 
L 9.078125 0 
L 9.078125 54.6875 
L 18.109375 54.6875 
L 18.109375 46.1875 
Q 20.953125 51.171875 25.484375 53.578125 
Q 30.03125 56 36.53125 56 
Q 37.453125 56 38.578125 55.875 
Q 39.703125 55.765625 41.0625 55.515625 
z
" id="DejaVuSans-114"/>
      </defs>
      <use xlink:href="#DejaVuSans-68"/>
      <use x="77.001953" xlink:href="#DejaVuSans-105"/>
      <use x="104.785156" xlink:href="#DejaVuSans-115"/>
      <use x="156.884766" xlink:href="#DejaVuSans-116"/>
      <use x="196.09375" xlink:href="#DejaVuSans-97"/>
      <use x="257.373047" xlink:href="#DejaVuSans-110"/>
      <use x="320.751953" xlink:href="#DejaVuSans-99"/>
      <use x="375.732422" xlink:href="#DejaVuSans-101"/>
      <use x="437.255859" xlink:href="#DejaVuSans-32"/>
      <use x="469.042969" xlink:href="#DejaVuSans-99"/>
      <use x="524.023438" xlink:href="#DejaVuSans-111"/>
      <use x="585.205078" xlink:href="#DejaVuSans-114"/>
      <use x="624.568359" xlink:href="#DejaVuSans-114"/>
      <use x="663.431641" xlink:href="#DejaVuSans-101"/>
      <use x="724.955078" xlink:href="#DejaVuSans-99"/>
      <use x="779.935547" xlink:href="#DejaVuSans-116"/>
      <use x="819.144531" xlink:href="#DejaVuSans-105"/>
      <use x="846.927734" xlink:href="#DejaVuSans-111"/>
      <use x="908.109375" xlink:href="#DejaVuSans-110"/>
     </g>
    </g>
   </g>
   <g id="legend_1">
    <g id="patch_7">
     <path d="M 129.293906 345.78 
L 278.498906 345.78 
Q 280.898906 345.78 280.898906 343.38 
L 280.898906 326.96625 
Q 280.898906 324.56625 278.498906 324.56625 
L 129.293906 324.56625 
Q 126.893906 324.56625 126.893906 326.96625 
L 126.893906 343.38 
Q 126.893906 345.78 129.293906 345.78 
z
" style="fill:#ffffff;opacity:0.5;stroke:#000000;stroke-linejoin:miter;"/>
    </g>
    <g id="line2d_59">
     <path d="M 135.293906 334.284375 
L 152.093906 334.284375 
" style="fill:none;stroke:#2fa19e;stroke-linecap:square;"/>
    </g>
    <g id="line2d_60"/>
    <g id="text_22">
     <!-- SF10, BW 400 KHz -->
     <g transform="translate(165.293906 338.484375)scale(0.12 -0.12)">
      <defs>
       <path d="M 9.8125 72.90625 
L 51.703125 72.90625 
L 51.703125 64.59375 
L 19.671875 64.59375 
L 19.671875 43.109375 
L 48.578125 43.109375 
L 48.578125 34.8125 
L 19.671875 34.8125 
L 19.671875 0 
L 9.8125 0 
z
" id="DejaVuSans-70"/>
       <path d="M 11.71875 12.40625 
L 22.015625 12.40625 
L 22.015625 4 
L 14.015625 -11.625 
L 7.71875 -11.625 
L 11.71875 4 
z
" id="DejaVuSans-44"/>
       <path d="M 19.671875 34.8125 
L 19.671875 8.109375 
L 35.5 8.109375 
Q 43.453125 8.109375 47.28125 11.40625 
Q 51.125 14.703125 51.125 21.484375 
Q 51.125 28.328125 47.28125 31.5625 
Q 43.453125 34.8125 35.5 34.8125 
z
M 19.671875 64.796875 
L 19.671875 42.828125 
L 34.28125 42.828125 
Q 41.5 42.828125 45.03125 45.53125 
Q 48.578125 48.25 48.578125 53.8125 
Q 48.578125 59.328125 45.03125 62.0625 
Q 41.5 64.796875 34.28125 64.796875 
z
M 9.8125 72.90625 
L 35.015625 72.90625 
Q 46.296875 72.90625 52.390625 68.21875 
Q 58.5 63.53125 58.5 54.890625 
Q 58.5 48.1875 55.375 44.234375 
Q 52.25 40.28125 46.1875 39.3125 
Q 53.46875 37.75 57.5 32.78125 
Q 61.53125 27.828125 61.53125 20.40625 
Q 61.53125 10.640625 54.890625 5.3125 
Q 48.25 0 35.984375 0 
L 9.8125 0 
z
" id="DejaVuSans-66"/>
       <path d="M 3.328125 72.90625 
L 13.28125 72.90625 
L 28.609375 11.28125 
L 43.890625 72.90625 
L 54.984375 72.90625 
L 70.3125 11.28125 
L 85.59375 72.90625 
L 95.609375 72.90625 
L 77.296875 0 
L 64.890625 0 
L 49.515625 63.28125 
L 33.984375 0 
L 21.578125 0 
z
" id="DejaVuSans-87"/>
       <path d="M 9.8125 72.90625 
L 19.671875 72.90625 
L 19.671875 42.09375 
L 52.390625 72.90625 
L 65.09375 72.90625 
L 28.90625 38.921875 
L 67.671875 0 
L 54.6875 0 
L 19.671875 35.109375 
L 19.671875 0 
L 9.8125 0 
z
" id="DejaVuSans-75"/>
       <path d="M 9.8125 72.90625 
L 19.671875 72.90625 
L 19.671875 43.015625 
L 55.515625 43.015625 
L 55.515625 72.90625 
L 65.375 72.90625 
L 65.375 0 
L 55.515625 0 
L 55.515625 34.71875 
L 19.671875 34.71875 
L 19.671875 0 
L 9.8125 0 
z
" id="DejaVuSans-72"/>
       <path d="M 5.515625 54.6875 
L 48.1875 54.6875 
L 48.1875 46.484375 
L 14.40625 7.171875 
L 48.1875 7.171875 
L 48.1875 0 
L 4.296875 0 
L 4.296875 8.203125 
L 38.09375 47.515625 
L 5.515625 47.515625 
z
" id="DejaVuSans-122"/>
      </defs>
      <use xlink:href="#DejaVuSans-83"/>
      <use x="63.476562" xlink:href="#DejaVuSans-70"/>
      <use x="120.996094" xlink:href="#DejaVuSans-49"/>
      <use x="184.619141" xlink:href="#DejaVuSans-48"/>
      <use x="248.242188" xlink:href="#DejaVuSans-44"/>
      <use x="280.029297" xlink:href="#DejaVuSans-32"/>
      <use x="311.816406" xlink:href="#DejaVuSans-66"/>
      <use x="376.794922" xlink:href="#DejaVuSans-87"/>
      <use x="475.671875" xlink:href="#DejaVuSans-32"/>
      <use x="507.458984" xlink:href="#DejaVuSans-52"/>
      <use x="571.082031" xlink:href="#DejaVuSans-48"/>
      <use x="634.705078" xlink:href="#DejaVuSans-48"/>
      <use x="698.328125" xlink:href="#DejaVuSans-32"/>
      <use x="730.115234" xlink:href="#DejaVuSans-75"/>
      <use x="795.691406" xlink:href="#DejaVuSans-72"/>
      <use x="870.886719" xlink:href="#DejaVuSans-122"/>
     </g>
    </g>
   </g>
  </g>
  <g id="axes_2">
   <g id="patch_8">
    <path d="M 358.02 351.78 
L 590.077969 351.78 
L 590.077969 90.09 
L 358.02 90.09 
z
" style="fill:none;"/>
   </g>
   <g id="line2d_61">
    <path clip-path="url(#peb9f391e87)" d="M 370.912109 319.854568 
L 413.45607 319.854568 
L 414.745281 251.22973 
L 416.034492 196.126788 
L 417.323703 200.829731 
L 418.612914 176.274985 
L 419.902125 154.028344 
L 421.191336 151.228261 
L 422.480547 163.097772 
L 423.769758 169.429922 
L 425.058969 170.970902 
L 426.34818 167.236212 
L 427.637391 176.960612 
L 428.926602 181.06765 
L 430.215813 178.671317 
L 431.505023 182.779103 
L 432.794234 178.329625 
L 434.083445 178.675803 
L 435.372656 180.724462 
L 436.661867 179.827239 
L 437.951078 189.794638 
L 439.240289 185.85882 
L 440.5295 185.85882 
L 441.818711 179.827239 
L 443.107922 189.280978 
L 444.397133 189.623418 
L 445.686344 189.623418 
L 446.975555 188.254405 
L 448.264766 183.259117 
L 449.553977 181.232889 
L 450.843187 189.623418 
L 453.421609 190.993178 
L 454.71082 188.596845 
L 456.000031 188.938538 
L 457.289242 188.938538 
L 458.578453 187.911965 
L 459.867664 189.623418 
L 461.156875 189.280978 
L 462.446086 181.232889 
L 463.735297 185.17394 
L 465.024508 187.569525 
L 466.313719 188.254405 
L 467.60293 184.489808 
L 468.892141 183.259117 
L 470.181352 175.933292 
L 471.470563 176.274985 
L 472.759773 178.329625 
L 474.048984 173.53696 
L 475.338195 169.429922 
L 476.627406 173.53696 
L 477.916617 171.142122 
L 479.205828 169.429922 
L 480.495039 167.376777 
L 481.78425 166.349457 
L 483.073461 168.061657 
L 484.362672 168.745042 
L 485.651883 167.035085 
L 488.230305 167.035085 
L 489.519516 167.376777 
L 490.808727 165.665324 
L 492.097938 151.228261 
L 493.387148 154.028344 
L 494.676359 154.028344 
L 495.96557 147.868161 
L 497.254781 148.893986 
L 498.543992 147.868161 
L 499.833203 148.209854 
L 501.122414 147.868161 
L 502.411625 149.921306 
L 503.700836 148.551546 
L 504.990047 146.499149 
L 506.279258 143.075496 
L 507.568469 144.102816 
L 508.85768 144.102816 
L 510.146891 140.679911 
L 511.436102 143.075496 
L 512.725313 140.679911 
L 514.014523 135.212833 
L 515.303734 139.310898 
L 516.592945 135.545553 
L 517.882156 137.257753 
L 519.171367 137.600193 
L 520.460578 130.411943 
L 521.749789 133.834848 
L 523.039 138.626766 
L 524.328211 141.364043 
L 525.617422 135.545553 
L 526.906633 135.203113 
L 528.195844 130.629519 
L 532.063477 134.05392 
L 533.352688 130.069503 
L 534.641898 127.673918 
L 535.931109 130.069503 
L 537.22032 129.727063 
L 538.509531 126.053683 
L 539.798742 131.096823 
L 541.087953 133.150716 
L 542.377164 128.70049 
L 543.666375 131.096823 
L 544.955586 130.069503 
L 546.244797 125.620773 
L 547.534008 127.673918 
L 548.823219 130.069503 
L 550.11243 125.963213 
L 551.401641 125.963213 
L 552.690852 126.305653 
L 553.980063 147.525721 
L 575.896648 147.525721 
L 575.896648 147.525721 
" style="fill:none;stroke:#2fa19e;stroke-linecap:square;"/>
   </g>
   <g id="patch_9">
    <path d="M 358.02 351.78 
L 358.02 90.09 
" style="fill:none;stroke:#000000;stroke-linecap:square;stroke-linejoin:miter;"/>
   </g>
   <g id="patch_10">
    <path d="M 590.077969 351.78 
L 590.077969 90.09 
" style="fill:none;stroke:#000000;stroke-linecap:square;stroke-linejoin:miter;"/>
   </g>
   <g id="patch_11">
    <path d="M 358.02 351.78 
L 590.077969 351.78 
" style="fill:none;stroke:#000000;stroke-linecap:square;stroke-linejoin:miter;"/>
   </g>
   <g id="patch_12">
    <path d="M 358.02 90.09 
L 590.077969 90.09 
" style="fill:none;stroke:#000000;stroke-linecap:square;stroke-linejoin:miter;"/>
   </g>
   <g id="matplotlib.axis_3">
    <g id="xtick_11">
     <g id="line2d_62">
      <path clip-path="url(#peb9f391e87)" d="M 358.02 351.78 
L 358.02 90.09 
" style="fill:none;stroke:#000000;stroke-dasharray:1,3;stroke-dashoffset:0;stroke-width:0.5;"/>
     </g>
     <g id="line2d_63">
      <g>
       <use style="stroke:#000000;stroke-width:0.5;" x="358.02" xlink:href="#m0dd1e683a8" y="351.78"/>
      </g>
     </g>
     <g id="line2d_64">
      <g>
       <use style="stroke:#000000;stroke-width:0.5;" x="358.02" xlink:href="#m318d66aab2" y="90.09"/>
      </g>
     </g>
     <g id="text_23">
      <!-- −160 -->
      <g transform="translate(341.539687 364.898125)scale(0.12 -0.12)">
       <use xlink:href="#DejaVuSans-8722"/>
       <use x="83.789062" xlink:href="#DejaVuSans-49"/>
       <use x="147.412109" xlink:href="#DejaVuSans-54"/>
       <use x="211.035156" xlink:href="#DejaVuSans-48"/>
      </g>
     </g>
    </g>
    <g id="xtick_12">
     <g id="line2d_65">
      <path clip-path="url(#peb9f391e87)" d="M 383.804219 351.78 
L 383.804219 90.09 
" style="fill:none;stroke:#000000;stroke-dasharray:1,3;stroke-dashoffset:0;stroke-width:0.5;"/>
     </g>
     <g id="line2d_66">
      <g>
       <use style="stroke:#000000;stroke-width:0.5;" x="383.804219" xlink:href="#m0dd1e683a8" y="351.78"/>
      </g>
     </g>
     <g id="line2d_67">
      <g>
       <use style="stroke:#000000;stroke-width:0.5;" x="383.804219" xlink:href="#m318d66aab2" y="90.09"/>
      </g>
     </g>
     <g id="text_24">
      <!-- −140 -->
      <g transform="translate(367.323906 364.898125)scale(0.12 -0.12)">
       <use xlink:href="#DejaVuSans-8722"/>
       <use x="83.789062" xlink:href="#DejaVuSans-49"/>
       <use x="147.412109" xlink:href="#DejaVuSans-52"/>
       <use x="211.035156" xlink:href="#DejaVuSans-48"/>
      </g>
     </g>
    </g>
    <g id="xtick_13">
     <g id="line2d_68">
      <path clip-path="url(#peb9f391e87)" d="M 409.588438 351.78 
L 409.588438 90.09 
" style="fill:none;stroke:#000000;stroke-dasharray:1,3;stroke-dashoffset:0;stroke-width:0.5;"/>
     </g>
     <g id="line2d_69">
      <g>
       <use style="stroke:#000000;stroke-width:0.5;" x="409.588438" xlink:href="#m0dd1e683a8" y="351.78"/>
      </g>
     </g>
     <g id="line2d_70">
      <g>
       <use style="stroke:#000000;stroke-width:0.5;" x="409.588438" xlink:href="#m318d66aab2" y="90.09"/>
      </g>
     </g>
     <g id="text_25">
      <!-- −120 -->
      <g transform="translate(393.108125 364.898125)scale(0.12 -0.12)">
       <use xlink:href="#DejaVuSans-8722"/>
       <use x="83.789062" xlink:href="#DejaVuSans-49"/>
       <use x="147.412109" xlink:href="#DejaVuSans-50"/>
       <use x="211.035156" xlink:href="#DejaVuSans-48"/>
      </g>
     </g>
    </g>
    <g id="xtick_14">
     <g id="line2d_71">
      <path clip-path="url(#peb9f391e87)" d="M 435.372656 351.78 
L 435.372656 90.09 
" style="fill:none;stroke:#000000;stroke-dasharray:1,3;stroke-dashoffset:0;stroke-width:0.5;"/>
     </g>
     <g id="line2d_72">
      <g>
       <use style="stroke:#000000;stroke-width:0.5;" x="435.372656" xlink:href="#m0dd1e683a8" y="351.78"/>
      </g>
     </g>
     <g id="line2d_73">
      <g>
       <use style="stroke:#000000;stroke-width:0.5;" x="435.372656" xlink:href="#m318d66aab2" y="90.09"/>
      </g>
     </g>
     <g id="text_26">
      <!-- −100 -->
      <g transform="translate(418.892344 364.898125)scale(0.12 -0.12)">
       <use xlink:href="#DejaVuSans-8722"/>
       <use x="83.789062" xlink:href="#DejaVuSans-49"/>
       <use x="147.412109" xlink:href="#DejaVuSans-48"/>
       <use x="211.035156" xlink:href="#DejaVuSans-48"/>
      </g>
     </g>
    </g>
    <g id="xtick_15">
     <g id="line2d_74">
      <path clip-path="url(#peb9f391e87)" d="M 461.156875 351.78 
L 461.156875 90.09 
" style="fill:none;stroke:#000000;stroke-dasharray:1,3;stroke-dashoffset:0;stroke-width:0.5;"/>
     </g>
     <g id="line2d_75">
      <g>
       <use style="stroke:#000000;stroke-width:0.5;" x="461.156875" xlink:href="#m0dd1e683a8" y="351.78"/>
      </g>
     </g>
     <g id="line2d_76">
      <g>
       <use style="stroke:#000000;stroke-width:0.5;" x="461.156875" xlink:href="#m318d66aab2" y="90.09"/>
      </g>
     </g>
     <g id="text_27">
      <!-- −80 -->
      <g transform="translate(448.494063 364.898125)scale(0.12 -0.12)">
       <use xlink:href="#DejaVuSans-8722"/>
       <use x="83.789062" xlink:href="#DejaVuSans-56"/>
       <use x="147.412109" xlink:href="#DejaVuSans-48"/>
      </g>
     </g>
    </g>
    <g id="xtick_16">
     <g id="line2d_77">
      <path clip-path="url(#peb9f391e87)" d="M 486.941094 351.78 
L 486.941094 90.09 
" style="fill:none;stroke:#000000;stroke-dasharray:1,3;stroke-dashoffset:0;stroke-width:0.5;"/>
     </g>
     <g id="line2d_78">
      <g>
       <use style="stroke:#000000;stroke-width:0.5;" x="486.941094" xlink:href="#m0dd1e683a8" y="351.78"/>
      </g>
     </g>
     <g id="line2d_79">
      <g>
       <use style="stroke:#000000;stroke-width:0.5;" x="486.941094" xlink:href="#m318d66aab2" y="90.09"/>
      </g>
     </g>
     <g id="text_28">
      <!-- −60 -->
      <g transform="translate(474.278281 364.898125)scale(0.12 -0.12)">
       <use xlink:href="#DejaVuSans-8722"/>
       <use x="83.789062" xlink:href="#DejaVuSans-54"/>
       <use x="147.412109" xlink:href="#DejaVuSans-48"/>
      </g>
     </g>
    </g>
    <g id="xtick_17">
     <g id="line2d_80">
      <path clip-path="url(#peb9f391e87)" d="M 512.725313 351.78 
L 512.725313 90.09 
" style="fill:none;stroke:#000000;stroke-dasharray:1,3;stroke-dashoffset:0;stroke-width:0.5;"/>
     </g>
     <g id="line2d_81">
      <g>
       <use style="stroke:#000000;stroke-width:0.5;" x="512.725313" xlink:href="#m0dd1e683a8" y="351.78"/>
      </g>
     </g>
     <g id="line2d_82">
      <g>
       <use style="stroke:#000000;stroke-width:0.5;" x="512.725313" xlink:href="#m318d66aab2" y="90.09"/>
      </g>
     </g>
     <g id="text_29">
      <!-- −40 -->
      <g transform="translate(500.0625 364.898125)scale(0.12 -0.12)">
       <use xlink:href="#DejaVuSans-8722"/>
       <use x="83.789062" xlink:href="#DejaVuSans-52"/>
       <use x="147.412109" xlink:href="#DejaVuSans-48"/>
      </g>
     </g>
    </g>
    <g id="xtick_18">
     <g id="line2d_83">
      <path clip-path="url(#peb9f391e87)" d="M 538.509531 351.78 
L 538.509531 90.09 
" style="fill:none;stroke:#000000;stroke-dasharray:1,3;stroke-dashoffset:0;stroke-width:0.5;"/>
     </g>
     <g id="line2d_84">
      <g>
       <use style="stroke:#000000;stroke-width:0.5;" x="538.509531" xlink:href="#m0dd1e683a8" y="351.78"/>
      </g>
     </g>
     <g id="line2d_85">
      <g>
       <use style="stroke:#000000;stroke-width:0.5;" x="538.509531" xlink:href="#m318d66aab2" y="90.09"/>
      </g>
     </g>
     <g id="text_30">
      <!-- −20 -->
      <g transform="translate(525.846719 364.898125)scale(0.12 -0.12)">
       <use xlink:href="#DejaVuSans-8722"/>
       <use x="83.789062" xlink:href="#DejaVuSans-50"/>
       <use x="147.412109" xlink:href="#DejaVuSans-48"/>
      </g>
     </g>
    </g>
    <g id="xtick_19">
     <g id="line2d_86">
      <path clip-path="url(#peb9f391e87)" d="M 564.29375 351.78 
L 564.29375 90.09 
" style="fill:none;stroke:#000000;stroke-dasharray:1,3;stroke-dashoffset:0;stroke-width:0.5;"/>
     </g>
     <g id="line2d_87">
      <g>
       <use style="stroke:#000000;stroke-width:0.5;" x="564.29375" xlink:href="#m0dd1e683a8" y="351.78"/>
      </g>
     </g>
     <g id="line2d_88">
      <g>
       <use style="stroke:#000000;stroke-width:0.5;" x="564.29375" xlink:href="#m318d66aab2" y="90.09"/>
      </g>
     </g>
     <g id="text_31">
      <!-- 0 -->
      <g transform="translate(560.47625 364.898125)scale(0.12 -0.12)">
       <use xlink:href="#DejaVuSans-48"/>
      </g>
     </g>
    </g>
    <g id="xtick_20">
     <g id="line2d_89">
      <path clip-path="url(#peb9f391e87)" d="M 590.077969 351.78 
L 590.077969 90.09 
" style="fill:none;stroke:#000000;stroke-dasharray:1,3;stroke-dashoffset:0;stroke-width:0.5;"/>
     </g>
     <g id="line2d_90">
      <g>
       <use style="stroke:#000000;stroke-width:0.5;" x="590.077969" xlink:href="#m0dd1e683a8" y="351.78"/>
      </g>
     </g>
     <g id="line2d_91">
      <g>
       <use style="stroke:#000000;stroke-width:0.5;" x="590.077969" xlink:href="#m318d66aab2" y="90.09"/>
      </g>
     </g>
     <g id="text_32">
      <!-- 20 -->
      <g transform="translate(582.442969 364.898125)scale(0.12 -0.12)">
       <use xlink:href="#DejaVuSans-50"/>
       <use x="63.623047" xlink:href="#DejaVuSans-48"/>
      </g>
     </g>
    </g>
    <g id="text_33">
     <!-- Ranging RSSI -->
     <g transform="translate(433.983984 381.511875)scale(0.12 -0.12)">
      <use xlink:href="#DejaVuSans-82"/>
      <use x="67.232422" xlink:href="#DejaVuSans-97"/>
      <use x="128.511719" xlink:href="#DejaVuSans-110"/>
      <use x="191.890625" xlink:href="#DejaVuSans-103"/>
      <use x="255.367188" xlink:href="#DejaVuSans-105"/>
      <use x="283.150391" xlink:href="#DejaVuSans-110"/>
      <use x="346.529297" xlink:href="#DejaVuSans-103"/>
      <use x="410.005859" xlink:href="#DejaVuSans-32"/>
      <use x="441.792969" xlink:href="#DejaVuSans-82"/>
      <use x="511.275391" xlink:href="#DejaVuSans-83"/>
      <use x="574.751953" xlink:href="#DejaVuSans-83"/>
      <use x="638.228516" xlink:href="#DejaVuSans-73"/>
     </g>
    </g>
   </g>
   <g id="matplotlib.axis_4">
    <g id="ytick_10">
     <g id="line2d_92">
      <path clip-path="url(#peb9f391e87)" d="M 358.02 351.78 
L 590.077969 351.78 
" style="fill:none;stroke:#000000;stroke-dasharray:1,3;stroke-dashoffset:0;stroke-width:0.5;"/>
     </g>
     <g id="line2d_93">
      <g>
       <use style="stroke:#000000;stroke-width:0.5;" x="358.02" xlink:href="#maf42a45415" y="351.78"/>
      </g>
     </g>
     <g id="line2d_94">
      <g>
       <use style="stroke:#000000;stroke-width:0.5;" x="590.077969" xlink:href="#m3fc0f72b8a" y="351.78"/>
      </g>
     </g>
     <g id="text_34">
      <!-- −20 -->
      <g transform="translate(328.694375 355.09125)scale(0.12 -0.12)">
       <use xlink:href="#DejaVuSans-8722"/>
       <use x="83.789062" xlink:href="#DejaVuSans-50"/>
       <use x="147.412109" xlink:href="#DejaVuSans-48"/>
      </g>
     </g>
    </g>
    <g id="ytick_11">
     <g id="line2d_95">
      <path clip-path="url(#peb9f391e87)" d="M 358.02 314.395714 
L 590.077969 314.395714 
" style="fill:none;stroke:#000000;stroke-dasharray:1,3;stroke-dashoffset:0;stroke-width:0.5;"/>
     </g>
     <g id="line2d_96">
      <g>
       <use style="stroke:#000000;stroke-width:0.5;" x="358.02" xlink:href="#maf42a45415" y="314.395714"/>
      </g>
     </g>
     <g id="line2d_97">
      <g>
       <use style="stroke:#000000;stroke-width:0.5;" x="590.077969" xlink:href="#m3fc0f72b8a" y="314.395714"/>
      </g>
     </g>
     <g id="text_35">
      <!-- −15 -->
      <g transform="translate(328.694375 317.706964)scale(0.12 -0.12)">
       <defs>
        <path d="M 10.796875 72.90625 
L 49.515625 72.90625 
L 49.515625 64.59375 
L 19.828125 64.59375 
L 19.828125 46.734375 
Q 21.96875 47.46875 24.109375 47.828125 
Q 26.265625 48.1875 28.421875 48.1875 
Q 40.625 48.1875 47.75 41.5 
Q 54.890625 34.8125 54.890625 23.390625 
Q 54.890625 11.625 47.5625 5.09375 
Q 40.234375 -1.421875 26.90625 -1.421875 
Q 22.3125 -1.421875 17.546875 -0.640625 
Q 12.796875 0.140625 7.71875 1.703125 
L 7.71875 11.625 
Q 12.109375 9.234375 16.796875 8.0625 
Q 21.484375 6.890625 26.703125 6.890625 
Q 35.15625 6.890625 40.078125 11.328125 
Q 45.015625 15.765625 45.015625 23.390625 
Q 45.015625 31 40.078125 35.4375 
Q 35.15625 39.890625 26.703125 39.890625 
Q 22.75 39.890625 18.8125 39.015625 
Q 14.890625 38.140625 10.796875 36.28125 
z
" id="DejaVuSans-53"/>
       </defs>
       <use xlink:href="#DejaVuSans-8722"/>
       <use x="83.789062" xlink:href="#DejaVuSans-49"/>
       <use x="147.412109" xlink:href="#DejaVuSans-53"/>
      </g>
     </g>
    </g>
    <g id="ytick_12">
     <g id="line2d_98">
      <path clip-path="url(#peb9f391e87)" d="M 358.02 277.011429 
L 590.077969 277.011429 
" style="fill:none;stroke:#000000;stroke-dasharray:1,3;stroke-dashoffset:0;stroke-width:0.5;"/>
     </g>
     <g id="line2d_99">
      <g>
       <use style="stroke:#000000;stroke-width:0.5;" x="358.02" xlink:href="#maf42a45415" y="277.011429"/>
      </g>
     </g>
     <g id="line2d_100">
      <g>
       <use style="stroke:#000000;stroke-width:0.5;" x="590.077969" xlink:href="#m3fc0f72b8a" y="277.011429"/>
      </g>
     </g>
     <g id="text_36">
      <!-- −10 -->
      <g transform="translate(328.694375 280.322679)scale(0.12 -0.12)">
       <use xlink:href="#DejaVuSans-8722"/>
       <use x="83.789062" xlink:href="#DejaVuSans-49"/>
       <use x="147.412109" xlink:href="#DejaVuSans-48"/>
      </g>
     </g>
    </g>
    <g id="ytick_13">
     <g id="line2d_101">
      <path clip-path="url(#peb9f391e87)" d="M 358.02 239.627143 
L 590.077969 239.627143 
" style="fill:none;stroke:#000000;stroke-dasharray:1,3;stroke-dashoffset:0;stroke-width:0.5;"/>
     </g>
     <g id="line2d_102">
      <g>
       <use style="stroke:#000000;stroke-width:0.5;" x="358.02" xlink:href="#maf42a45415" y="239.627143"/>
      </g>
     </g>
     <g id="line2d_103">
      <g>
       <use style="stroke:#000000;stroke-width:0.5;" x="590.077969" xlink:href="#m3fc0f72b8a" y="239.627143"/>
      </g>
     </g>
     <g id="text_37">
      <!-- −5 -->
      <g transform="translate(336.329375 242.938393)scale(0.12 -0.12)">
       <use xlink:href="#DejaVuSans-8722"/>
       <use x="83.789062" xlink:href="#DejaVuSans-53"/>
      </g>
     </g>
    </g>
    <g id="ytick_14">
     <g id="line2d_104">
      <path clip-path="url(#peb9f391e87)" d="M 358.02 202.242857 
L 590.077969 202.242857 
" style="fill:none;stroke:#000000;stroke-dasharray:1,3;stroke-dashoffset:0;stroke-width:0.5;"/>
     </g>
     <g id="line2d_105">
      <g>
       <use style="stroke:#000000;stroke-width:0.5;" x="358.02" xlink:href="#maf42a45415" y="202.242857"/>
      </g>
     </g>
     <g id="line2d_106">
      <g>
       <use style="stroke:#000000;stroke-width:0.5;" x="590.077969" xlink:href="#m3fc0f72b8a" y="202.242857"/>
      </g>
     </g>
     <g id="text_38">
      <!-- 0 -->
      <g transform="translate(346.385 205.554107)scale(0.12 -0.12)">
       <use xlink:href="#DejaVuSans-48"/>
      </g>
     </g>
    </g>
    <g id="ytick_15">
     <g id="line2d_107">
      <path clip-path="url(#peb9f391e87)" d="M 358.02 164.858571 
L 590.077969 164.858571 
" style="fill:none;stroke:#000000;stroke-dasharray:1,3;stroke-dashoffset:0;stroke-width:0.5;"/>
     </g>
     <g id="line2d_108">
      <g>
       <use style="stroke:#000000;stroke-width:0.5;" x="358.02" xlink:href="#maf42a45415" y="164.858571"/>
      </g>
     </g>
     <g id="line2d_109">
      <g>
       <use style="stroke:#000000;stroke-width:0.5;" x="590.077969" xlink:href="#m3fc0f72b8a" y="164.858571"/>
      </g>
     </g>
     <g id="text_39">
      <!-- 5 -->
      <g transform="translate(346.385 168.169821)scale(0.12 -0.12)">
       <use xlink:href="#DejaVuSans-53"/>
      </g>
     </g>
    </g>
    <g id="ytick_16">
     <g id="line2d_110">
      <path clip-path="url(#peb9f391e87)" d="M 358.02 127.474286 
L 590.077969 127.474286 
" style="fill:none;stroke:#000000;stroke-dasharray:1,3;stroke-dashoffset:0;stroke-width:0.5;"/>
     </g>
     <g id="line2d_111">
      <g>
       <use style="stroke:#000000;stroke-width:0.5;" x="358.02" xlink:href="#maf42a45415" y="127.474286"/>
      </g>
     </g>
     <g id="line2d_112">
      <g>
       <use style="stroke:#000000;stroke-width:0.5;" x="590.077969" xlink:href="#m3fc0f72b8a" y="127.474286"/>
      </g>
     </g>
     <g id="text_40">
      <!-- 10 -->
      <g transform="translate(338.75 130.785536)scale(0.12 -0.12)">
       <use xlink:href="#DejaVuSans-49"/>
       <use x="63.623047" xlink:href="#DejaVuSans-48"/>
      </g>
     </g>
    </g>
    <g id="ytick_17">
     <g id="line2d_113">
      <path clip-path="url(#peb9f391e87)" d="M 358.02 90.09 
L 590.077969 90.09 
" style="fill:none;stroke:#000000;stroke-dasharray:1,3;stroke-dashoffset:0;stroke-width:0.5;"/>
     </g>
     <g id="line2d_114">
      <g>
       <use style="stroke:#000000;stroke-width:0.5;" x="358.02" xlink:href="#maf42a45415" y="90.09"/>
      </g>
     </g>
     <g id="line2d_115">
      <g>
       <use style="stroke:#000000;stroke-width:0.5;" x="590.077969" xlink:href="#m3fc0f72b8a" y="90.09"/>
      </g>
     </g>
     <g id="text_41">
      <!-- 15 -->
      <g transform="translate(338.75 93.40125)scale(0.12 -0.12)">
       <use xlink:href="#DejaVuSans-49"/>
       <use x="63.623047" xlink:href="#DejaVuSans-53"/>
      </g>
     </g>
    </g>
    <g id="text_42">
     <!-- Distance correction -->
     <g transform="translate(321.19875 279.224062)rotate(-90)scale(0.12 -0.12)">
      <use xlink:href="#DejaVuSans-68"/>
      <use x="77.001953" xlink:href="#DejaVuSans-105"/>
      <use x="104.785156" xlink:href="#DejaVuSans-115"/>
      <use x="156.884766" xlink:href="#DejaVuSans-116"/>
      <use x="196.09375" xlink:href="#DejaVuSans-97"/>
      <use x="257.373047" xlink:href="#DejaVuSans-110"/>
      <use x="320.751953" xlink:href="#DejaVuSans-99"/>
      <use x="375.732422" xlink:href="#DejaVuSans-101"/>
      <use x="437.255859" xlink:href="#DejaVuSans-32"/>
      <use x="469.042969" xlink:href="#DejaVuSans-99"/>
      <use x="524.023438" xlink:href="#DejaVuSans-111"/>
      <use x="585.205078" xlink:href="#DejaVuSans-114"/>
      <use x="624.568359" xlink:href="#DejaVuSans-114"/>
      <use x="663.431641" xlink:href="#DejaVuSans-101"/>
      <use x="724.955078" xlink:href="#DejaVuSans-99"/>
      <use x="779.935547" xlink:href="#DejaVuSans-116"/>
      <use x="819.144531" xlink:href="#DejaVuSans-105"/>
      <use x="846.927734" xlink:href="#DejaVuSans-111"/>
      <use x="908.109375" xlink:href="#DejaVuSans-110"/>
     </g>
    </g>
   </g>
   <g id="legend_2">
    <g id="patch_13">
     <path d="M 432.472969 345.78 
L 581.677969 345.78 
Q 584.077969 345.78 584.077969 343.38 
L 584.077969 326.96625 
Q 584.077969 324.56625 581.677969 324.56625 
L 432.472969 324.56625 
Q 430.072969 324.56625 430.072969 326.96625 
L 430.072969 343.38 
Q 430.072969 345.78 432.472969 345.78 
z
" style="fill:#ffffff;opacity:0.5;stroke:#000000;stroke-linejoin:miter;"/>
    </g>
    <g id="line2d_116">
     <path d="M 438.472969 334.284375 
L 455.272969 334.284375 
" style="fill:none;stroke:#2fa19e;stroke-linecap:square;"/>
    </g>
    <g id="line2d_117"/>
    <g id="text_43">
     <!-- SF10, BW 800 KHz -->
     <g transform="translate(468.472969 338.484375)scale(0.12 -0.12)">
      <use xlink:href="#DejaVuSans-83"/>
      <use x="63.476562" xlink:href="#DejaVuSans-70"/>
      <use x="120.996094" xlink:href="#DejaVuSans-49"/>
      <use x="184.619141" xlink:href="#DejaVuSans-48"/>
      <use x="248.242188" xlink:href="#DejaVuSans-44"/>
      <use x="280.029297" xlink:href="#DejaVuSans-32"/>
      <use x="311.816406" xlink:href="#DejaVuSans-66"/>
      <use x="376.794922" xlink:href="#DejaVuSans-87"/>
      <use x="475.671875" xlink:href="#DejaVuSans-32"/>
      <use x="507.458984" xlink:href="#DejaVuSans-56"/>
      <use x="571.082031" xlink:href="#DejaVuSans-48"/>
      <use x="634.705078" xlink:href="#DejaVuSans-48"/>
      <use x="698.328125" xlink:href="#DejaVuSans-32"/>
      <use x="730.115234" xlink:href="#DejaVuSans-75"/>
      <use x="795.691406" xlink:href="#DejaVuSans-72"/>
      <use x="870.886719" xlink:href="#DejaVuSans-122"/>
     </g>
    </g>
   </g>
  </g>
  <g id="axes_3">
   <g id="patch_14">
    <path d="M 54.840937 708.18 
L 286.898906 708.18 
L 286.898906 446.49 
L 54.840937 446.49 
z
" style="fill:none;"/>
   </g>
   <g id="line2d_118">
    <path clip-path="url(#p98d811806e)" d="M 67.733047 692.462899 
L 110.277008 692.462899 
L 111.566219 669.402776 
L 112.85543 623.580857 
L 114.144641 639.457589 
L 115.433852 641.736909 
L 116.723063 639.457589 
L 118.012273 667.306639 
L 120.590695 648.14308 
L 121.879906 671.197969 
L 123.169117 670.002046 
L 124.458328 670.300372 
L 125.747539 656.823337 
L 128.325961 667.604965 
L 129.615172 659.220418 
L 130.904383 658.021878 
L 132.193594 659.220418 
L 133.482805 665.809772 
L 134.772016 664.611232 
L 136.061227 664.011962 
L 137.350438 666.406425 
L 138.639648 661.614881 
L 139.928859 658.322821 
L 141.21807 660.418958 
L 142.507281 662.813422 
L 143.796492 667.008312 
L 145.085703 668.806123 
L 146.374914 662.813422 
L 147.664125 659.819688 
L 148.953336 663.412692 
L 150.242547 665.213119 
L 151.531758 663.412692 
L 152.820969 662.216768 
L 154.11018 667.008312 
L 155.399391 666.406425 
L 156.688602 667.008312 
L 157.977813 661.614881 
L 160.556234 664.011962 
L 161.845445 664.011962 
L 163.134656 663.412692 
L 164.423867 661.018228 
L 165.713078 662.813422 
L 167.002289 644.249133 
L 168.2915 662.216768 
L 169.580711 662.216768 
L 170.869922 619.092873 
L 173.448344 607.110088 
L 174.737555 614.897983 
L 176.026766 613.702059 
L 177.315977 614.897983 
L 178.605188 613.100172 
L 179.894398 616.096523 
L 181.183609 611.901632 
L 182.47282 608.910515 
L 183.762031 610.705709 
L 185.051242 609.509785 
L 186.340453 604.715625 
L 187.629664 606.212491 
L 188.918875 612.500902 
L 190.208086 609.509785 
L 191.497297 592.735456 
L 192.786508 564.886407 
L 194.075719 544.223364 
L 195.36493 537.03474 
L 196.654141 536.43547 
L 199.232563 529.246846 
L 200.521773 529.843499 
L 203.100195 529.843499 
L 204.389406 513.613485 
L 205.678617 521.458951 
L 206.967828 515.471484 
L 208.257039 514.872214 
L 209.54625 512.475133 
L 210.835461 508.88213 
L 212.124672 510.078053 
L 213.413883 509.478783 
L 214.703094 510.078053 
L 215.992305 505.888396 
L 217.281516 501.094235 
L 218.570727 501.094235 
L 219.859938 499.895695 
L 221.149148 495.703421 
L 222.438359 490.911877 
L 223.72757 489.116684 
L 225.016781 484.32514 
L 226.305992 475.338706 
L 227.595203 475.937976 
L 228.884414 469.51872 
L 230.173625 469.947892 
L 231.462836 457.533318 
L 232.752047 469.51872 
L 234.041258 468.751968 
L 235.330469 469.947892 
L 236.61968 466.956775 
L 239.198102 466.956775 
L 240.487313 465.758235 
L 243.065734 469.348621 
L 244.354945 464.559694 
L 245.644156 465.758235 
L 246.933367 465.459908 
L 248.222578 465.758235 
L 249.511789 466.357505 
L 250.801 473.242569 
L 272.717586 473.242569 
L 272.717586 473.242569 
" style="fill:none;stroke:#2fa19e;stroke-linecap:square;"/>
   </g>
   <g id="patch_15">
    <path d="M 54.840937 708.18 
L 54.840937 446.49 
" style="fill:none;stroke:#000000;stroke-linecap:square;stroke-linejoin:miter;"/>
   </g>
   <g id="patch_16">
    <path d="M 286.898906 708.18 
L 286.898906 446.49 
" style="fill:none;stroke:#000000;stroke-linecap:square;stroke-linejoin:miter;"/>
   </g>
   <g id="patch_17">
    <path d="M 54.840938 708.18 
L 286.898906 708.18 
" style="fill:none;stroke:#000000;stroke-linecap:square;stroke-linejoin:miter;"/>
   </g>
   <g id="patch_18">
    <path d="M 54.840938 446.49 
L 286.898906 446.49 
" style="fill:none;stroke:#000000;stroke-linecap:square;stroke-linejoin:miter;"/>
   </g>
   <g id="matplotlib.axis_5">
    <g id="xtick_21">
     <g id="line2d_119">
      <path clip-path="url(#p98d811806e)" d="M 54.840938 708.18 
L 54.840938 446.49 
" style="fill:none;stroke:#000000;stroke-dasharray:1,3;stroke-dashoffset:0;stroke-width:0.5;"/>
     </g>
     <g id="line2d_120">
      <g>
       <use style="stroke:#000000;stroke-width:0.5;" x="54.840938" xlink:href="#m0dd1e683a8" y="708.18"/>
      </g>
     </g>
     <g id="line2d_121">
      <g>
       <use style="stroke:#000000;stroke-width:0.5;" x="54.840938" xlink:href="#m318d66aab2" y="446.49"/>
      </g>
     </g>
     <g id="text_44">
      <!-- −160 -->
      <g transform="translate(38.360625 721.298125)scale(0.12 -0.12)">
       <use xlink:href="#DejaVuSans-8722"/>
       <use x="83.789062" xlink:href="#DejaVuSans-49"/>
       <use x="147.412109" xlink:href="#DejaVuSans-54"/>
       <use x="211.035156" xlink:href="#DejaVuSans-48"/>
      </g>
     </g>
    </g>
    <g id="xtick_22">
     <g id="line2d_122">
      <path clip-path="url(#p98d811806e)" d="M 80.625156 708.18 
L 80.625156 446.49 
" style="fill:none;stroke:#000000;stroke-dasharray:1,3;stroke-dashoffset:0;stroke-width:0.5;"/>
     </g>
     <g id="line2d_123">
      <g>
       <use style="stroke:#000000;stroke-width:0.5;" x="80.625156" xlink:href="#m0dd1e683a8" y="708.18"/>
      </g>
     </g>
     <g id="line2d_124">
      <g>
       <use style="stroke:#000000;stroke-width:0.5;" x="80.625156" xlink:href="#m318d66aab2" y="446.49"/>
      </g>
     </g>
     <g id="text_45">
      <!-- −140 -->
      <g transform="translate(64.144844 721.298125)scale(0.12 -0.12)">
       <use xlink:href="#DejaVuSans-8722"/>
       <use x="83.789062" xlink:href="#DejaVuSans-49"/>
       <use x="147.412109" xlink:href="#DejaVuSans-52"/>
       <use x="211.035156" xlink:href="#DejaVuSans-48"/>
      </g>
     </g>
    </g>
    <g id="xtick_23">
     <g id="line2d_125">
      <path clip-path="url(#p98d811806e)" d="M 106.409375 708.18 
L 106.409375 446.49 
" style="fill:none;stroke:#000000;stroke-dasharray:1,3;stroke-dashoffset:0;stroke-width:0.5;"/>
     </g>
     <g id="line2d_126">
      <g>
       <use style="stroke:#000000;stroke-width:0.5;" x="106.409375" xlink:href="#m0dd1e683a8" y="708.18"/>
      </g>
     </g>
     <g id="line2d_127">
      <g>
       <use style="stroke:#000000;stroke-width:0.5;" x="106.409375" xlink:href="#m318d66aab2" y="446.49"/>
      </g>
     </g>
     <g id="text_46">
      <!-- −120 -->
      <g transform="translate(89.929063 721.298125)scale(0.12 -0.12)">
       <use xlink:href="#DejaVuSans-8722"/>
       <use x="83.789062" xlink:href="#DejaVuSans-49"/>
       <use x="147.412109" xlink:href="#DejaVuSans-50"/>
       <use x="211.035156" xlink:href="#DejaVuSans-48"/>
      </g>
     </g>
    </g>
    <g id="xtick_24">
     <g id="line2d_128">
      <path clip-path="url(#p98d811806e)" d="M 132.193594 708.18 
L 132.193594 446.49 
" style="fill:none;stroke:#000000;stroke-dasharray:1,3;stroke-dashoffset:0;stroke-width:0.5;"/>
     </g>
     <g id="line2d_129">
      <g>
       <use style="stroke:#000000;stroke-width:0.5;" x="132.193594" xlink:href="#m0dd1e683a8" y="708.18"/>
      </g>
     </g>
     <g id="line2d_130">
      <g>
       <use style="stroke:#000000;stroke-width:0.5;" x="132.193594" xlink:href="#m318d66aab2" y="446.49"/>
      </g>
     </g>
     <g id="text_47">
      <!-- −100 -->
      <g transform="translate(115.713281 721.298125)scale(0.12 -0.12)">
       <use xlink:href="#DejaVuSans-8722"/>
       <use x="83.789062" xlink:href="#DejaVuSans-49"/>
       <use x="147.412109" xlink:href="#DejaVuSans-48"/>
       <use x="211.035156" xlink:href="#DejaVuSans-48"/>
      </g>
     </g>
    </g>
    <g id="xtick_25">
     <g id="line2d_131">
      <path clip-path="url(#p98d811806e)" d="M 157.977813 708.18 
L 157.977813 446.49 
" style="fill:none;stroke:#000000;stroke-dasharray:1,3;stroke-dashoffset:0;stroke-width:0.5;"/>
     </g>
     <g id="line2d_132">
      <g>
       <use style="stroke:#000000;stroke-width:0.5;" x="157.977813" xlink:href="#m0dd1e683a8" y="708.18"/>
      </g>
     </g>
     <g id="line2d_133">
      <g>
       <use style="stroke:#000000;stroke-width:0.5;" x="157.977813" xlink:href="#m318d66aab2" y="446.49"/>
      </g>
     </g>
     <g id="text_48">
      <!-- −80 -->
      <g transform="translate(145.315 721.298125)scale(0.12 -0.12)">
       <use xlink:href="#DejaVuSans-8722"/>
       <use x="83.789062" xlink:href="#DejaVuSans-56"/>
       <use x="147.412109" xlink:href="#DejaVuSans-48"/>
      </g>
     </g>
    </g>
    <g id="xtick_26">
     <g id="line2d_134">
      <path clip-path="url(#p98d811806e)" d="M 183.762031 708.18 
L 183.762031 446.49 
" style="fill:none;stroke:#000000;stroke-dasharray:1,3;stroke-dashoffset:0;stroke-width:0.5;"/>
     </g>
     <g id="line2d_135">
      <g>
       <use style="stroke:#000000;stroke-width:0.5;" x="183.762031" xlink:href="#m0dd1e683a8" y="708.18"/>
      </g>
     </g>
     <g id="line2d_136">
      <g>
       <use style="stroke:#000000;stroke-width:0.5;" x="183.762031" xlink:href="#m318d66aab2" y="446.49"/>
      </g>
     </g>
     <g id="text_49">
      <!-- −60 -->
      <g transform="translate(171.099219 721.298125)scale(0.12 -0.12)">
       <use xlink:href="#DejaVuSans-8722"/>
       <use x="83.789062" xlink:href="#DejaVuSans-54"/>
       <use x="147.412109" xlink:href="#DejaVuSans-48"/>
      </g>
     </g>
    </g>
    <g id="xtick_27">
     <g id="line2d_137">
      <path clip-path="url(#p98d811806e)" d="M 209.54625 708.18 
L 209.54625 446.49 
" style="fill:none;stroke:#000000;stroke-dasharray:1,3;stroke-dashoffset:0;stroke-width:0.5;"/>
     </g>
     <g id="line2d_138">
      <g>
       <use style="stroke:#000000;stroke-width:0.5;" x="209.54625" xlink:href="#m0dd1e683a8" y="708.18"/>
      </g>
     </g>
     <g id="line2d_139">
      <g>
       <use style="stroke:#000000;stroke-width:0.5;" x="209.54625" xlink:href="#m318d66aab2" y="446.49"/>
      </g>
     </g>
     <g id="text_50">
      <!-- −40 -->
      <g transform="translate(196.883438 721.298125)scale(0.12 -0.12)">
       <use xlink:href="#DejaVuSans-8722"/>
       <use x="83.789062" xlink:href="#DejaVuSans-52"/>
       <use x="147.412109" xlink:href="#DejaVuSans-48"/>
      </g>
     </g>
    </g>
    <g id="xtick_28">
     <g id="line2d_140">
      <path clip-path="url(#p98d811806e)" d="M 235.330469 708.18 
L 235.330469 446.49 
" style="fill:none;stroke:#000000;stroke-dasharray:1,3;stroke-dashoffset:0;stroke-width:0.5;"/>
     </g>
     <g id="line2d_141">
      <g>
       <use style="stroke:#000000;stroke-width:0.5;" x="235.330469" xlink:href="#m0dd1e683a8" y="708.18"/>
      </g>
     </g>
     <g id="line2d_142">
      <g>
       <use style="stroke:#000000;stroke-width:0.5;" x="235.330469" xlink:href="#m318d66aab2" y="446.49"/>
      </g>
     </g>
     <g id="text_51">
      <!-- −20 -->
      <g transform="translate(222.667656 721.298125)scale(0.12 -0.12)">
       <use xlink:href="#DejaVuSans-8722"/>
       <use x="83.789062" xlink:href="#DejaVuSans-50"/>
       <use x="147.412109" xlink:href="#DejaVuSans-48"/>
      </g>
     </g>
    </g>
    <g id="xtick_29">
     <g id="line2d_143">
      <path clip-path="url(#p98d811806e)" d="M 261.114688 708.18 
L 261.114688 446.49 
" style="fill:none;stroke:#000000;stroke-dasharray:1,3;stroke-dashoffset:0;stroke-width:0.5;"/>
     </g>
     <g id="line2d_144">
      <g>
       <use style="stroke:#000000;stroke-width:0.5;" x="261.114688" xlink:href="#m0dd1e683a8" y="708.18"/>
      </g>
     </g>
     <g id="line2d_145">
      <g>
       <use style="stroke:#000000;stroke-width:0.5;" x="261.114688" xlink:href="#m318d66aab2" y="446.49"/>
      </g>
     </g>
     <g id="text_52">
      <!-- 0 -->
      <g transform="translate(257.297188 721.298125)scale(0.12 -0.12)">
       <use xlink:href="#DejaVuSans-48"/>
      </g>
     </g>
    </g>
    <g id="xtick_30">
     <g id="line2d_146">
      <path clip-path="url(#p98d811806e)" d="M 286.898906 708.18 
L 286.898906 446.49 
" style="fill:none;stroke:#000000;stroke-dasharray:1,3;stroke-dashoffset:0;stroke-width:0.5;"/>
     </g>
     <g id="line2d_147">
      <g>
       <use style="stroke:#000000;stroke-width:0.5;" x="286.898906" xlink:href="#m0dd1e683a8" y="708.18"/>
      </g>
     </g>
     <g id="line2d_148">
      <g>
       <use style="stroke:#000000;stroke-width:0.5;" x="286.898906" xlink:href="#m318d66aab2" y="446.49"/>
      </g>
     </g>
     <g id="text_53">
      <!-- 20 -->
      <g transform="translate(279.263906 721.298125)scale(0.12 -0.12)">
       <use xlink:href="#DejaVuSans-50"/>
       <use x="63.623047" xlink:href="#DejaVuSans-48"/>
      </g>
     </g>
    </g>
    <g id="text_54">
     <!-- Ranging RSSI -->
     <g transform="translate(130.804922 737.911875)scale(0.12 -0.12)">
      <use xlink:href="#DejaVuSans-82"/>
      <use x="67.232422" xlink:href="#DejaVuSans-97"/>
      <use x="128.511719" xlink:href="#DejaVuSans-110"/>
      <use x="191.890625" xlink:href="#DejaVuSans-103"/>
      <use x="255.367188" xlink:href="#DejaVuSans-105"/>
      <use x="283.150391" xlink:href="#DejaVuSans-110"/>
      <use x="346.529297" xlink:href="#DejaVuSans-103"/>
      <use x="410.005859" xlink:href="#DejaVuSans-32"/>
      <use x="441.792969" xlink:href="#DejaVuSans-82"/>
      <use x="511.275391" xlink:href="#DejaVuSans-83"/>
      <use x="574.751953" xlink:href="#DejaVuSans-83"/>
      <use x="638.228516" xlink:href="#DejaVuSans-73"/>
     </g>
    </g>
   </g>
   <g id="matplotlib.axis_6">
    <g id="ytick_18">
     <g id="line2d_149">
      <path clip-path="url(#p98d811806e)" d="M 54.840937 708.18 
L 286.898906 708.18 
" style="fill:none;stroke:#000000;stroke-dasharray:1,3;stroke-dashoffset:0;stroke-width:0.5;"/>
     </g>
     <g id="line2d_150">
      <g>
       <use style="stroke:#000000;stroke-width:0.5;" x="54.840937" xlink:href="#maf42a45415" y="708.18"/>
      </g>
     </g>
     <g id="line2d_151">
      <g>
       <use style="stroke:#000000;stroke-width:0.5;" x="286.898906" xlink:href="#m3fc0f72b8a" y="708.18"/>
      </g>
     </g>
     <g id="text_55">
      <!-- 0 -->
      <g transform="translate(43.205937 711.49125)scale(0.12 -0.12)">
       <use xlink:href="#DejaVuSans-48"/>
      </g>
     </g>
    </g>
    <g id="ytick_19">
     <g id="line2d_152">
      <path clip-path="url(#p98d811806e)" d="M 54.840937 655.842 
L 286.898906 655.842 
" style="fill:none;stroke:#000000;stroke-dasharray:1,3;stroke-dashoffset:0;stroke-width:0.5;"/>
     </g>
     <g id="line2d_153">
      <g>
       <use style="stroke:#000000;stroke-width:0.5;" x="54.840937" xlink:href="#maf42a45415" y="655.842"/>
      </g>
     </g>
     <g id="line2d_154">
      <g>
       <use style="stroke:#000000;stroke-width:0.5;" x="286.898906" xlink:href="#m3fc0f72b8a" y="655.842"/>
      </g>
     </g>
     <g id="text_56">
      <!-- 2 -->
      <g transform="translate(43.205937 659.15325)scale(0.12 -0.12)">
       <use xlink:href="#DejaVuSans-50"/>
      </g>
     </g>
    </g>
    <g id="ytick_20">
     <g id="line2d_155">
      <path clip-path="url(#p98d811806e)" d="M 54.840937 603.504 
L 286.898906 603.504 
" style="fill:none;stroke:#000000;stroke-dasharray:1,3;stroke-dashoffset:0;stroke-width:0.5;"/>
     </g>
     <g id="line2d_156">
      <g>
       <use style="stroke:#000000;stroke-width:0.5;" x="54.840937" xlink:href="#maf42a45415" y="603.504"/>
      </g>
     </g>
     <g id="line2d_157">
      <g>
       <use style="stroke:#000000;stroke-width:0.5;" x="286.898906" xlink:href="#m3fc0f72b8a" y="603.504"/>
      </g>
     </g>
     <g id="text_57">
      <!-- 4 -->
      <g transform="translate(43.205937 606.81525)scale(0.12 -0.12)">
       <use xlink:href="#DejaVuSans-52"/>
      </g>
     </g>
    </g>
    <g id="ytick_21">
     <g id="line2d_158">
      <path clip-path="url(#p98d811806e)" d="M 54.840937 551.166 
L 286.898906 551.166 
" style="fill:none;stroke:#000000;stroke-dasharray:1,3;stroke-dashoffset:0;stroke-width:0.5;"/>
     </g>
     <g id="line2d_159">
      <g>
       <use style="stroke:#000000;stroke-width:0.5;" x="54.840937" xlink:href="#maf42a45415" y="551.166"/>
      </g>
     </g>
     <g id="line2d_160">
      <g>
       <use style="stroke:#000000;stroke-width:0.5;" x="286.898906" xlink:href="#m3fc0f72b8a" y="551.166"/>
      </g>
     </g>
     <g id="text_58">
      <!-- 6 -->
      <g transform="translate(43.205937 554.47725)scale(0.12 -0.12)">
       <use xlink:href="#DejaVuSans-54"/>
      </g>
     </g>
    </g>
    <g id="ytick_22">
     <g id="line2d_161">
      <path clip-path="url(#p98d811806e)" d="M 54.840937 498.828 
L 286.898906 498.828 
" style="fill:none;stroke:#000000;stroke-dasharray:1,3;stroke-dashoffset:0;stroke-width:0.5;"/>
     </g>
     <g id="line2d_162">
      <g>
       <use style="stroke:#000000;stroke-width:0.5;" x="54.840937" xlink:href="#maf42a45415" y="498.828"/>
      </g>
     </g>
     <g id="line2d_163">
      <g>
       <use style="stroke:#000000;stroke-width:0.5;" x="286.898906" xlink:href="#m3fc0f72b8a" y="498.828"/>
      </g>
     </g>
     <g id="text_59">
      <!-- 8 -->
      <g transform="translate(43.205937 502.13925)scale(0.12 -0.12)">
       <use xlink:href="#DejaVuSans-56"/>
      </g>
     </g>
    </g>
    <g id="ytick_23">
     <g id="line2d_164">
      <path clip-path="url(#p98d811806e)" d="M 54.840937 446.49 
L 286.898906 446.49 
" style="fill:none;stroke:#000000;stroke-dasharray:1,3;stroke-dashoffset:0;stroke-width:0.5;"/>
     </g>
     <g id="line2d_165">
      <g>
       <use style="stroke:#000000;stroke-width:0.5;" x="54.840937" xlink:href="#maf42a45415" y="446.49"/>
      </g>
     </g>
     <g id="line2d_166">
      <g>
       <use style="stroke:#000000;stroke-width:0.5;" x="286.898906" xlink:href="#m3fc0f72b8a" y="446.49"/>
      </g>
     </g>
     <g id="text_60">
      <!-- 10 -->
      <g transform="translate(35.570937 449.80125)scale(0.12 -0.12)">
       <use xlink:href="#DejaVuSans-49"/>
       <use x="63.623047" xlink:href="#DejaVuSans-48"/>
      </g>
     </g>
    </g>
    <g id="text_61">
     <!-- Distance correction -->
     <g transform="translate(28.075312 635.624062)rotate(-90)scale(0.12 -0.12)">
      <use xlink:href="#DejaVuSans-68"/>
      <use x="77.001953" xlink:href="#DejaVuSans-105"/>
      <use x="104.785156" xlink:href="#DejaVuSans-115"/>
      <use x="156.884766" xlink:href="#DejaVuSans-116"/>
      <use x="196.09375" xlink:href="#DejaVuSans-97"/>
      <use x="257.373047" xlink:href="#DejaVuSans-110"/>
      <use x="320.751953" xlink:href="#DejaVuSans-99"/>
      <use x="375.732422" xlink:href="#DejaVuSans-101"/>
      <use x="437.255859" xlink:href="#DejaVuSans-32"/>
      <use x="469.042969" xlink:href="#DejaVuSans-99"/>
      <use x="524.023438" xlink:href="#DejaVuSans-111"/>
      <use x="585.205078" xlink:href="#DejaVuSans-114"/>
      <use x="624.568359" xlink:href="#DejaVuSans-114"/>
      <use x="663.431641" xlink:href="#DejaVuSans-101"/>
      <use x="724.955078" xlink:href="#DejaVuSans-99"/>
      <use x="779.935547" xlink:href="#DejaVuSans-116"/>
      <use x="819.144531" xlink:href="#DejaVuSans-105"/>
      <use x="846.927734" xlink:href="#DejaVuSans-111"/>
      <use x="908.109375" xlink:href="#DejaVuSans-110"/>
     </g>
    </g>
   </g>
   <g id="legend_3">
    <g id="patch_19">
     <path d="M 121.658906 702.18 
L 278.498906 702.18 
Q 280.898906 702.18 280.898906 699.78 
L 280.898906 683.36625 
Q 280.898906 680.96625 278.498906 680.96625 
L 121.658906 680.96625 
Q 119.258906 680.96625 119.258906 683.36625 
L 119.258906 699.78 
Q 119.258906 702.18 121.658906 702.18 
z
" style="fill:#ffffff;opacity:0.5;stroke:#000000;stroke-linejoin:miter;"/>
    </g>
    <g id="line2d_167">
     <path d="M 127.658906 690.684375 
L 144.458906 690.684375 
" style="fill:none;stroke:#2fa19e;stroke-linecap:square;"/>
    </g>
    <g id="line2d_168"/>
    <g id="text_62">
     <!-- SF10, BW 1600 KHz -->
     <g transform="translate(157.658906 694.884375)scale(0.12 -0.12)">
      <use xlink:href="#DejaVuSans-83"/>
      <use x="63.476562" xlink:href="#DejaVuSans-70"/>
      <use x="120.996094" xlink:href="#DejaVuSans-49"/>
      <use x="184.619141" xlink:href="#DejaVuSans-48"/>
      <use x="248.242188" xlink:href="#DejaVuSans-44"/>
      <use x="280.029297" xlink:href="#DejaVuSans-32"/>
      <use x="311.816406" xlink:href="#DejaVuSans-66"/>
      <use x="376.794922" xlink:href="#DejaVuSans-87"/>
      <use x="475.671875" xlink:href="#DejaVuSans-32"/>
      <use x="507.458984" xlink:href="#DejaVuSans-49"/>
      <use x="571.082031" xlink:href="#DejaVuSans-54"/>
      <use x="634.705078" xlink:href="#DejaVuSans-48"/>
      <use x="698.328125" xlink:href="#DejaVuSans-48"/>
      <use x="761.951172" xlink:href="#DejaVuSans-32"/>
      <use x="793.738281" xlink:href="#DejaVuSans-75"/>
      <use x="859.314453" xlink:href="#DejaVuSans-72"/>
      <use x="934.509766" xlink:href="#DejaVuSans-122"/>
     </g>
    </g>
   </g>
  </g>
  <g id="text_63">
   <!-- SF10 -->
   <g transform="translate(283.6575 29.517187)scale(0.18 -0.18)">
    <use xlink:href="#DejaVuSans-83"/>
    <use x="63.476562" xlink:href="#DejaVuSans-70"/>
    <use x="120.996094" xlink:href="#DejaVuSans-49"/>
    <use x="184.619141" xlink:href="#DejaVuSans-48"/>
   </g>
  </g>
 </g>
 <defs>
  <clipPath id="p612fb70546">
   <rect height="261.69" width="232.057969" x="54.840937" y="90.09"/>
  </clipPath>
  <clipPath id="peb9f391e87">
   <rect height="261.69" width="232.057969" x="358.02" y="90.09"/>
  </clipPath>
  <clipPath id="p98d811806e">
   <rect height="261.69" width="232.057969" x="54.840937" y="446.49"/>
  </clipPath>
 </defs>
</svg>
