<?xml version="1.0" encoding="utf-8" standalone="no"?>
<!DOCTYPE svg PUBLIC "-//W3C//DTD SVG 1.1//EN"
  "http://www.w3.org/Graphics/SVG/1.1/DTD/svg11.dtd">
<!-- Created with matplotlib (https://matplotlib.org/) -->
<svg height="449.28pt" version="1.1" viewBox="0 0 921.6 449.28" width="921.6pt" xmlns="http://www.w3.org/2000/svg" xmlns:xlink="http://www.w3.org/1999/xlink">
 <metadata>
  <rdf:RDF xmlns:cc="http://creativecommons.org/ns#" xmlns:dc="http://purl.org/dc/elements/1.1/" xmlns:rdf="http://www.w3.org/1999/02/22-rdf-syntax-ns#">
   <cc:Work>
    <dc:type rdf:resource="http://purl.org/dc/dcmitype/StillImage"/>
    <dc:date>2021-04-15T16:24:40.489291</dc:date>
    <dc:format>image/svg+xml</dc:format>
    <dc:creator>
     <cc:Agent>
      <dc:title>Matplotlib v3.3.4, https://matplotlib.org/</dc:title>
     </cc:Agent>
    </dc:creator>
   </cc:Work>
  </rdf:RDF>
 </metadata>
 <defs>
  <style type="text/css">*{stroke-linecap:butt;stroke-linejoin:round;}</style>
 </defs>
 <g id="figure_1">
  <g id="patch_1">
   <path d="M 0 449.28 
L 921.6 449.28 
L 921.6 0 
L 0 0 
z
" style="fill:none;"/>
  </g>
  <g id="axes_1">
   <g id="patch_2">
    <path d="M 94.824 199.5552 
L 438.156 199.5552 
L 438.156 51.1056 
L 94.824 51.1056 
z
" style="fill:none;"/>
   </g>
   <g id="line2d_1">
    <path clip-path="url(#p3cc98edc82)" d="M 113.898 198.410282 
L 194.0088 198.410282 
L 195.9162 164.645421 
L 197.8236 158.805785 
L 199.731 138.032119 
L 201.6384 134.810763 
L 203.5458 114.212453 
L 205.4532 113.255881 
L 207.3606 114.265338 
L 209.268 111.452218 
L 211.1754 113.416392 
L 213.0828 114.105755 
L 214.9902 116.760219 
L 216.8976 116.865989 
L 218.805 112.526622 
L 220.7124 116.708262 
L 222.6198 117.238969 
L 224.5272 118.724393 
L 226.4346 119.73385 
L 228.342 119.256028 
L 230.2494 118.564809 
L 232.1568 120.052089 
L 234.0642 120.157859 
L 235.9716 119.73385 
L 239.7864 120.157859 
L 241.6938 120.476098 
L 243.6012 119.83962 
L 245.5086 119.945391 
L 247.416 120.796193 
L 249.3234 120.476098 
L 253.1382 120.157859 
L 255.0456 119.998276 
L 256.953 120.901963 
L 258.8604 116.441052 
L 260.7678 119.308913 
L 262.6752 119.256028 
L 264.5826 118.672435 
L 266.49 117.822561 
L 268.3974 116.122814 
L 270.3048 104.656938 
L 272.2122 100.091185 
L 274.1196 99.983559 
L 276.027 96.160981 
L 277.9344 97.806916 
L 283.6566 83.951002 
L 287.4714 74.395487 
L 291.2862 76.871812 
L 293.1936 70.645279 
L 295.101 79.349992 
L 304.638 85.544052 
L 306.5454 72.642854 
L 308.4528 70.041274 
L 310.3602 70.571982 
L 312.2676 70.467139 
L 314.175 62.833118 
L 316.0824 70.359513 
L 317.9898 67.61134 
L 319.8972 68.158748 
L 321.8046 66.218697 
L 323.712 66.749404 
L 325.6194 66.324467 
L 327.5268 64.360294 
L 329.4342 63.352692 
L 331.3416 53.963255 
L 333.249 57.088119 
L 335.1564 52.3767 
L 337.0638 62.078809 
L 356.1378 62.078809 
L 358.0452 170.380215 
L 359.9526 170.380215 
L 361.86 119.521382 
L 363.7674 133.495128 
L 365.6748 136.974416 
L 367.5822 132.372478 
L 369.4896 116.070856 
L 371.397 121.220202 
L 375.2118 123.767968 
L 377.1192 119.521382 
L 379.0266 121.43267 
L 380.934 121.112576 
L 382.8414 126.315734 
L 384.7488 122.705626 
L 386.6562 121.220202 
L 388.5636 119.095517 
L 390.471 120.26363 
L 392.3784 117.822561 
L 394.2858 119.73385 
L 396.1932 123.13149 
L 398.1006 122.919022 
L 400.008 116.070856 
L 401.9154 122.280689 
L 403.8228 122.069148 
L 405.7302 122.493157 
L 407.6376 121.006805 
L 411.4524 123.873738 
L 413.3598 123.343959 
L 415.2672 122.280689 
L 417.1746 122.919022 
L 417.1746 122.919022 
" style="fill:none;stroke:#2fa19e;stroke-linecap:square;"/>
   </g>
   <g id="patch_3">
    <path d="M 94.824 199.5552 
L 94.824 51.1056 
" style="fill:none;stroke:#000000;stroke-linecap:square;stroke-linejoin:miter;"/>
   </g>
   <g id="patch_4">
    <path d="M 438.156 199.5552 
L 438.156 51.1056 
" style="fill:none;stroke:#000000;stroke-linecap:square;stroke-linejoin:miter;"/>
   </g>
   <g id="patch_5">
    <path d="M 94.824 199.5552 
L 438.156 199.5552 
" style="fill:none;stroke:#000000;stroke-linecap:square;stroke-linejoin:miter;"/>
   </g>
   <g id="patch_6">
    <path d="M 94.824 51.1056 
L 438.156 51.1056 
" style="fill:none;stroke:#000000;stroke-linecap:square;stroke-linejoin:miter;"/>
   </g>
   <g id="matplotlib.axis_1">
    <g id="xtick_1">
     <g id="line2d_2">
      <path clip-path="url(#p3cc98edc82)" d="M 94.824 199.5552 
L 94.824 51.1056 
" style="fill:none;stroke:#000000;stroke-dasharray:1,3;stroke-dashoffset:0;stroke-width:0.5;"/>
     </g>
     <g id="line2d_3">
      <defs>
       <path d="M 0 0 
L 0 -4 
" id="mb0d29599f4" style="stroke:#000000;stroke-width:0.5;"/>
      </defs>
      <g>
       <use style="stroke:#000000;stroke-width:0.5;" x="94.824" xlink:href="#mb0d29599f4" y="199.5552"/>
      </g>
     </g>
     <g id="line2d_4">
      <defs>
       <path d="M 0 0 
L 0 4 
" id="mf2f38cbd95" style="stroke:#000000;stroke-width:0.5;"/>
      </defs>
      <g>
       <use style="stroke:#000000;stroke-width:0.5;" x="94.824" xlink:href="#mf2f38cbd95" y="51.1056"/>
      </g>
     </g>
     <g id="text_1">
      <!-- −160 -->
      <g transform="translate(78.343688 212.673325)scale(0.12 -0.12)">
       <defs>
        <path d="M 10.59375 35.5 
L 73.1875 35.5 
L 73.1875 27.203125 
L 10.59375 27.203125 
z
" id="DejaVuSans-8722"/>
        <path d="M 12.40625 8.296875 
L 28.515625 8.296875 
L 28.515625 63.921875 
L 10.984375 60.40625 
L 10.984375 69.390625 
L 28.421875 72.90625 
L 38.28125 72.90625 
L 38.28125 8.296875 
L 54.390625 8.296875 
L 54.390625 0 
L 12.40625 0 
z
" id="DejaVuSans-49"/>
        <path d="M 33.015625 40.375 
Q 26.375 40.375 22.484375 35.828125 
Q 18.609375 31.296875 18.609375 23.390625 
Q 18.609375 15.53125 22.484375 10.953125 
Q 26.375 6.390625 33.015625 6.390625 
Q 39.65625 6.390625 43.53125 10.953125 
Q 47.40625 15.53125 47.40625 23.390625 
Q 47.40625 31.296875 43.53125 35.828125 
Q 39.65625 40.375 33.015625 40.375 
z
M 52.59375 71.296875 
L 52.59375 62.3125 
Q 48.875 64.0625 45.09375 64.984375 
Q 41.3125 65.921875 37.59375 65.921875 
Q 27.828125 65.921875 22.671875 59.328125 
Q 17.53125 52.734375 16.796875 39.40625 
Q 19.671875 43.65625 24.015625 45.921875 
Q 28.375 48.1875 33.59375 48.1875 
Q 44.578125 48.1875 50.953125 41.515625 
Q 57.328125 34.859375 57.328125 23.390625 
Q 57.328125 12.15625 50.6875 5.359375 
Q 44.046875 -1.421875 33.015625 -1.421875 
Q 20.359375 -1.421875 13.671875 8.265625 
Q 6.984375 17.96875 6.984375 36.375 
Q 6.984375 53.65625 15.1875 63.9375 
Q 23.390625 74.21875 37.203125 74.21875 
Q 40.921875 74.21875 44.703125 73.484375 
Q 48.484375 72.75 52.59375 71.296875 
z
" id="DejaVuSans-54"/>
        <path d="M 31.78125 66.40625 
Q 24.171875 66.40625 20.328125 58.90625 
Q 16.5 51.421875 16.5 36.375 
Q 16.5 21.390625 20.328125 13.890625 
Q 24.171875 6.390625 31.78125 6.390625 
Q 39.453125 6.390625 43.28125 13.890625 
Q 47.125 21.390625 47.125 36.375 
Q 47.125 51.421875 43.28125 58.90625 
Q 39.453125 66.40625 31.78125 66.40625 
z
M 31.78125 74.21875 
Q 44.046875 74.21875 50.515625 64.515625 
Q 56.984375 54.828125 56.984375 36.375 
Q 56.984375 17.96875 50.515625 8.265625 
Q 44.046875 -1.421875 31.78125 -1.421875 
Q 19.53125 -1.421875 13.0625 8.265625 
Q 6.59375 17.96875 6.59375 36.375 
Q 6.59375 54.828125 13.0625 64.515625 
Q 19.53125 74.21875 31.78125 74.21875 
z
" id="DejaVuSans-48"/>
       </defs>
       <use xlink:href="#DejaVuSans-8722"/>
       <use x="83.789062" xlink:href="#DejaVuSans-49"/>
       <use x="147.412109" xlink:href="#DejaVuSans-54"/>
       <use x="211.035156" xlink:href="#DejaVuSans-48"/>
      </g>
     </g>
    </g>
    <g id="xtick_2">
     <g id="line2d_5">
      <path clip-path="url(#p3cc98edc82)" d="M 132.972 199.5552 
L 132.972 51.1056 
" style="fill:none;stroke:#000000;stroke-dasharray:1,3;stroke-dashoffset:0;stroke-width:0.5;"/>
     </g>
     <g id="line2d_6">
      <g>
       <use style="stroke:#000000;stroke-width:0.5;" x="132.972" xlink:href="#mb0d29599f4" y="199.5552"/>
      </g>
     </g>
     <g id="line2d_7">
      <g>
       <use style="stroke:#000000;stroke-width:0.5;" x="132.972" xlink:href="#mf2f38cbd95" y="51.1056"/>
      </g>
     </g>
     <g id="text_2">
      <!-- −140 -->
      <g transform="translate(116.491688 212.673325)scale(0.12 -0.12)">
       <defs>
        <path d="M 37.796875 64.3125 
L 12.890625 25.390625 
L 37.796875 25.390625 
z
M 35.203125 72.90625 
L 47.609375 72.90625 
L 47.609375 25.390625 
L 58.015625 25.390625 
L 58.015625 17.1875 
L 47.609375 17.1875 
L 47.609375 0 
L 37.796875 0 
L 37.796875 17.1875 
L 4.890625 17.1875 
L 4.890625 26.703125 
z
" id="DejaVuSans-52"/>
       </defs>
       <use xlink:href="#DejaVuSans-8722"/>
       <use x="83.789062" xlink:href="#DejaVuSans-49"/>
       <use x="147.412109" xlink:href="#DejaVuSans-52"/>
       <use x="211.035156" xlink:href="#DejaVuSans-48"/>
      </g>
     </g>
    </g>
    <g id="xtick_3">
     <g id="line2d_8">
      <path clip-path="url(#p3cc98edc82)" d="M 171.12 199.5552 
L 171.12 51.1056 
" style="fill:none;stroke:#000000;stroke-dasharray:1,3;stroke-dashoffset:0;stroke-width:0.5;"/>
     </g>
     <g id="line2d_9">
      <g>
       <use style="stroke:#000000;stroke-width:0.5;" x="171.12" xlink:href="#mb0d29599f4" y="199.5552"/>
      </g>
     </g>
     <g id="line2d_10">
      <g>
       <use style="stroke:#000000;stroke-width:0.5;" x="171.12" xlink:href="#mf2f38cbd95" y="51.1056"/>
      </g>
     </g>
     <g id="text_3">
      <!-- −120 -->
      <g transform="translate(154.639688 212.673325)scale(0.12 -0.12)">
       <defs>
        <path d="M 19.1875 8.296875 
L 53.609375 8.296875 
L 53.609375 0 
L 7.328125 0 
L 7.328125 8.296875 
Q 12.9375 14.109375 22.625 23.890625 
Q 32.328125 33.6875 34.8125 36.53125 
Q 39.546875 41.84375 41.421875 45.53125 
Q 43.3125 49.21875 43.3125 52.78125 
Q 43.3125 58.59375 39.234375 62.25 
Q 35.15625 65.921875 28.609375 65.921875 
Q 23.96875 65.921875 18.8125 64.3125 
Q 13.671875 62.703125 7.8125 59.421875 
L 7.8125 69.390625 
Q 13.765625 71.78125 18.9375 73 
Q 24.125 74.21875 28.421875 74.21875 
Q 39.75 74.21875 46.484375 68.546875 
Q 53.21875 62.890625 53.21875 53.421875 
Q 53.21875 48.921875 51.53125 44.890625 
Q 49.859375 40.875 45.40625 35.40625 
Q 44.1875 33.984375 37.640625 27.21875 
Q 31.109375 20.453125 19.1875 8.296875 
z
" id="DejaVuSans-50"/>
       </defs>
       <use xlink:href="#DejaVuSans-8722"/>
       <use x="83.789062" xlink:href="#DejaVuSans-49"/>
       <use x="147.412109" xlink:href="#DejaVuSans-50"/>
       <use x="211.035156" xlink:href="#DejaVuSans-48"/>
      </g>
     </g>
    </g>
    <g id="xtick_4">
     <g id="line2d_11">
      <path clip-path="url(#p3cc98edc82)" d="M 209.268 199.5552 
L 209.268 51.1056 
" style="fill:none;stroke:#000000;stroke-dasharray:1,3;stroke-dashoffset:0;stroke-width:0.5;"/>
     </g>
     <g id="line2d_12">
      <g>
       <use style="stroke:#000000;stroke-width:0.5;" x="209.268" xlink:href="#mb0d29599f4" y="199.5552"/>
      </g>
     </g>
     <g id="line2d_13">
      <g>
       <use style="stroke:#000000;stroke-width:0.5;" x="209.268" xlink:href="#mf2f38cbd95" y="51.1056"/>
      </g>
     </g>
     <g id="text_4">
      <!-- −100 -->
      <g transform="translate(192.787688 212.673325)scale(0.12 -0.12)">
       <use xlink:href="#DejaVuSans-8722"/>
       <use x="83.789062" xlink:href="#DejaVuSans-49"/>
       <use x="147.412109" xlink:href="#DejaVuSans-48"/>
       <use x="211.035156" xlink:href="#DejaVuSans-48"/>
      </g>
     </g>
    </g>
    <g id="xtick_5">
     <g id="line2d_14">
      <path clip-path="url(#p3cc98edc82)" d="M 247.416 199.5552 
L 247.416 51.1056 
" style="fill:none;stroke:#000000;stroke-dasharray:1,3;stroke-dashoffset:0;stroke-width:0.5;"/>
     </g>
     <g id="line2d_15">
      <g>
       <use style="stroke:#000000;stroke-width:0.5;" x="247.416" xlink:href="#mb0d29599f4" y="199.5552"/>
      </g>
     </g>
     <g id="line2d_16">
      <g>
       <use style="stroke:#000000;stroke-width:0.5;" x="247.416" xlink:href="#mf2f38cbd95" y="51.1056"/>
      </g>
     </g>
     <g id="text_5">
      <!-- −80 -->
      <g transform="translate(234.753188 212.673325)scale(0.12 -0.12)">
       <defs>
        <path d="M 31.78125 34.625 
Q 24.75 34.625 20.71875 30.859375 
Q 16.703125 27.09375 16.703125 20.515625 
Q 16.703125 13.921875 20.71875 10.15625 
Q 24.75 6.390625 31.78125 6.390625 
Q 38.8125 6.390625 42.859375 10.171875 
Q 46.921875 13.96875 46.921875 20.515625 
Q 46.921875 27.09375 42.890625 30.859375 
Q 38.875 34.625 31.78125 34.625 
z
M 21.921875 38.8125 
Q 15.578125 40.375 12.03125 44.71875 
Q 8.5 49.078125 8.5 55.328125 
Q 8.5 64.0625 14.71875 69.140625 
Q 20.953125 74.21875 31.78125 74.21875 
Q 42.671875 74.21875 48.875 69.140625 
Q 55.078125 64.0625 55.078125 55.328125 
Q 55.078125 49.078125 51.53125 44.71875 
Q 48 40.375 41.703125 38.8125 
Q 48.828125 37.15625 52.796875 32.3125 
Q 56.78125 27.484375 56.78125 20.515625 
Q 56.78125 9.90625 50.3125 4.234375 
Q 43.84375 -1.421875 31.78125 -1.421875 
Q 19.734375 -1.421875 13.25 4.234375 
Q 6.78125 9.90625 6.78125 20.515625 
Q 6.78125 27.484375 10.78125 32.3125 
Q 14.796875 37.15625 21.921875 38.8125 
z
M 18.3125 54.390625 
Q 18.3125 48.734375 21.84375 45.5625 
Q 25.390625 42.390625 31.78125 42.390625 
Q 38.140625 42.390625 41.71875 45.5625 
Q 45.3125 48.734375 45.3125 54.390625 
Q 45.3125 60.0625 41.71875 63.234375 
Q 38.140625 66.40625 31.78125 66.40625 
Q 25.390625 66.40625 21.84375 63.234375 
Q 18.3125 60.0625 18.3125 54.390625 
z
" id="DejaVuSans-56"/>
       </defs>
       <use xlink:href="#DejaVuSans-8722"/>
       <use x="83.789062" xlink:href="#DejaVuSans-56"/>
       <use x="147.412109" xlink:href="#DejaVuSans-48"/>
      </g>
     </g>
    </g>
    <g id="xtick_6">
     <g id="line2d_17">
      <path clip-path="url(#p3cc98edc82)" d="M 285.564 199.5552 
L 285.564 51.1056 
" style="fill:none;stroke:#000000;stroke-dasharray:1,3;stroke-dashoffset:0;stroke-width:0.5;"/>
     </g>
     <g id="line2d_18">
      <g>
       <use style="stroke:#000000;stroke-width:0.5;" x="285.564" xlink:href="#mb0d29599f4" y="199.5552"/>
      </g>
     </g>
     <g id="line2d_19">
      <g>
       <use style="stroke:#000000;stroke-width:0.5;" x="285.564" xlink:href="#mf2f38cbd95" y="51.1056"/>
      </g>
     </g>
     <g id="text_6">
      <!-- −60 -->
      <g transform="translate(272.901188 212.673325)scale(0.12 -0.12)">
       <use xlink:href="#DejaVuSans-8722"/>
       <use x="83.789062" xlink:href="#DejaVuSans-54"/>
       <use x="147.412109" xlink:href="#DejaVuSans-48"/>
      </g>
     </g>
    </g>
    <g id="xtick_7">
     <g id="line2d_20">
      <path clip-path="url(#p3cc98edc82)" d="M 323.712 199.5552 
L 323.712 51.1056 
" style="fill:none;stroke:#000000;stroke-dasharray:1,3;stroke-dashoffset:0;stroke-width:0.5;"/>
     </g>
     <g id="line2d_21">
      <g>
       <use style="stroke:#000000;stroke-width:0.5;" x="323.712" xlink:href="#mb0d29599f4" y="199.5552"/>
      </g>
     </g>
     <g id="line2d_22">
      <g>
       <use style="stroke:#000000;stroke-width:0.5;" x="323.712" xlink:href="#mf2f38cbd95" y="51.1056"/>
      </g>
     </g>
     <g id="text_7">
      <!-- −40 -->
      <g transform="translate(311.049188 212.673325)scale(0.12 -0.12)">
       <use xlink:href="#DejaVuSans-8722"/>
       <use x="83.789062" xlink:href="#DejaVuSans-52"/>
       <use x="147.412109" xlink:href="#DejaVuSans-48"/>
      </g>
     </g>
    </g>
    <g id="xtick_8">
     <g id="line2d_23">
      <path clip-path="url(#p3cc98edc82)" d="M 361.86 199.5552 
L 361.86 51.1056 
" style="fill:none;stroke:#000000;stroke-dasharray:1,3;stroke-dashoffset:0;stroke-width:0.5;"/>
     </g>
     <g id="line2d_24">
      <g>
       <use style="stroke:#000000;stroke-width:0.5;" x="361.86" xlink:href="#mb0d29599f4" y="199.5552"/>
      </g>
     </g>
     <g id="line2d_25">
      <g>
       <use style="stroke:#000000;stroke-width:0.5;" x="361.86" xlink:href="#mf2f38cbd95" y="51.1056"/>
      </g>
     </g>
     <g id="text_8">
      <!-- −20 -->
      <g transform="translate(349.197188 212.673325)scale(0.12 -0.12)">
       <use xlink:href="#DejaVuSans-8722"/>
       <use x="83.789062" xlink:href="#DejaVuSans-50"/>
       <use x="147.412109" xlink:href="#DejaVuSans-48"/>
      </g>
     </g>
    </g>
    <g id="xtick_9">
     <g id="line2d_26">
      <path clip-path="url(#p3cc98edc82)" d="M 400.008 199.5552 
L 400.008 51.1056 
" style="fill:none;stroke:#000000;stroke-dasharray:1,3;stroke-dashoffset:0;stroke-width:0.5;"/>
     </g>
     <g id="line2d_27">
      <g>
       <use style="stroke:#000000;stroke-width:0.5;" x="400.008" xlink:href="#mb0d29599f4" y="199.5552"/>
      </g>
     </g>
     <g id="line2d_28">
      <g>
       <use style="stroke:#000000;stroke-width:0.5;" x="400.008" xlink:href="#mf2f38cbd95" y="51.1056"/>
      </g>
     </g>
     <g id="text_9">
      <!-- 0 -->
      <g transform="translate(396.1905 212.673325)scale(0.12 -0.12)">
       <use xlink:href="#DejaVuSans-48"/>
      </g>
     </g>
    </g>
    <g id="xtick_10">
     <g id="line2d_29">
      <path clip-path="url(#p3cc98edc82)" d="M 438.156 199.5552 
L 438.156 51.1056 
" style="fill:none;stroke:#000000;stroke-dasharray:1,3;stroke-dashoffset:0;stroke-width:0.5;"/>
     </g>
     <g id="line2d_30">
      <g>
       <use style="stroke:#000000;stroke-width:0.5;" x="438.156" xlink:href="#mb0d29599f4" y="199.5552"/>
      </g>
     </g>
     <g id="line2d_31">
      <g>
       <use style="stroke:#000000;stroke-width:0.5;" x="438.156" xlink:href="#mf2f38cbd95" y="51.1056"/>
      </g>
     </g>
     <g id="text_10">
      <!-- 20 -->
      <g transform="translate(430.521 212.673325)scale(0.12 -0.12)">
       <use xlink:href="#DejaVuSans-50"/>
       <use x="63.623047" xlink:href="#DejaVuSans-48"/>
      </g>
     </g>
    </g>
    <g id="text_11">
     <!-- Ranging RSSI -->
     <g transform="translate(226.425 229.287075)scale(0.12 -0.12)">
      <defs>
       <path d="M 44.390625 34.1875 
Q 47.5625 33.109375 50.5625 29.59375 
Q 53.5625 26.078125 56.59375 19.921875 
L 66.609375 0 
L 56 0 
L 46.6875 18.703125 
Q 43.0625 26.03125 39.671875 28.421875 
Q 36.28125 30.8125 30.421875 30.8125 
L 19.671875 30.8125 
L 19.671875 0 
L 9.8125 0 
L 9.8125 72.90625 
L 32.078125 72.90625 
Q 44.578125 72.90625 50.734375 67.671875 
Q 56.890625 62.453125 56.890625 51.90625 
Q 56.890625 45.015625 53.6875 40.46875 
Q 50.484375 35.9375 44.390625 34.1875 
z
M 19.671875 64.796875 
L 19.671875 38.921875 
L 32.078125 38.921875 
Q 39.203125 38.921875 42.84375 42.21875 
Q 46.484375 45.515625 46.484375 51.90625 
Q 46.484375 58.296875 42.84375 61.546875 
Q 39.203125 64.796875 32.078125 64.796875 
z
" id="DejaVuSans-82"/>
       <path d="M 34.28125 27.484375 
Q 23.390625 27.484375 19.1875 25 
Q 14.984375 22.515625 14.984375 16.5 
Q 14.984375 11.71875 18.140625 8.90625 
Q 21.296875 6.109375 26.703125 6.109375 
Q 34.1875 6.109375 38.703125 11.40625 
Q 43.21875 16.703125 43.21875 25.484375 
L 43.21875 27.484375 
z
M 52.203125 31.203125 
L 52.203125 0 
L 43.21875 0 
L 43.21875 8.296875 
Q 40.140625 3.328125 35.546875 0.953125 
Q 30.953125 -1.421875 24.3125 -1.421875 
Q 15.921875 -1.421875 10.953125 3.296875 
Q 6 8.015625 6 15.921875 
Q 6 25.140625 12.171875 29.828125 
Q 18.359375 34.515625 30.609375 34.515625 
L 43.21875 34.515625 
L 43.21875 35.40625 
Q 43.21875 41.609375 39.140625 45 
Q 35.0625 48.390625 27.6875 48.390625 
Q 23 48.390625 18.546875 47.265625 
Q 14.109375 46.140625 10.015625 43.890625 
L 10.015625 52.203125 
Q 14.9375 54.109375 19.578125 55.046875 
Q 24.21875 56 28.609375 56 
Q 40.484375 56 46.34375 49.84375 
Q 52.203125 43.703125 52.203125 31.203125 
z
" id="DejaVuSans-97"/>
       <path d="M 54.890625 33.015625 
L 54.890625 0 
L 45.90625 0 
L 45.90625 32.71875 
Q 45.90625 40.484375 42.875 44.328125 
Q 39.84375 48.1875 33.796875 48.1875 
Q 26.515625 48.1875 22.3125 43.546875 
Q 18.109375 38.921875 18.109375 30.90625 
L 18.109375 0 
L 9.078125 0 
L 9.078125 54.6875 
L 18.109375 54.6875 
L 18.109375 46.1875 
Q 21.34375 51.125 25.703125 53.5625 
Q 30.078125 56 35.796875 56 
Q 45.21875 56 50.046875 50.171875 
Q 54.890625 44.34375 54.890625 33.015625 
z
" id="DejaVuSans-110"/>
       <path d="M 45.40625 27.984375 
Q 45.40625 37.75 41.375 43.109375 
Q 37.359375 48.484375 30.078125 48.484375 
Q 22.859375 48.484375 18.828125 43.109375 
Q 14.796875 37.75 14.796875 27.984375 
Q 14.796875 18.265625 18.828125 12.890625 
Q 22.859375 7.515625 30.078125 7.515625 
Q 37.359375 7.515625 41.375 12.890625 
Q 45.40625 18.265625 45.40625 27.984375 
z
M 54.390625 6.78125 
Q 54.390625 -7.171875 48.1875 -13.984375 
Q 42 -20.796875 29.203125 -20.796875 
Q 24.46875 -20.796875 20.265625 -20.09375 
Q 16.0625 -19.390625 12.109375 -17.921875 
L 12.109375 -9.1875 
Q 16.0625 -11.328125 19.921875 -12.34375 
Q 23.78125 -13.375 27.78125 -13.375 
Q 36.625 -13.375 41.015625 -8.765625 
Q 45.40625 -4.15625 45.40625 5.171875 
L 45.40625 9.625 
Q 42.625 4.78125 38.28125 2.390625 
Q 33.9375 0 27.875 0 
Q 17.828125 0 11.671875 7.65625 
Q 5.515625 15.328125 5.515625 27.984375 
Q 5.515625 40.671875 11.671875 48.328125 
Q 17.828125 56 27.875 56 
Q 33.9375 56 38.28125 53.609375 
Q 42.625 51.21875 45.40625 46.390625 
L 45.40625 54.6875 
L 54.390625 54.6875 
z
" id="DejaVuSans-103"/>
       <path d="M 9.421875 54.6875 
L 18.40625 54.6875 
L 18.40625 0 
L 9.421875 0 
z
M 9.421875 75.984375 
L 18.40625 75.984375 
L 18.40625 64.59375 
L 9.421875 64.59375 
z
" id="DejaVuSans-105"/>
       <path id="DejaVuSans-32"/>
       <path d="M 53.515625 70.515625 
L 53.515625 60.890625 
Q 47.90625 63.578125 42.921875 64.890625 
Q 37.9375 66.21875 33.296875 66.21875 
Q 25.25 66.21875 20.875 63.09375 
Q 16.5 59.96875 16.5 54.203125 
Q 16.5 49.359375 19.40625 46.890625 
Q 22.3125 44.4375 30.421875 42.921875 
L 36.375 41.703125 
Q 47.40625 39.59375 52.65625 34.296875 
Q 57.90625 29 57.90625 20.125 
Q 57.90625 9.515625 50.796875 4.046875 
Q 43.703125 -1.421875 29.984375 -1.421875 
Q 24.8125 -1.421875 18.96875 -0.25 
Q 13.140625 0.921875 6.890625 3.21875 
L 6.890625 13.375 
Q 12.890625 10.015625 18.65625 8.296875 
Q 24.421875 6.59375 29.984375 6.59375 
Q 38.421875 6.59375 43.015625 9.90625 
Q 47.609375 13.234375 47.609375 19.390625 
Q 47.609375 24.75 44.3125 27.78125 
Q 41.015625 30.8125 33.5 32.328125 
L 27.484375 33.5 
Q 16.453125 35.6875 11.515625 40.375 
Q 6.59375 45.0625 6.59375 53.421875 
Q 6.59375 63.09375 13.40625 68.65625 
Q 20.21875 74.21875 32.171875 74.21875 
Q 37.3125 74.21875 42.625 73.28125 
Q 47.953125 72.359375 53.515625 70.515625 
z
" id="DejaVuSans-83"/>
       <path d="M 9.8125 72.90625 
L 19.671875 72.90625 
L 19.671875 0 
L 9.8125 0 
z
" id="DejaVuSans-73"/>
      </defs>
      <use xlink:href="#DejaVuSans-82"/>
      <use x="67.232422" xlink:href="#DejaVuSans-97"/>
      <use x="128.511719" xlink:href="#DejaVuSans-110"/>
      <use x="191.890625" xlink:href="#DejaVuSans-103"/>
      <use x="255.367188" xlink:href="#DejaVuSans-105"/>
      <use x="283.150391" xlink:href="#DejaVuSans-110"/>
      <use x="346.529297" xlink:href="#DejaVuSans-103"/>
      <use x="410.005859" xlink:href="#DejaVuSans-32"/>
      <use x="441.792969" xlink:href="#DejaVuSans-82"/>
      <use x="511.275391" xlink:href="#DejaVuSans-83"/>
      <use x="574.751953" xlink:href="#DejaVuSans-83"/>
      <use x="638.228516" xlink:href="#DejaVuSans-73"/>
     </g>
    </g>
   </g>
   <g id="matplotlib.axis_2">
    <g id="ytick_1">
     <g id="line2d_32">
      <path clip-path="url(#p3cc98edc82)" d="M 94.824 199.5552 
L 438.156 199.5552 
" style="fill:none;stroke:#000000;stroke-dasharray:1,3;stroke-dashoffset:0;stroke-width:0.5;"/>
     </g>
     <g id="line2d_33">
      <defs>
       <path d="M 0 0 
L 4 0 
" id="m6e733890b2" style="stroke:#000000;stroke-width:0.5;"/>
      </defs>
      <g>
       <use style="stroke:#000000;stroke-width:0.5;" x="94.824" xlink:href="#m6e733890b2" y="199.5552"/>
      </g>
     </g>
     <g id="line2d_34">
      <defs>
       <path d="M 0 0 
L -4 0 
" id="m008bdeb87b" style="stroke:#000000;stroke-width:0.5;"/>
      </defs>
      <g>
       <use style="stroke:#000000;stroke-width:0.5;" x="438.156" xlink:href="#m008bdeb87b" y="199.5552"/>
      </g>
     </g>
     <g id="text_12">
      <!-- −6 -->
      <g transform="translate(73.133375 202.86645)scale(0.12 -0.12)">
       <use xlink:href="#DejaVuSans-8722"/>
       <use x="83.789062" xlink:href="#DejaVuSans-54"/>
      </g>
     </g>
    </g>
    <g id="ytick_2">
     <g id="line2d_35">
      <path clip-path="url(#p3cc98edc82)" d="M 94.824 180.999 
L 438.156 180.999 
" style="fill:none;stroke:#000000;stroke-dasharray:1,3;stroke-dashoffset:0;stroke-width:0.5;"/>
     </g>
     <g id="line2d_36">
      <g>
       <use style="stroke:#000000;stroke-width:0.5;" x="94.824" xlink:href="#m6e733890b2" y="180.999"/>
      </g>
     </g>
     <g id="line2d_37">
      <g>
       <use style="stroke:#000000;stroke-width:0.5;" x="438.156" xlink:href="#m008bdeb87b" y="180.999"/>
      </g>
     </g>
     <g id="text_13">
      <!-- −4 -->
      <g transform="translate(73.133375 184.31025)scale(0.12 -0.12)">
       <use xlink:href="#DejaVuSans-8722"/>
       <use x="83.789062" xlink:href="#DejaVuSans-52"/>
      </g>
     </g>
    </g>
    <g id="ytick_3">
     <g id="line2d_38">
      <path clip-path="url(#p3cc98edc82)" d="M 94.824 162.4428 
L 438.156 162.4428 
" style="fill:none;stroke:#000000;stroke-dasharray:1,3;stroke-dashoffset:0;stroke-width:0.5;"/>
     </g>
     <g id="line2d_39">
      <g>
       <use style="stroke:#000000;stroke-width:0.5;" x="94.824" xlink:href="#m6e733890b2" y="162.4428"/>
      </g>
     </g>
     <g id="line2d_40">
      <g>
       <use style="stroke:#000000;stroke-width:0.5;" x="438.156" xlink:href="#m008bdeb87b" y="162.4428"/>
      </g>
     </g>
     <g id="text_14">
      <!-- −2 -->
      <g transform="translate(73.133375 165.75405)scale(0.12 -0.12)">
       <use xlink:href="#DejaVuSans-8722"/>
       <use x="83.789062" xlink:href="#DejaVuSans-50"/>
      </g>
     </g>
    </g>
    <g id="ytick_4">
     <g id="line2d_41">
      <path clip-path="url(#p3cc98edc82)" d="M 94.824 143.8866 
L 438.156 143.8866 
" style="fill:none;stroke:#000000;stroke-dasharray:1,3;stroke-dashoffset:0;stroke-width:0.5;"/>
     </g>
     <g id="line2d_42">
      <g>
       <use style="stroke:#000000;stroke-width:0.5;" x="94.824" xlink:href="#m6e733890b2" y="143.8866"/>
      </g>
     </g>
     <g id="line2d_43">
      <g>
       <use style="stroke:#000000;stroke-width:0.5;" x="438.156" xlink:href="#m008bdeb87b" y="143.8866"/>
      </g>
     </g>
     <g id="text_15">
      <!-- 0 -->
      <g transform="translate(83.189 147.19785)scale(0.12 -0.12)">
       <use xlink:href="#DejaVuSans-48"/>
      </g>
     </g>
    </g>
    <g id="ytick_5">
     <g id="line2d_44">
      <path clip-path="url(#p3cc98edc82)" d="M 94.824 125.3304 
L 438.156 125.3304 
" style="fill:none;stroke:#000000;stroke-dasharray:1,3;stroke-dashoffset:0;stroke-width:0.5;"/>
     </g>
     <g id="line2d_45">
      <g>
       <use style="stroke:#000000;stroke-width:0.5;" x="94.824" xlink:href="#m6e733890b2" y="125.3304"/>
      </g>
     </g>
     <g id="line2d_46">
      <g>
       <use style="stroke:#000000;stroke-width:0.5;" x="438.156" xlink:href="#m008bdeb87b" y="125.3304"/>
      </g>
     </g>
     <g id="text_16">
      <!-- 2 -->
      <g transform="translate(83.189 128.64165)scale(0.12 -0.12)">
       <use xlink:href="#DejaVuSans-50"/>
      </g>
     </g>
    </g>
    <g id="ytick_6">
     <g id="line2d_47">
      <path clip-path="url(#p3cc98edc82)" d="M 94.824 106.7742 
L 438.156 106.7742 
" style="fill:none;stroke:#000000;stroke-dasharray:1,3;stroke-dashoffset:0;stroke-width:0.5;"/>
     </g>
     <g id="line2d_48">
      <g>
       <use style="stroke:#000000;stroke-width:0.5;" x="94.824" xlink:href="#m6e733890b2" y="106.7742"/>
      </g>
     </g>
     <g id="line2d_49">
      <g>
       <use style="stroke:#000000;stroke-width:0.5;" x="438.156" xlink:href="#m008bdeb87b" y="106.7742"/>
      </g>
     </g>
     <g id="text_17">
      <!-- 4 -->
      <g transform="translate(83.189 110.08545)scale(0.12 -0.12)">
       <use xlink:href="#DejaVuSans-52"/>
      </g>
     </g>
    </g>
    <g id="ytick_7">
     <g id="line2d_50">
      <path clip-path="url(#p3cc98edc82)" d="M 94.824 88.218 
L 438.156 88.218 
" style="fill:none;stroke:#000000;stroke-dasharray:1,3;stroke-dashoffset:0;stroke-width:0.5;"/>
     </g>
     <g id="line2d_51">
      <g>
       <use style="stroke:#000000;stroke-width:0.5;" x="94.824" xlink:href="#m6e733890b2" y="88.218"/>
      </g>
     </g>
     <g id="line2d_52">
      <g>
       <use style="stroke:#000000;stroke-width:0.5;" x="438.156" xlink:href="#m008bdeb87b" y="88.218"/>
      </g>
     </g>
     <g id="text_18">
      <!-- 6 -->
      <g transform="translate(83.189 91.52925)scale(0.12 -0.12)">
       <use xlink:href="#DejaVuSans-54"/>
      </g>
     </g>
    </g>
    <g id="ytick_8">
     <g id="line2d_53">
      <path clip-path="url(#p3cc98edc82)" d="M 94.824 69.6618 
L 438.156 69.6618 
" style="fill:none;stroke:#000000;stroke-dasharray:1,3;stroke-dashoffset:0;stroke-width:0.5;"/>
     </g>
     <g id="line2d_54">
      <g>
       <use style="stroke:#000000;stroke-width:0.5;" x="94.824" xlink:href="#m6e733890b2" y="69.6618"/>
      </g>
     </g>
     <g id="line2d_55">
      <g>
       <use style="stroke:#000000;stroke-width:0.5;" x="438.156" xlink:href="#m008bdeb87b" y="69.6618"/>
      </g>
     </g>
     <g id="text_19">
      <!-- 8 -->
      <g transform="translate(83.189 72.97305)scale(0.12 -0.12)">
       <use xlink:href="#DejaVuSans-56"/>
      </g>
     </g>
    </g>
    <g id="ytick_9">
     <g id="line2d_56">
      <path clip-path="url(#p3cc98edc82)" d="M 94.824 51.1056 
L 438.156 51.1056 
" style="fill:none;stroke:#000000;stroke-dasharray:1,3;stroke-dashoffset:0;stroke-width:0.5;"/>
     </g>
     <g id="line2d_57">
      <g>
       <use style="stroke:#000000;stroke-width:0.5;" x="94.824" xlink:href="#m6e733890b2" y="51.1056"/>
      </g>
     </g>
     <g id="line2d_58">
      <g>
       <use style="stroke:#000000;stroke-width:0.5;" x="438.156" xlink:href="#m008bdeb87b" y="51.1056"/>
      </g>
     </g>
     <g id="text_20">
      <!-- 10 -->
      <g transform="translate(75.554 54.41685)scale(0.12 -0.12)">
       <use xlink:href="#DejaVuSans-49"/>
       <use x="63.623047" xlink:href="#DejaVuSans-48"/>
      </g>
     </g>
    </g>
    <g id="text_21">
     <!-- Distance correction -->
     <g transform="translate(65.63775 183.619463)rotate(-90)scale(0.12 -0.12)">
      <defs>
       <path d="M 19.671875 64.796875 
L 19.671875 8.109375 
L 31.59375 8.109375 
Q 46.6875 8.109375 53.6875 14.9375 
Q 60.6875 21.78125 60.6875 36.53125 
Q 60.6875 51.171875 53.6875 57.984375 
Q 46.6875 64.796875 31.59375 64.796875 
z
M 9.8125 72.90625 
L 30.078125 72.90625 
Q 51.265625 72.90625 61.171875 64.09375 
Q 71.09375 55.28125 71.09375 36.53125 
Q 71.09375 17.671875 61.125 8.828125 
Q 51.171875 0 30.078125 0 
L 9.8125 0 
z
" id="DejaVuSans-68"/>
       <path d="M 44.28125 53.078125 
L 44.28125 44.578125 
Q 40.484375 46.53125 36.375 47.5 
Q 32.28125 48.484375 27.875 48.484375 
Q 21.1875 48.484375 17.84375 46.4375 
Q 14.5 44.390625 14.5 40.28125 
Q 14.5 37.15625 16.890625 35.375 
Q 19.28125 33.59375 26.515625 31.984375 
L 29.59375 31.296875 
Q 39.15625 29.25 43.1875 25.515625 
Q 47.21875 21.78125 47.21875 15.09375 
Q 47.21875 7.46875 41.1875 3.015625 
Q 35.15625 -1.421875 24.609375 -1.421875 
Q 20.21875 -1.421875 15.453125 -0.5625 
Q 10.6875 0.296875 5.421875 2 
L 5.421875 11.28125 
Q 10.40625 8.6875 15.234375 7.390625 
Q 20.0625 6.109375 24.8125 6.109375 
Q 31.15625 6.109375 34.5625 8.28125 
Q 37.984375 10.453125 37.984375 14.40625 
Q 37.984375 18.0625 35.515625 20.015625 
Q 33.0625 21.96875 24.703125 23.78125 
L 21.578125 24.515625 
Q 13.234375 26.265625 9.515625 29.90625 
Q 5.8125 33.546875 5.8125 39.890625 
Q 5.8125 47.609375 11.28125 51.796875 
Q 16.75 56 26.8125 56 
Q 31.78125 56 36.171875 55.265625 
Q 40.578125 54.546875 44.28125 53.078125 
z
" id="DejaVuSans-115"/>
       <path d="M 18.3125 70.21875 
L 18.3125 54.6875 
L 36.8125 54.6875 
L 36.8125 47.703125 
L 18.3125 47.703125 
L 18.3125 18.015625 
Q 18.3125 11.328125 20.140625 9.421875 
Q 21.96875 7.515625 27.59375 7.515625 
L 36.8125 7.515625 
L 36.8125 0 
L 27.59375 0 
Q 17.1875 0 13.234375 3.875 
Q 9.28125 7.765625 9.28125 18.015625 
L 9.28125 47.703125 
L 2.6875 47.703125 
L 2.6875 54.6875 
L 9.28125 54.6875 
L 9.28125 70.21875 
z
" id="DejaVuSans-116"/>
       <path d="M 48.78125 52.59375 
L 48.78125 44.1875 
Q 44.96875 46.296875 41.140625 47.34375 
Q 37.3125 48.390625 33.40625 48.390625 
Q 24.65625 48.390625 19.8125 42.84375 
Q 14.984375 37.3125 14.984375 27.296875 
Q 14.984375 17.28125 19.8125 11.734375 
Q 24.65625 6.203125 33.40625 6.203125 
Q 37.3125 6.203125 41.140625 7.25 
Q 44.96875 8.296875 48.78125 10.40625 
L 48.78125 2.09375 
Q 45.015625 0.34375 40.984375 -0.53125 
Q 36.96875 -1.421875 32.421875 -1.421875 
Q 20.0625 -1.421875 12.78125 6.34375 
Q 5.515625 14.109375 5.515625 27.296875 
Q 5.515625 40.671875 12.859375 48.328125 
Q 20.21875 56 33.015625 56 
Q 37.15625 56 41.109375 55.140625 
Q 45.0625 54.296875 48.78125 52.59375 
z
" id="DejaVuSans-99"/>
       <path d="M 56.203125 29.59375 
L 56.203125 25.203125 
L 14.890625 25.203125 
Q 15.484375 15.921875 20.484375 11.0625 
Q 25.484375 6.203125 34.421875 6.203125 
Q 39.59375 6.203125 44.453125 7.46875 
Q 49.3125 8.734375 54.109375 11.28125 
L 54.109375 2.78125 
Q 49.265625 0.734375 44.1875 -0.34375 
Q 39.109375 -1.421875 33.890625 -1.421875 
Q 20.796875 -1.421875 13.15625 6.1875 
Q 5.515625 13.8125 5.515625 26.8125 
Q 5.515625 40.234375 12.765625 48.109375 
Q 20.015625 56 32.328125 56 
Q 43.359375 56 49.78125 48.890625 
Q 56.203125 41.796875 56.203125 29.59375 
z
M 47.21875 32.234375 
Q 47.125 39.59375 43.09375 43.984375 
Q 39.0625 48.390625 32.421875 48.390625 
Q 24.90625 48.390625 20.390625 44.140625 
Q 15.875 39.890625 15.1875 32.171875 
z
" id="DejaVuSans-101"/>
       <path d="M 30.609375 48.390625 
Q 23.390625 48.390625 19.1875 42.75 
Q 14.984375 37.109375 14.984375 27.296875 
Q 14.984375 17.484375 19.15625 11.84375 
Q 23.34375 6.203125 30.609375 6.203125 
Q 37.796875 6.203125 41.984375 11.859375 
Q 46.1875 17.53125 46.1875 27.296875 
Q 46.1875 37.015625 41.984375 42.703125 
Q 37.796875 48.390625 30.609375 48.390625 
z
M 30.609375 56 
Q 42.328125 56 49.015625 48.375 
Q 55.71875 40.765625 55.71875 27.296875 
Q 55.71875 13.875 49.015625 6.21875 
Q 42.328125 -1.421875 30.609375 -1.421875 
Q 18.84375 -1.421875 12.171875 6.21875 
Q 5.515625 13.875 5.515625 27.296875 
Q 5.515625 40.765625 12.171875 48.375 
Q 18.84375 56 30.609375 56 
z
" id="DejaVuSans-111"/>
       <path d="M 41.109375 46.296875 
Q 39.59375 47.171875 37.8125 47.578125 
Q 36.03125 48 33.890625 48 
Q 26.265625 48 22.1875 43.046875 
Q 18.109375 38.09375 18.109375 28.8125 
L 18.109375 0 
L 9.078125 0 
L 9.078125 54.6875 
L 18.109375 54.6875 
L 18.109375 46.1875 
Q 20.953125 51.171875 25.484375 53.578125 
Q 30.03125 56 36.53125 56 
Q 37.453125 56 38.578125 55.875 
Q 39.703125 55.765625 41.0625 55.515625 
z
" id="DejaVuSans-114"/>
      </defs>
      <use xlink:href="#DejaVuSans-68"/>
      <use x="77.001953" xlink:href="#DejaVuSans-105"/>
      <use x="104.785156" xlink:href="#DejaVuSans-115"/>
      <use x="156.884766" xlink:href="#DejaVuSans-116"/>
      <use x="196.09375" xlink:href="#DejaVuSans-97"/>
      <use x="257.373047" xlink:href="#DejaVuSans-110"/>
      <use x="320.751953" xlink:href="#DejaVuSans-99"/>
      <use x="375.732422" xlink:href="#DejaVuSans-101"/>
      <use x="437.255859" xlink:href="#DejaVuSans-32"/>
      <use x="469.042969" xlink:href="#DejaVuSans-99"/>
      <use x="524.023438" xlink:href="#DejaVuSans-111"/>
      <use x="585.205078" xlink:href="#DejaVuSans-114"/>
      <use x="624.568359" xlink:href="#DejaVuSans-114"/>
      <use x="663.431641" xlink:href="#DejaVuSans-101"/>
      <use x="724.955078" xlink:href="#DejaVuSans-99"/>
      <use x="779.935547" xlink:href="#DejaVuSans-116"/>
      <use x="819.144531" xlink:href="#DejaVuSans-105"/>
      <use x="846.927734" xlink:href="#DejaVuSans-111"/>
      <use x="908.109375" xlink:href="#DejaVuSans-110"/>
     </g>
    </g>
   </g>
   <g id="legend_1">
    <g id="patch_7">
     <path d="M 280.551 193.5552 
L 429.756 193.5552 
Q 432.156 193.5552 432.156 191.1552 
L 432.156 174.74145 
Q 432.156 172.34145 429.756 172.34145 
L 280.551 172.34145 
Q 278.151 172.34145 278.151 174.74145 
L 278.151 191.1552 
Q 278.151 193.5552 280.551 193.5552 
z
" style="fill:#ffffff;opacity:0.5;stroke:#000000;stroke-linejoin:miter;"/>
    </g>
    <g id="line2d_59">
     <path d="M 286.551 182.059575 
L 303.351 182.059575 
" style="fill:none;stroke:#2fa19e;stroke-linecap:square;"/>
    </g>
    <g id="line2d_60"/>
    <g id="text_22">
     <!-- SF10, BW 400 KHz -->
     <g transform="translate(316.551 186.259575)scale(0.12 -0.12)">
      <defs>
       <path d="M 9.8125 72.90625 
L 51.703125 72.90625 
L 51.703125 64.59375 
L 19.671875 64.59375 
L 19.671875 43.109375 
L 48.578125 43.109375 
L 48.578125 34.8125 
L 19.671875 34.8125 
L 19.671875 0 
L 9.8125 0 
z
" id="DejaVuSans-70"/>
       <path d="M 11.71875 12.40625 
L 22.015625 12.40625 
L 22.015625 4 
L 14.015625 -11.625 
L 7.71875 -11.625 
L 11.71875 4 
z
" id="DejaVuSans-44"/>
       <path d="M 19.671875 34.8125 
L 19.671875 8.109375 
L 35.5 8.109375 
Q 43.453125 8.109375 47.28125 11.40625 
Q 51.125 14.703125 51.125 21.484375 
Q 51.125 28.328125 47.28125 31.5625 
Q 43.453125 34.8125 35.5 34.8125 
z
M 19.671875 64.796875 
L 19.671875 42.828125 
L 34.28125 42.828125 
Q 41.5 42.828125 45.03125 45.53125 
Q 48.578125 48.25 48.578125 53.8125 
Q 48.578125 59.328125 45.03125 62.0625 
Q 41.5 64.796875 34.28125 64.796875 
z
M 9.8125 72.90625 
L 35.015625 72.90625 
Q 46.296875 72.90625 52.390625 68.21875 
Q 58.5 63.53125 58.5 54.890625 
Q 58.5 48.1875 55.375 44.234375 
Q 52.25 40.28125 46.1875 39.3125 
Q 53.46875 37.75 57.5 32.78125 
Q 61.53125 27.828125 61.53125 20.40625 
Q 61.53125 10.640625 54.890625 5.3125 
Q 48.25 0 35.984375 0 
L 9.8125 0 
z
" id="DejaVuSans-66"/>
       <path d="M 3.328125 72.90625 
L 13.28125 72.90625 
L 28.609375 11.28125 
L 43.890625 72.90625 
L 54.984375 72.90625 
L 70.3125 11.28125 
L 85.59375 72.90625 
L 95.609375 72.90625 
L 77.296875 0 
L 64.890625 0 
L 49.515625 63.28125 
L 33.984375 0 
L 21.578125 0 
z
" id="DejaVuSans-87"/>
       <path d="M 9.8125 72.90625 
L 19.671875 72.90625 
L 19.671875 42.09375 
L 52.390625 72.90625 
L 65.09375 72.90625 
L 28.90625 38.921875 
L 67.671875 0 
L 54.6875 0 
L 19.671875 35.109375 
L 19.671875 0 
L 9.8125 0 
z
" id="DejaVuSans-75"/>
       <path d="M 9.8125 72.90625 
L 19.671875 72.90625 
L 19.671875 43.015625 
L 55.515625 43.015625 
L 55.515625 72.90625 
L 65.375 72.90625 
L 65.375 0 
L 55.515625 0 
L 55.515625 34.71875 
L 19.671875 34.71875 
L 19.671875 0 
L 9.8125 0 
z
" id="DejaVuSans-72"/>
       <path d="M 5.515625 54.6875 
L 48.1875 54.6875 
L 48.1875 46.484375 
L 14.40625 7.171875 
L 48.1875 7.171875 
L 48.1875 0 
L 4.296875 0 
L 4.296875 8.203125 
L 38.09375 47.515625 
L 5.515625 47.515625 
z
" id="DejaVuSans-122"/>
      </defs>
      <use xlink:href="#DejaVuSans-83"/>
      <use x="63.476562" xlink:href="#DejaVuSans-70"/>
      <use x="120.996094" xlink:href="#DejaVuSans-49"/>
      <use x="184.619141" xlink:href="#DejaVuSans-48"/>
      <use x="248.242188" xlink:href="#DejaVuSans-44"/>
      <use x="280.029297" xlink:href="#DejaVuSans-32"/>
      <use x="311.816406" xlink:href="#DejaVuSans-66"/>
      <use x="376.794922" xlink:href="#DejaVuSans-87"/>
      <use x="475.671875" xlink:href="#DejaVuSans-32"/>
      <use x="507.458984" xlink:href="#DejaVuSans-52"/>
      <use x="571.082031" xlink:href="#DejaVuSans-48"/>
      <use x="634.705078" xlink:href="#DejaVuSans-48"/>
      <use x="698.328125" xlink:href="#DejaVuSans-32"/>
      <use x="730.115234" xlink:href="#DejaVuSans-75"/>
      <use x="795.691406" xlink:href="#DejaVuSans-72"/>
      <use x="870.886719" xlink:href="#DejaVuSans-122"/>
     </g>
    </g>
   </g>
  </g>
  <g id="axes_2">
   <g id="patch_8">
    <path d="M 545.256 199.5552 
L 888.588 199.5552 
L 888.588 51.1056 
L 545.256 51.1056 
z
" style="fill:none;"/>
   </g>
   <g id="line2d_61">
    <path clip-path="url(#paeb4cd1a23)" d="M 564.33 178.426368 
L 627.2742 178.426368 
L 629.1816 133.009203 
L 631.089 96.541074 
L 632.9964 99.653568 
L 634.9038 83.40279 
L 636.8112 68.679558 
L 638.7186 66.826413 
L 640.626 74.681871 
L 642.5334 78.872603 
L 644.4408 79.892452 
L 646.3482 77.420766 
L 648.2556 83.856551 
L 650.163 86.574663 
L 652.0704 84.988726 
L 653.9778 87.707333 
L 655.8852 84.762588 
L 657.7926 84.991695 
L 659.7 86.347535 
L 661.6074 85.753737 
L 663.5148 92.350342 
L 665.4222 89.745546 
L 667.3296 89.745546 
L 669.237 85.753737 
L 671.1444 92.010392 
L 673.0518 92.237026 
L 674.9592 92.237026 
L 676.8666 91.330988 
L 678.774 88.025016 
L 680.6814 86.684021 
L 682.5888 92.237026 
L 686.4036 93.143558 
L 688.311 91.557621 
L 690.2184 91.783759 
L 692.1258 91.783759 
L 694.0332 91.104355 
L 695.9406 92.237026 
L 697.848 92.010392 
L 699.7554 86.684021 
L 701.6628 89.29228 
L 703.5702 90.877722 
L 705.4776 91.330988 
L 707.385 88.839509 
L 709.2924 88.025016 
L 711.1998 83.176652 
L 713.1072 83.40279 
L 715.0146 84.762588 
L 716.922 81.590715 
L 718.8294 78.872603 
L 720.7368 81.590715 
L 722.6442 80.005768 
L 724.5516 78.872603 
L 726.459 77.513794 
L 728.3664 76.833895 
L 730.2738 77.96706 
L 732.1812 78.419337 
L 734.0886 77.287656 
L 737.9034 77.287656 
L 739.8108 77.513794 
L 741.7182 76.381124 
L 743.6256 66.826413 
L 745.533 68.679558 
L 747.4404 68.679558 
L 749.3478 64.602638 
L 751.2552 65.281547 
L 753.1626 64.602638 
L 755.07 64.828776 
L 756.9774 64.602638 
L 758.8848 65.961446 
L 760.7922 65.054914 
L 762.6996 63.6966 
L 764.607 61.430765 
L 766.5144 62.110664 
L 768.4218 62.110664 
L 770.3292 59.845323 
L 772.2366 61.430765 
L 774.144 59.845323 
L 776.0514 56.227111 
L 777.9588 58.939285 
L 779.8662 56.447311 
L 781.7736 57.580477 
L 783.681 57.80711 
L 785.5884 53.049795 
L 787.4958 55.315136 
L 789.4032 58.486514 
L 791.3106 60.298094 
L 793.218 56.447311 
L 795.1254 56.220678 
L 797.0328 53.193791 
L 802.755 55.460122 
L 804.6624 52.823162 
L 806.5698 51.23772 
L 808.4772 129.668097 
L 827.5512 129.668097 
L 829.4586 111.660171 
L 831.366 108.545699 
L 833.2734 97.46641 
L 835.1808 95.748353 
L 837.0882 84.762588 
L 838.9956 84.252416 
L 840.903 84.790794 
L 842.8104 83.290463 
L 844.7178 84.338022 
L 846.6252 84.705682 
L 848.5326 86.121397 
L 850.44 86.177808 
L 852.3474 83.863478 
L 854.2548 86.093686 
L 856.1622 86.37673 
L 858.0696 87.168956 
L 859.977 87.707333 
L 861.8844 87.452495 
L 863.7918 87.083845 
L 865.6992 87.877061 
L 867.6066 87.933472 
L 867.6066 87.933472 
" style="fill:none;stroke:#2fa19e;stroke-linecap:square;"/>
   </g>
   <g id="patch_9">
    <path d="M 545.256 199.5552 
L 545.256 51.1056 
" style="fill:none;stroke:#000000;stroke-linecap:square;stroke-linejoin:miter;"/>
   </g>
   <g id="patch_10">
    <path d="M 888.588 199.5552 
L 888.588 51.1056 
" style="fill:none;stroke:#000000;stroke-linecap:square;stroke-linejoin:miter;"/>
   </g>
   <g id="patch_11">
    <path d="M 545.256 199.5552 
L 888.588 199.5552 
" style="fill:none;stroke:#000000;stroke-linecap:square;stroke-linejoin:miter;"/>
   </g>
   <g id="patch_12">
    <path d="M 545.256 51.1056 
L 888.588 51.1056 
" style="fill:none;stroke:#000000;stroke-linecap:square;stroke-linejoin:miter;"/>
   </g>
   <g id="matplotlib.axis_3">
    <g id="xtick_11">
     <g id="line2d_62">
      <path clip-path="url(#paeb4cd1a23)" d="M 545.256 199.5552 
L 545.256 51.1056 
" style="fill:none;stroke:#000000;stroke-dasharray:1,3;stroke-dashoffset:0;stroke-width:0.5;"/>
     </g>
     <g id="line2d_63">
      <g>
       <use style="stroke:#000000;stroke-width:0.5;" x="545.256" xlink:href="#mb0d29599f4" y="199.5552"/>
      </g>
     </g>
     <g id="line2d_64">
      <g>
       <use style="stroke:#000000;stroke-width:0.5;" x="545.256" xlink:href="#mf2f38cbd95" y="51.1056"/>
      </g>
     </g>
     <g id="text_23">
      <!-- −160 -->
      <g transform="translate(528.775688 212.673325)scale(0.12 -0.12)">
       <use xlink:href="#DejaVuSans-8722"/>
       <use x="83.789062" xlink:href="#DejaVuSans-49"/>
       <use x="147.412109" xlink:href="#DejaVuSans-54"/>
       <use x="211.035156" xlink:href="#DejaVuSans-48"/>
      </g>
     </g>
    </g>
    <g id="xtick_12">
     <g id="line2d_65">
      <path clip-path="url(#paeb4cd1a23)" d="M 583.404 199.5552 
L 583.404 51.1056 
" style="fill:none;stroke:#000000;stroke-dasharray:1,3;stroke-dashoffset:0;stroke-width:0.5;"/>
     </g>
     <g id="line2d_66">
      <g>
       <use style="stroke:#000000;stroke-width:0.5;" x="583.404" xlink:href="#mb0d29599f4" y="199.5552"/>
      </g>
     </g>
     <g id="line2d_67">
      <g>
       <use style="stroke:#000000;stroke-width:0.5;" x="583.404" xlink:href="#mf2f38cbd95" y="51.1056"/>
      </g>
     </g>
     <g id="text_24">
      <!-- −140 -->
      <g transform="translate(566.923688 212.673325)scale(0.12 -0.12)">
       <use xlink:href="#DejaVuSans-8722"/>
       <use x="83.789062" xlink:href="#DejaVuSans-49"/>
       <use x="147.412109" xlink:href="#DejaVuSans-52"/>
       <use x="211.035156" xlink:href="#DejaVuSans-48"/>
      </g>
     </g>
    </g>
    <g id="xtick_13">
     <g id="line2d_68">
      <path clip-path="url(#paeb4cd1a23)" d="M 621.552 199.5552 
L 621.552 51.1056 
" style="fill:none;stroke:#000000;stroke-dasharray:1,3;stroke-dashoffset:0;stroke-width:0.5;"/>
     </g>
     <g id="line2d_69">
      <g>
       <use style="stroke:#000000;stroke-width:0.5;" x="621.552" xlink:href="#mb0d29599f4" y="199.5552"/>
      </g>
     </g>
     <g id="line2d_70">
      <g>
       <use style="stroke:#000000;stroke-width:0.5;" x="621.552" xlink:href="#mf2f38cbd95" y="51.1056"/>
      </g>
     </g>
     <g id="text_25">
      <!-- −120 -->
      <g transform="translate(605.071688 212.673325)scale(0.12 -0.12)">
       <use xlink:href="#DejaVuSans-8722"/>
       <use x="83.789062" xlink:href="#DejaVuSans-49"/>
       <use x="147.412109" xlink:href="#DejaVuSans-50"/>
       <use x="211.035156" xlink:href="#DejaVuSans-48"/>
      </g>
     </g>
    </g>
    <g id="xtick_14">
     <g id="line2d_71">
      <path clip-path="url(#paeb4cd1a23)" d="M 659.7 199.5552 
L 659.7 51.1056 
" style="fill:none;stroke:#000000;stroke-dasharray:1,3;stroke-dashoffset:0;stroke-width:0.5;"/>
     </g>
     <g id="line2d_72">
      <g>
       <use style="stroke:#000000;stroke-width:0.5;" x="659.7" xlink:href="#mb0d29599f4" y="199.5552"/>
      </g>
     </g>
     <g id="line2d_73">
      <g>
       <use style="stroke:#000000;stroke-width:0.5;" x="659.7" xlink:href="#mf2f38cbd95" y="51.1056"/>
      </g>
     </g>
     <g id="text_26">
      <!-- −100 -->
      <g transform="translate(643.219688 212.673325)scale(0.12 -0.12)">
       <use xlink:href="#DejaVuSans-8722"/>
       <use x="83.789062" xlink:href="#DejaVuSans-49"/>
       <use x="147.412109" xlink:href="#DejaVuSans-48"/>
       <use x="211.035156" xlink:href="#DejaVuSans-48"/>
      </g>
     </g>
    </g>
    <g id="xtick_15">
     <g id="line2d_74">
      <path clip-path="url(#paeb4cd1a23)" d="M 697.848 199.5552 
L 697.848 51.1056 
" style="fill:none;stroke:#000000;stroke-dasharray:1,3;stroke-dashoffset:0;stroke-width:0.5;"/>
     </g>
     <g id="line2d_75">
      <g>
       <use style="stroke:#000000;stroke-width:0.5;" x="697.848" xlink:href="#mb0d29599f4" y="199.5552"/>
      </g>
     </g>
     <g id="line2d_76">
      <g>
       <use style="stroke:#000000;stroke-width:0.5;" x="697.848" xlink:href="#mf2f38cbd95" y="51.1056"/>
      </g>
     </g>
     <g id="text_27">
      <!-- −80 -->
      <g transform="translate(685.185188 212.673325)scale(0.12 -0.12)">
       <use xlink:href="#DejaVuSans-8722"/>
       <use x="83.789062" xlink:href="#DejaVuSans-56"/>
       <use x="147.412109" xlink:href="#DejaVuSans-48"/>
      </g>
     </g>
    </g>
    <g id="xtick_16">
     <g id="line2d_77">
      <path clip-path="url(#paeb4cd1a23)" d="M 735.996 199.5552 
L 735.996 51.1056 
" style="fill:none;stroke:#000000;stroke-dasharray:1,3;stroke-dashoffset:0;stroke-width:0.5;"/>
     </g>
     <g id="line2d_78">
      <g>
       <use style="stroke:#000000;stroke-width:0.5;" x="735.996" xlink:href="#mb0d29599f4" y="199.5552"/>
      </g>
     </g>
     <g id="line2d_79">
      <g>
       <use style="stroke:#000000;stroke-width:0.5;" x="735.996" xlink:href="#mf2f38cbd95" y="51.1056"/>
      </g>
     </g>
     <g id="text_28">
      <!-- −60 -->
      <g transform="translate(723.333188 212.673325)scale(0.12 -0.12)">
       <use xlink:href="#DejaVuSans-8722"/>
       <use x="83.789062" xlink:href="#DejaVuSans-54"/>
       <use x="147.412109" xlink:href="#DejaVuSans-48"/>
      </g>
     </g>
    </g>
    <g id="xtick_17">
     <g id="line2d_80">
      <path clip-path="url(#paeb4cd1a23)" d="M 774.144 199.5552 
L 774.144 51.1056 
" style="fill:none;stroke:#000000;stroke-dasharray:1,3;stroke-dashoffset:0;stroke-width:0.5;"/>
     </g>
     <g id="line2d_81">
      <g>
       <use style="stroke:#000000;stroke-width:0.5;" x="774.144" xlink:href="#mb0d29599f4" y="199.5552"/>
      </g>
     </g>
     <g id="line2d_82">
      <g>
       <use style="stroke:#000000;stroke-width:0.5;" x="774.144" xlink:href="#mf2f38cbd95" y="51.1056"/>
      </g>
     </g>
     <g id="text_29">
      <!-- −40 -->
      <g transform="translate(761.481188 212.673325)scale(0.12 -0.12)">
       <use xlink:href="#DejaVuSans-8722"/>
       <use x="83.789062" xlink:href="#DejaVuSans-52"/>
       <use x="147.412109" xlink:href="#DejaVuSans-48"/>
      </g>
     </g>
    </g>
    <g id="xtick_18">
     <g id="line2d_83">
      <path clip-path="url(#paeb4cd1a23)" d="M 812.292 199.5552 
L 812.292 51.1056 
" style="fill:none;stroke:#000000;stroke-dasharray:1,3;stroke-dashoffset:0;stroke-width:0.5;"/>
     </g>
     <g id="line2d_84">
      <g>
       <use style="stroke:#000000;stroke-width:0.5;" x="812.292" xlink:href="#mb0d29599f4" y="199.5552"/>
      </g>
     </g>
     <g id="line2d_85">
      <g>
       <use style="stroke:#000000;stroke-width:0.5;" x="812.292" xlink:href="#mf2f38cbd95" y="51.1056"/>
      </g>
     </g>
     <g id="text_30">
      <!-- −20 -->
      <g transform="translate(799.629188 212.673325)scale(0.12 -0.12)">
       <use xlink:href="#DejaVuSans-8722"/>
       <use x="83.789062" xlink:href="#DejaVuSans-50"/>
       <use x="147.412109" xlink:href="#DejaVuSans-48"/>
      </g>
     </g>
    </g>
    <g id="xtick_19">
     <g id="line2d_86">
      <path clip-path="url(#paeb4cd1a23)" d="M 850.44 199.5552 
L 850.44 51.1056 
" style="fill:none;stroke:#000000;stroke-dasharray:1,3;stroke-dashoffset:0;stroke-width:0.5;"/>
     </g>
     <g id="line2d_87">
      <g>
       <use style="stroke:#000000;stroke-width:0.5;" x="850.44" xlink:href="#mb0d29599f4" y="199.5552"/>
      </g>
     </g>
     <g id="line2d_88">
      <g>
       <use style="stroke:#000000;stroke-width:0.5;" x="850.44" xlink:href="#mf2f38cbd95" y="51.1056"/>
      </g>
     </g>
     <g id="text_31">
      <!-- 0 -->
      <g transform="translate(846.6225 212.673325)scale(0.12 -0.12)">
       <use xlink:href="#DejaVuSans-48"/>
      </g>
     </g>
    </g>
    <g id="xtick_20">
     <g id="line2d_89">
      <path clip-path="url(#paeb4cd1a23)" d="M 888.588 199.5552 
L 888.588 51.1056 
" style="fill:none;stroke:#000000;stroke-dasharray:1,3;stroke-dashoffset:0;stroke-width:0.5;"/>
     </g>
     <g id="line2d_90">
      <g>
       <use style="stroke:#000000;stroke-width:0.5;" x="888.588" xlink:href="#mb0d29599f4" y="199.5552"/>
      </g>
     </g>
     <g id="line2d_91">
      <g>
       <use style="stroke:#000000;stroke-width:0.5;" x="888.588" xlink:href="#mf2f38cbd95" y="51.1056"/>
      </g>
     </g>
     <g id="text_32">
      <!-- 20 -->
      <g transform="translate(880.953 212.673325)scale(0.12 -0.12)">
       <use xlink:href="#DejaVuSans-50"/>
       <use x="63.623047" xlink:href="#DejaVuSans-48"/>
      </g>
     </g>
    </g>
    <g id="text_33">
     <!-- Ranging RSSI -->
     <g transform="translate(676.857 229.287075)scale(0.12 -0.12)">
      <use xlink:href="#DejaVuSans-82"/>
      <use x="67.232422" xlink:href="#DejaVuSans-97"/>
      <use x="128.511719" xlink:href="#DejaVuSans-110"/>
      <use x="191.890625" xlink:href="#DejaVuSans-103"/>
      <use x="255.367188" xlink:href="#DejaVuSans-105"/>
      <use x="283.150391" xlink:href="#DejaVuSans-110"/>
      <use x="346.529297" xlink:href="#DejaVuSans-103"/>
      <use x="410.005859" xlink:href="#DejaVuSans-32"/>
      <use x="441.792969" xlink:href="#DejaVuSans-82"/>
      <use x="511.275391" xlink:href="#DejaVuSans-83"/>
      <use x="574.751953" xlink:href="#DejaVuSans-83"/>
      <use x="638.228516" xlink:href="#DejaVuSans-73"/>
     </g>
    </g>
   </g>
   <g id="matplotlib.axis_4">
    <g id="ytick_10">
     <g id="line2d_92">
      <path clip-path="url(#paeb4cd1a23)" d="M 545.256 199.5552 
L 888.588 199.5552 
" style="fill:none;stroke:#000000;stroke-dasharray:1,3;stroke-dashoffset:0;stroke-width:0.5;"/>
     </g>
     <g id="line2d_93">
      <g>
       <use style="stroke:#000000;stroke-width:0.5;" x="545.256" xlink:href="#m6e733890b2" y="199.5552"/>
      </g>
     </g>
     <g id="line2d_94">
      <g>
       <use style="stroke:#000000;stroke-width:0.5;" x="888.588" xlink:href="#m008bdeb87b" y="199.5552"/>
      </g>
     </g>
     <g id="text_34">
      <!-- −20 -->
      <g transform="translate(515.930375 202.86645)scale(0.12 -0.12)">
       <use xlink:href="#DejaVuSans-8722"/>
       <use x="83.789062" xlink:href="#DejaVuSans-50"/>
       <use x="147.412109" xlink:href="#DejaVuSans-48"/>
      </g>
     </g>
    </g>
    <g id="ytick_11">
     <g id="line2d_95">
      <path clip-path="url(#paeb4cd1a23)" d="M 545.256 174.8136 
L 888.588 174.8136 
" style="fill:none;stroke:#000000;stroke-dasharray:1,3;stroke-dashoffset:0;stroke-width:0.5;"/>
     </g>
     <g id="line2d_96">
      <g>
       <use style="stroke:#000000;stroke-width:0.5;" x="545.256" xlink:href="#m6e733890b2" y="174.8136"/>
      </g>
     </g>
     <g id="line2d_97">
      <g>
       <use style="stroke:#000000;stroke-width:0.5;" x="888.588" xlink:href="#m008bdeb87b" y="174.8136"/>
      </g>
     </g>
     <g id="text_35">
      <!-- −15 -->
      <g transform="translate(515.930375 178.12485)scale(0.12 -0.12)">
       <defs>
        <path d="M 10.796875 72.90625 
L 49.515625 72.90625 
L 49.515625 64.59375 
L 19.828125 64.59375 
L 19.828125 46.734375 
Q 21.96875 47.46875 24.109375 47.828125 
Q 26.265625 48.1875 28.421875 48.1875 
Q 40.625 48.1875 47.75 41.5 
Q 54.890625 34.8125 54.890625 23.390625 
Q 54.890625 11.625 47.5625 5.09375 
Q 40.234375 -1.421875 26.90625 -1.421875 
Q 22.3125 -1.421875 17.546875 -0.640625 
Q 12.796875 0.140625 7.71875 1.703125 
L 7.71875 11.625 
Q 12.109375 9.234375 16.796875 8.0625 
Q 21.484375 6.890625 26.703125 6.890625 
Q 35.15625 6.890625 40.078125 11.328125 
Q 45.015625 15.765625 45.015625 23.390625 
Q 45.015625 31 40.078125 35.4375 
Q 35.15625 39.890625 26.703125 39.890625 
Q 22.75 39.890625 18.8125 39.015625 
Q 14.890625 38.140625 10.796875 36.28125 
z
" id="DejaVuSans-53"/>
       </defs>
       <use xlink:href="#DejaVuSans-8722"/>
       <use x="83.789062" xlink:href="#DejaVuSans-49"/>
       <use x="147.412109" xlink:href="#DejaVuSans-53"/>
      </g>
     </g>
    </g>
    <g id="ytick_12">
     <g id="line2d_98">
      <path clip-path="url(#paeb4cd1a23)" d="M 545.256 150.072 
L 888.588 150.072 
" style="fill:none;stroke:#000000;stroke-dasharray:1,3;stroke-dashoffset:0;stroke-width:0.5;"/>
     </g>
     <g id="line2d_99">
      <g>
       <use style="stroke:#000000;stroke-width:0.5;" x="545.256" xlink:href="#m6e733890b2" y="150.072"/>
      </g>
     </g>
     <g id="line2d_100">
      <g>
       <use style="stroke:#000000;stroke-width:0.5;" x="888.588" xlink:href="#m008bdeb87b" y="150.072"/>
      </g>
     </g>
     <g id="text_36">
      <!-- −10 -->
      <g transform="translate(515.930375 153.38325)scale(0.12 -0.12)">
       <use xlink:href="#DejaVuSans-8722"/>
       <use x="83.789062" xlink:href="#DejaVuSans-49"/>
       <use x="147.412109" xlink:href="#DejaVuSans-48"/>
      </g>
     </g>
    </g>
    <g id="ytick_13">
     <g id="line2d_101">
      <path clip-path="url(#paeb4cd1a23)" d="M 545.256 125.3304 
L 888.588 125.3304 
" style="fill:none;stroke:#000000;stroke-dasharray:1,3;stroke-dashoffset:0;stroke-width:0.5;"/>
     </g>
     <g id="line2d_102">
      <g>
       <use style="stroke:#000000;stroke-width:0.5;" x="545.256" xlink:href="#m6e733890b2" y="125.3304"/>
      </g>
     </g>
     <g id="line2d_103">
      <g>
       <use style="stroke:#000000;stroke-width:0.5;" x="888.588" xlink:href="#m008bdeb87b" y="125.3304"/>
      </g>
     </g>
     <g id="text_37">
      <!-- −5 -->
      <g transform="translate(523.565375 128.64165)scale(0.12 -0.12)">
       <use xlink:href="#DejaVuSans-8722"/>
       <use x="83.789062" xlink:href="#DejaVuSans-53"/>
      </g>
     </g>
    </g>
    <g id="ytick_14">
     <g id="line2d_104">
      <path clip-path="url(#paeb4cd1a23)" d="M 545.256 100.5888 
L 888.588 100.5888 
" style="fill:none;stroke:#000000;stroke-dasharray:1,3;stroke-dashoffset:0;stroke-width:0.5;"/>
     </g>
     <g id="line2d_105">
      <g>
       <use style="stroke:#000000;stroke-width:0.5;" x="545.256" xlink:href="#m6e733890b2" y="100.5888"/>
      </g>
     </g>
     <g id="line2d_106">
      <g>
       <use style="stroke:#000000;stroke-width:0.5;" x="888.588" xlink:href="#m008bdeb87b" y="100.5888"/>
      </g>
     </g>
     <g id="text_38">
      <!-- 0 -->
      <g transform="translate(533.621 103.90005)scale(0.12 -0.12)">
       <use xlink:href="#DejaVuSans-48"/>
      </g>
     </g>
    </g>
    <g id="ytick_15">
     <g id="line2d_107">
      <path clip-path="url(#paeb4cd1a23)" d="M 545.256 75.8472 
L 888.588 75.8472 
" style="fill:none;stroke:#000000;stroke-dasharray:1,3;stroke-dashoffset:0;stroke-width:0.5;"/>
     </g>
     <g id="line2d_108">
      <g>
       <use style="stroke:#000000;stroke-width:0.5;" x="545.256" xlink:href="#m6e733890b2" y="75.8472"/>
      </g>
     </g>
     <g id="line2d_109">
      <g>
       <use style="stroke:#000000;stroke-width:0.5;" x="888.588" xlink:href="#m008bdeb87b" y="75.8472"/>
      </g>
     </g>
     <g id="text_39">
      <!-- 5 -->
      <g transform="translate(533.621 79.15845)scale(0.12 -0.12)">
       <use xlink:href="#DejaVuSans-53"/>
      </g>
     </g>
    </g>
    <g id="ytick_16">
     <g id="line2d_110">
      <path clip-path="url(#paeb4cd1a23)" d="M 545.256 51.1056 
L 888.588 51.1056 
" style="fill:none;stroke:#000000;stroke-dasharray:1,3;stroke-dashoffset:0;stroke-width:0.5;"/>
     </g>
     <g id="line2d_111">
      <g>
       <use style="stroke:#000000;stroke-width:0.5;" x="545.256" xlink:href="#m6e733890b2" y="51.1056"/>
      </g>
     </g>
     <g id="line2d_112">
      <g>
       <use style="stroke:#000000;stroke-width:0.5;" x="888.588" xlink:href="#m008bdeb87b" y="51.1056"/>
      </g>
     </g>
     <g id="text_40">
      <!-- 10 -->
      <g transform="translate(525.986 54.41685)scale(0.12 -0.12)">
       <use xlink:href="#DejaVuSans-49"/>
       <use x="63.623047" xlink:href="#DejaVuSans-48"/>
      </g>
     </g>
    </g>
    <g id="text_41">
     <!-- Distance correction -->
     <g transform="translate(508.43475 183.619463)rotate(-90)scale(0.12 -0.12)">
      <use xlink:href="#DejaVuSans-68"/>
      <use x="77.001953" xlink:href="#DejaVuSans-105"/>
      <use x="104.785156" xlink:href="#DejaVuSans-115"/>
      <use x="156.884766" xlink:href="#DejaVuSans-116"/>
      <use x="196.09375" xlink:href="#DejaVuSans-97"/>
      <use x="257.373047" xlink:href="#DejaVuSans-110"/>
      <use x="320.751953" xlink:href="#DejaVuSans-99"/>
      <use x="375.732422" xlink:href="#DejaVuSans-101"/>
      <use x="437.255859" xlink:href="#DejaVuSans-32"/>
      <use x="469.042969" xlink:href="#DejaVuSans-99"/>
      <use x="524.023438" xlink:href="#DejaVuSans-111"/>
      <use x="585.205078" xlink:href="#DejaVuSans-114"/>
      <use x="624.568359" xlink:href="#DejaVuSans-114"/>
      <use x="663.431641" xlink:href="#DejaVuSans-101"/>
      <use x="724.955078" xlink:href="#DejaVuSans-99"/>
      <use x="779.935547" xlink:href="#DejaVuSans-116"/>
      <use x="819.144531" xlink:href="#DejaVuSans-105"/>
      <use x="846.927734" xlink:href="#DejaVuSans-111"/>
      <use x="908.109375" xlink:href="#DejaVuSans-110"/>
     </g>
    </g>
   </g>
   <g id="legend_2">
    <g id="patch_13">
     <path d="M 730.983 193.5552 
L 880.188 193.5552 
Q 882.588 193.5552 882.588 191.1552 
L 882.588 174.74145 
Q 882.588 172.34145 880.188 172.34145 
L 730.983 172.34145 
Q 728.583 172.34145 728.583 174.74145 
L 728.583 191.1552 
Q 728.583 193.5552 730.983 193.5552 
z
" style="fill:#ffffff;opacity:0.5;stroke:#000000;stroke-linejoin:miter;"/>
    </g>
    <g id="line2d_113">
     <path d="M 736.983 182.059575 
L 753.783 182.059575 
" style="fill:none;stroke:#2fa19e;stroke-linecap:square;"/>
    </g>
    <g id="line2d_114"/>
    <g id="text_42">
     <!-- SF10, BW 800 KHz -->
     <g transform="translate(766.983 186.259575)scale(0.12 -0.12)">
      <use xlink:href="#DejaVuSans-83"/>
      <use x="63.476562" xlink:href="#DejaVuSans-70"/>
      <use x="120.996094" xlink:href="#DejaVuSans-49"/>
      <use x="184.619141" xlink:href="#DejaVuSans-48"/>
      <use x="248.242188" xlink:href="#DejaVuSans-44"/>
      <use x="280.029297" xlink:href="#DejaVuSans-32"/>
      <use x="311.816406" xlink:href="#DejaVuSans-66"/>
      <use x="376.794922" xlink:href="#DejaVuSans-87"/>
      <use x="475.671875" xlink:href="#DejaVuSans-32"/>
      <use x="507.458984" xlink:href="#DejaVuSans-56"/>
      <use x="571.082031" xlink:href="#DejaVuSans-48"/>
      <use x="634.705078" xlink:href="#DejaVuSans-48"/>
      <use x="698.328125" xlink:href="#DejaVuSans-32"/>
      <use x="730.115234" xlink:href="#DejaVuSans-75"/>
      <use x="795.691406" xlink:href="#DejaVuSans-72"/>
      <use x="870.886719" xlink:href="#DejaVuSans-122"/>
     </g>
    </g>
   </g>
  </g>
  <g id="axes_3">
   <g id="patch_14">
    <path d="M 94.824 401.7312 
L 438.156 401.7312 
L 438.156 253.2816 
L 94.824 253.2816 
z
" style="fill:none;"/>
   </g>
   <g id="line2d_115">
    <path clip-path="url(#p268c64f814)" d="M 113.898 299.792839 
L 176.8422 299.792839 
L 178.7496 295.432379 
L 180.657 286.767871 
L 182.5644 289.770017 
L 184.4718 290.201016 
L 186.3792 289.770017 
L 188.2866 295.036019 
L 192.1014 291.412364 
L 194.0088 295.771834 
L 195.9162 295.545696 
L 197.8236 295.602107 
L 199.731 293.053722 
L 203.5458 295.09243 
L 205.4532 293.506988 
L 207.3606 293.280355 
L 209.268 293.506988 
L 211.1754 294.752975 
L 213.0828 294.526342 
L 214.9902 294.413026 
L 216.8976 294.865797 
L 218.805 293.959759 
L 220.7124 293.337261 
L 224.5272 294.186392 
L 226.4346 294.979608 
L 228.342 295.319558 
L 230.2494 294.186392 
L 232.1568 293.620305 
L 234.0642 294.299709 
L 235.9716 294.640153 
L 237.879 294.299709 
L 239.7864 294.073571 
L 241.6938 294.979608 
L 243.6012 294.865797 
L 245.5086 294.979608 
L 247.416 293.959759 
L 251.2308 294.413026 
L 253.1382 294.413026 
L 255.0456 294.299709 
L 256.953 293.846938 
L 258.8604 294.186392 
L 260.7678 290.676054 
L 262.6752 294.073571 
L 264.5826 294.073571 
L 266.49 285.919234 
L 270.3048 283.653398 
L 272.2122 285.126019 
L 274.1196 284.89988 
L 276.027 285.126019 
L 277.9344 284.786069 
L 279.8418 285.352652 
L 281.7492 284.559436 
L 283.6566 283.993843 
L 285.564 284.333298 
L 287.4714 284.107159 
L 289.3788 283.200627 
L 291.2862 283.483671 
L 293.1936 284.672752 
L 295.101 284.107159 
L 297.0084 280.935286 
L 298.9158 275.669284 
L 300.8232 271.762091 
L 302.7306 270.402787 
L 304.638 270.289471 
L 308.4528 268.930167 
L 310.3602 269.042989 
L 314.175 269.042989 
L 316.0824 265.974041 
L 317.9898 267.457547 
L 319.8972 266.325372 
L 321.8046 266.212055 
L 323.712 265.758789 
L 325.6194 265.079385 
L 327.5268 265.305523 
L 329.4342 265.192206 
L 331.3416 265.305523 
L 335.1564 263.606765 
L 337.0638 263.606765 
L 338.9712 263.380131 
L 342.786 261.681373 
L 344.6934 261.341918 
L 346.6008 260.435881 
L 348.5082 258.736628 
L 350.4156 258.849944 
L 352.323 257.636122 
L 354.2304 257.717274 
L 356.1378 255.369791 
L 358.0452 380.602368 
L 359.9526 380.602368 
L 361.86 335.185203 
L 363.7674 298.717074 
L 365.6748 301.829568 
L 367.5822 285.57879 
L 369.4896 270.855558 
L 371.397 269.002413 
L 373.3044 276.857871 
L 375.2118 281.048603 
L 377.1192 282.068452 
L 379.0266 279.596766 
L 380.934 286.032551 
L 382.8414 288.750663 
L 384.7488 287.164726 
L 386.6562 289.883333 
L 388.5636 286.938588 
L 390.471 287.167695 
L 392.3784 288.523535 
L 394.2858 287.929737 
L 396.1932 294.526342 
L 398.1006 291.921546 
L 400.008 291.921546 
L 401.9154 287.929737 
L 403.8228 294.186392 
L 405.7302 294.413026 
L 407.6376 294.413026 
L 409.545 293.506988 
L 411.4524 290.201016 
L 413.3598 288.860021 
L 415.2672 294.413026 
L 417.1746 294.865797 
L 417.1746 294.865797 
" style="fill:none;stroke:#2fa19e;stroke-linecap:square;"/>
   </g>
   <g id="patch_15">
    <path d="M 94.824 401.7312 
L 94.824 253.2816 
" style="fill:none;stroke:#000000;stroke-linecap:square;stroke-linejoin:miter;"/>
   </g>
   <g id="patch_16">
    <path d="M 438.156 401.7312 
L 438.156 253.2816 
" style="fill:none;stroke:#000000;stroke-linecap:square;stroke-linejoin:miter;"/>
   </g>
   <g id="patch_17">
    <path d="M 94.824 401.7312 
L 438.156 401.7312 
" style="fill:none;stroke:#000000;stroke-linecap:square;stroke-linejoin:miter;"/>
   </g>
   <g id="patch_18">
    <path d="M 94.824 253.2816 
L 438.156 253.2816 
" style="fill:none;stroke:#000000;stroke-linecap:square;stroke-linejoin:miter;"/>
   </g>
   <g id="matplotlib.axis_5">
    <g id="xtick_21">
     <g id="line2d_116">
      <path clip-path="url(#p268c64f814)" d="M 94.824 401.7312 
L 94.824 253.2816 
" style="fill:none;stroke:#000000;stroke-dasharray:1,3;stroke-dashoffset:0;stroke-width:0.5;"/>
     </g>
     <g id="line2d_117">
      <g>
       <use style="stroke:#000000;stroke-width:0.5;" x="94.824" xlink:href="#mb0d29599f4" y="401.7312"/>
      </g>
     </g>
     <g id="line2d_118">
      <g>
       <use style="stroke:#000000;stroke-width:0.5;" x="94.824" xlink:href="#mf2f38cbd95" y="253.2816"/>
      </g>
     </g>
     <g id="text_43">
      <!-- −160 -->
      <g transform="translate(78.343688 414.849325)scale(0.12 -0.12)">
       <use xlink:href="#DejaVuSans-8722"/>
       <use x="83.789062" xlink:href="#DejaVuSans-49"/>
       <use x="147.412109" xlink:href="#DejaVuSans-54"/>
       <use x="211.035156" xlink:href="#DejaVuSans-48"/>
      </g>
     </g>
    </g>
    <g id="xtick_22">
     <g id="line2d_119">
      <path clip-path="url(#p268c64f814)" d="M 132.972 401.7312 
L 132.972 253.2816 
" style="fill:none;stroke:#000000;stroke-dasharray:1,3;stroke-dashoffset:0;stroke-width:0.5;"/>
     </g>
     <g id="line2d_120">
      <g>
       <use style="stroke:#000000;stroke-width:0.5;" x="132.972" xlink:href="#mb0d29599f4" y="401.7312"/>
      </g>
     </g>
     <g id="line2d_121">
      <g>
       <use style="stroke:#000000;stroke-width:0.5;" x="132.972" xlink:href="#mf2f38cbd95" y="253.2816"/>
      </g>
     </g>
     <g id="text_44">
      <!-- −140 -->
      <g transform="translate(116.491688 414.849325)scale(0.12 -0.12)">
       <use xlink:href="#DejaVuSans-8722"/>
       <use x="83.789062" xlink:href="#DejaVuSans-49"/>
       <use x="147.412109" xlink:href="#DejaVuSans-52"/>
       <use x="211.035156" xlink:href="#DejaVuSans-48"/>
      </g>
     </g>
    </g>
    <g id="xtick_23">
     <g id="line2d_122">
      <path clip-path="url(#p268c64f814)" d="M 171.12 401.7312 
L 171.12 253.2816 
" style="fill:none;stroke:#000000;stroke-dasharray:1,3;stroke-dashoffset:0;stroke-width:0.5;"/>
     </g>
     <g id="line2d_123">
      <g>
       <use style="stroke:#000000;stroke-width:0.5;" x="171.12" xlink:href="#mb0d29599f4" y="401.7312"/>
      </g>
     </g>
     <g id="line2d_124">
      <g>
       <use style="stroke:#000000;stroke-width:0.5;" x="171.12" xlink:href="#mf2f38cbd95" y="253.2816"/>
      </g>
     </g>
     <g id="text_45">
      <!-- −120 -->
      <g transform="translate(154.639688 414.849325)scale(0.12 -0.12)">
       <use xlink:href="#DejaVuSans-8722"/>
       <use x="83.789062" xlink:href="#DejaVuSans-49"/>
       <use x="147.412109" xlink:href="#DejaVuSans-50"/>
       <use x="211.035156" xlink:href="#DejaVuSans-48"/>
      </g>
     </g>
    </g>
    <g id="xtick_24">
     <g id="line2d_125">
      <path clip-path="url(#p268c64f814)" d="M 209.268 401.7312 
L 209.268 253.2816 
" style="fill:none;stroke:#000000;stroke-dasharray:1,3;stroke-dashoffset:0;stroke-width:0.5;"/>
     </g>
     <g id="line2d_126">
      <g>
       <use style="stroke:#000000;stroke-width:0.5;" x="209.268" xlink:href="#mb0d29599f4" y="401.7312"/>
      </g>
     </g>
     <g id="line2d_127">
      <g>
       <use style="stroke:#000000;stroke-width:0.5;" x="209.268" xlink:href="#mf2f38cbd95" y="253.2816"/>
      </g>
     </g>
     <g id="text_46">
      <!-- −100 -->
      <g transform="translate(192.787688 414.849325)scale(0.12 -0.12)">
       <use xlink:href="#DejaVuSans-8722"/>
       <use x="83.789062" xlink:href="#DejaVuSans-49"/>
       <use x="147.412109" xlink:href="#DejaVuSans-48"/>
       <use x="211.035156" xlink:href="#DejaVuSans-48"/>
      </g>
     </g>
    </g>
    <g id="xtick_25">
     <g id="line2d_128">
      <path clip-path="url(#p268c64f814)" d="M 247.416 401.7312 
L 247.416 253.2816 
" style="fill:none;stroke:#000000;stroke-dasharray:1,3;stroke-dashoffset:0;stroke-width:0.5;"/>
     </g>
     <g id="line2d_129">
      <g>
       <use style="stroke:#000000;stroke-width:0.5;" x="247.416" xlink:href="#mb0d29599f4" y="401.7312"/>
      </g>
     </g>
     <g id="line2d_130">
      <g>
       <use style="stroke:#000000;stroke-width:0.5;" x="247.416" xlink:href="#mf2f38cbd95" y="253.2816"/>
      </g>
     </g>
     <g id="text_47">
      <!-- −80 -->
      <g transform="translate(234.753188 414.849325)scale(0.12 -0.12)">
       <use xlink:href="#DejaVuSans-8722"/>
       <use x="83.789062" xlink:href="#DejaVuSans-56"/>
       <use x="147.412109" xlink:href="#DejaVuSans-48"/>
      </g>
     </g>
    </g>
    <g id="xtick_26">
     <g id="line2d_131">
      <path clip-path="url(#p268c64f814)" d="M 285.564 401.7312 
L 285.564 253.2816 
" style="fill:none;stroke:#000000;stroke-dasharray:1,3;stroke-dashoffset:0;stroke-width:0.5;"/>
     </g>
     <g id="line2d_132">
      <g>
       <use style="stroke:#000000;stroke-width:0.5;" x="285.564" xlink:href="#mb0d29599f4" y="401.7312"/>
      </g>
     </g>
     <g id="line2d_133">
      <g>
       <use style="stroke:#000000;stroke-width:0.5;" x="285.564" xlink:href="#mf2f38cbd95" y="253.2816"/>
      </g>
     </g>
     <g id="text_48">
      <!-- −60 -->
      <g transform="translate(272.901188 414.849325)scale(0.12 -0.12)">
       <use xlink:href="#DejaVuSans-8722"/>
       <use x="83.789062" xlink:href="#DejaVuSans-54"/>
       <use x="147.412109" xlink:href="#DejaVuSans-48"/>
      </g>
     </g>
    </g>
    <g id="xtick_27">
     <g id="line2d_134">
      <path clip-path="url(#p268c64f814)" d="M 323.712 401.7312 
L 323.712 253.2816 
" style="fill:none;stroke:#000000;stroke-dasharray:1,3;stroke-dashoffset:0;stroke-width:0.5;"/>
     </g>
     <g id="line2d_135">
      <g>
       <use style="stroke:#000000;stroke-width:0.5;" x="323.712" xlink:href="#mb0d29599f4" y="401.7312"/>
      </g>
     </g>
     <g id="line2d_136">
      <g>
       <use style="stroke:#000000;stroke-width:0.5;" x="323.712" xlink:href="#mf2f38cbd95" y="253.2816"/>
      </g>
     </g>
     <g id="text_49">
      <!-- −40 -->
      <g transform="translate(311.049188 414.849325)scale(0.12 -0.12)">
       <use xlink:href="#DejaVuSans-8722"/>
       <use x="83.789062" xlink:href="#DejaVuSans-52"/>
       <use x="147.412109" xlink:href="#DejaVuSans-48"/>
      </g>
     </g>
    </g>
    <g id="xtick_28">
     <g id="line2d_137">
      <path clip-path="url(#p268c64f814)" d="M 361.86 401.7312 
L 361.86 253.2816 
" style="fill:none;stroke:#000000;stroke-dasharray:1,3;stroke-dashoffset:0;stroke-width:0.5;"/>
     </g>
     <g id="line2d_138">
      <g>
       <use style="stroke:#000000;stroke-width:0.5;" x="361.86" xlink:href="#mb0d29599f4" y="401.7312"/>
      </g>
     </g>
     <g id="line2d_139">
      <g>
       <use style="stroke:#000000;stroke-width:0.5;" x="361.86" xlink:href="#mf2f38cbd95" y="253.2816"/>
      </g>
     </g>
     <g id="text_50">
      <!-- −20 -->
      <g transform="translate(349.197188 414.849325)scale(0.12 -0.12)">
       <use xlink:href="#DejaVuSans-8722"/>
       <use x="83.789062" xlink:href="#DejaVuSans-50"/>
       <use x="147.412109" xlink:href="#DejaVuSans-48"/>
      </g>
     </g>
    </g>
    <g id="xtick_29">
     <g id="line2d_140">
      <path clip-path="url(#p268c64f814)" d="M 400.008 401.7312 
L 400.008 253.2816 
" style="fill:none;stroke:#000000;stroke-dasharray:1,3;stroke-dashoffset:0;stroke-width:0.5;"/>
     </g>
     <g id="line2d_141">
      <g>
       <use style="stroke:#000000;stroke-width:0.5;" x="400.008" xlink:href="#mb0d29599f4" y="401.7312"/>
      </g>
     </g>
     <g id="line2d_142">
      <g>
       <use style="stroke:#000000;stroke-width:0.5;" x="400.008" xlink:href="#mf2f38cbd95" y="253.2816"/>
      </g>
     </g>
     <g id="text_51">
      <!-- 0 -->
      <g transform="translate(396.1905 414.849325)scale(0.12 -0.12)">
       <use xlink:href="#DejaVuSans-48"/>
      </g>
     </g>
    </g>
    <g id="xtick_30">
     <g id="line2d_143">
      <path clip-path="url(#p268c64f814)" d="M 438.156 401.7312 
L 438.156 253.2816 
" style="fill:none;stroke:#000000;stroke-dasharray:1,3;stroke-dashoffset:0;stroke-width:0.5;"/>
     </g>
     <g id="line2d_144">
      <g>
       <use style="stroke:#000000;stroke-width:0.5;" x="438.156" xlink:href="#mb0d29599f4" y="401.7312"/>
      </g>
     </g>
     <g id="line2d_145">
      <g>
       <use style="stroke:#000000;stroke-width:0.5;" x="438.156" xlink:href="#mf2f38cbd95" y="253.2816"/>
      </g>
     </g>
     <g id="text_52">
      <!-- 20 -->
      <g transform="translate(430.521 414.849325)scale(0.12 -0.12)">
       <use xlink:href="#DejaVuSans-50"/>
       <use x="63.623047" xlink:href="#DejaVuSans-48"/>
      </g>
     </g>
    </g>
    <g id="text_53">
     <!-- Ranging RSSI -->
     <g transform="translate(226.425 431.463075)scale(0.12 -0.12)">
      <use xlink:href="#DejaVuSans-82"/>
      <use x="67.232422" xlink:href="#DejaVuSans-97"/>
      <use x="128.511719" xlink:href="#DejaVuSans-110"/>
      <use x="191.890625" xlink:href="#DejaVuSans-103"/>
      <use x="255.367188" xlink:href="#DejaVuSans-105"/>
      <use x="283.150391" xlink:href="#DejaVuSans-110"/>
      <use x="346.529297" xlink:href="#DejaVuSans-103"/>
      <use x="410.005859" xlink:href="#DejaVuSans-32"/>
      <use x="441.792969" xlink:href="#DejaVuSans-82"/>
      <use x="511.275391" xlink:href="#DejaVuSans-83"/>
      <use x="574.751953" xlink:href="#DejaVuSans-83"/>
      <use x="638.228516" xlink:href="#DejaVuSans-73"/>
     </g>
    </g>
   </g>
   <g id="matplotlib.axis_6">
    <g id="ytick_17">
     <g id="line2d_146">
      <path clip-path="url(#p268c64f814)" d="M 94.824 401.7312 
L 438.156 401.7312 
" style="fill:none;stroke:#000000;stroke-dasharray:1,3;stroke-dashoffset:0;stroke-width:0.5;"/>
     </g>
     <g id="line2d_147">
      <g>
       <use style="stroke:#000000;stroke-width:0.5;" x="94.824" xlink:href="#m6e733890b2" y="401.7312"/>
      </g>
     </g>
     <g id="line2d_148">
      <g>
       <use style="stroke:#000000;stroke-width:0.5;" x="438.156" xlink:href="#m008bdeb87b" y="401.7312"/>
      </g>
     </g>
     <g id="text_54">
      <!-- −20 -->
      <g transform="translate(65.498375 405.04245)scale(0.12 -0.12)">
       <use xlink:href="#DejaVuSans-8722"/>
       <use x="83.789062" xlink:href="#DejaVuSans-50"/>
       <use x="147.412109" xlink:href="#DejaVuSans-48"/>
      </g>
     </g>
    </g>
    <g id="ytick_18">
     <g id="line2d_149">
      <path clip-path="url(#p268c64f814)" d="M 94.824 376.9896 
L 438.156 376.9896 
" style="fill:none;stroke:#000000;stroke-dasharray:1,3;stroke-dashoffset:0;stroke-width:0.5;"/>
     </g>
     <g id="line2d_150">
      <g>
       <use style="stroke:#000000;stroke-width:0.5;" x="94.824" xlink:href="#m6e733890b2" y="376.9896"/>
      </g>
     </g>
     <g id="line2d_151">
      <g>
       <use style="stroke:#000000;stroke-width:0.5;" x="438.156" xlink:href="#m008bdeb87b" y="376.9896"/>
      </g>
     </g>
     <g id="text_55">
      <!-- −15 -->
      <g transform="translate(65.498375 380.30085)scale(0.12 -0.12)">
       <use xlink:href="#DejaVuSans-8722"/>
       <use x="83.789062" xlink:href="#DejaVuSans-49"/>
       <use x="147.412109" xlink:href="#DejaVuSans-53"/>
      </g>
     </g>
    </g>
    <g id="ytick_19">
     <g id="line2d_152">
      <path clip-path="url(#p268c64f814)" d="M 94.824 352.248 
L 438.156 352.248 
" style="fill:none;stroke:#000000;stroke-dasharray:1,3;stroke-dashoffset:0;stroke-width:0.5;"/>
     </g>
     <g id="line2d_153">
      <g>
       <use style="stroke:#000000;stroke-width:0.5;" x="94.824" xlink:href="#m6e733890b2" y="352.248"/>
      </g>
     </g>
     <g id="line2d_154">
      <g>
       <use style="stroke:#000000;stroke-width:0.5;" x="438.156" xlink:href="#m008bdeb87b" y="352.248"/>
      </g>
     </g>
     <g id="text_56">
      <!-- −10 -->
      <g transform="translate(65.498375 355.55925)scale(0.12 -0.12)">
       <use xlink:href="#DejaVuSans-8722"/>
       <use x="83.789062" xlink:href="#DejaVuSans-49"/>
       <use x="147.412109" xlink:href="#DejaVuSans-48"/>
      </g>
     </g>
    </g>
    <g id="ytick_20">
     <g id="line2d_155">
      <path clip-path="url(#p268c64f814)" d="M 94.824 327.5064 
L 438.156 327.5064 
" style="fill:none;stroke:#000000;stroke-dasharray:1,3;stroke-dashoffset:0;stroke-width:0.5;"/>
     </g>
     <g id="line2d_156">
      <g>
       <use style="stroke:#000000;stroke-width:0.5;" x="94.824" xlink:href="#m6e733890b2" y="327.5064"/>
      </g>
     </g>
     <g id="line2d_157">
      <g>
       <use style="stroke:#000000;stroke-width:0.5;" x="438.156" xlink:href="#m008bdeb87b" y="327.5064"/>
      </g>
     </g>
     <g id="text_57">
      <!-- −5 -->
      <g transform="translate(73.133375 330.81765)scale(0.12 -0.12)">
       <use xlink:href="#DejaVuSans-8722"/>
       <use x="83.789062" xlink:href="#DejaVuSans-53"/>
      </g>
     </g>
    </g>
    <g id="ytick_21">
     <g id="line2d_158">
      <path clip-path="url(#p268c64f814)" d="M 94.824 302.7648 
L 438.156 302.7648 
" style="fill:none;stroke:#000000;stroke-dasharray:1,3;stroke-dashoffset:0;stroke-width:0.5;"/>
     </g>
     <g id="line2d_159">
      <g>
       <use style="stroke:#000000;stroke-width:0.5;" x="94.824" xlink:href="#m6e733890b2" y="302.7648"/>
      </g>
     </g>
     <g id="line2d_160">
      <g>
       <use style="stroke:#000000;stroke-width:0.5;" x="438.156" xlink:href="#m008bdeb87b" y="302.7648"/>
      </g>
     </g>
     <g id="text_58">
      <!-- 0 -->
      <g transform="translate(83.189 306.07605)scale(0.12 -0.12)">
       <use xlink:href="#DejaVuSans-48"/>
      </g>
     </g>
    </g>
    <g id="ytick_22">
     <g id="line2d_161">
      <path clip-path="url(#p268c64f814)" d="M 94.824 278.0232 
L 438.156 278.0232 
" style="fill:none;stroke:#000000;stroke-dasharray:1,3;stroke-dashoffset:0;stroke-width:0.5;"/>
     </g>
     <g id="line2d_162">
      <g>
       <use style="stroke:#000000;stroke-width:0.5;" x="94.824" xlink:href="#m6e733890b2" y="278.0232"/>
      </g>
     </g>
     <g id="line2d_163">
      <g>
       <use style="stroke:#000000;stroke-width:0.5;" x="438.156" xlink:href="#m008bdeb87b" y="278.0232"/>
      </g>
     </g>
     <g id="text_59">
      <!-- 5 -->
      <g transform="translate(83.189 281.33445)scale(0.12 -0.12)">
       <use xlink:href="#DejaVuSans-53"/>
      </g>
     </g>
    </g>
    <g id="ytick_23">
     <g id="line2d_164">
      <path clip-path="url(#p268c64f814)" d="M 94.824 253.2816 
L 438.156 253.2816 
" style="fill:none;stroke:#000000;stroke-dasharray:1,3;stroke-dashoffset:0;stroke-width:0.5;"/>
     </g>
     <g id="line2d_165">
      <g>
       <use style="stroke:#000000;stroke-width:0.5;" x="94.824" xlink:href="#m6e733890b2" y="253.2816"/>
      </g>
     </g>
     <g id="line2d_166">
      <g>
       <use style="stroke:#000000;stroke-width:0.5;" x="438.156" xlink:href="#m008bdeb87b" y="253.2816"/>
      </g>
     </g>
     <g id="text_60">
      <!-- 10 -->
      <g transform="translate(75.554 256.59285)scale(0.12 -0.12)">
       <use xlink:href="#DejaVuSans-49"/>
       <use x="63.623047" xlink:href="#DejaVuSans-48"/>
      </g>
     </g>
    </g>
    <g id="text_61">
     <!-- Distance correction -->
     <g transform="translate(58.00275 385.795462)rotate(-90)scale(0.12 -0.12)">
      <use xlink:href="#DejaVuSans-68"/>
      <use x="77.001953" xlink:href="#DejaVuSans-105"/>
      <use x="104.785156" xlink:href="#DejaVuSans-115"/>
      <use x="156.884766" xlink:href="#DejaVuSans-116"/>
      <use x="196.09375" xlink:href="#DejaVuSans-97"/>
      <use x="257.373047" xlink:href="#DejaVuSans-110"/>
      <use x="320.751953" xlink:href="#DejaVuSans-99"/>
      <use x="375.732422" xlink:href="#DejaVuSans-101"/>
      <use x="437.255859" xlink:href="#DejaVuSans-32"/>
      <use x="469.042969" xlink:href="#DejaVuSans-99"/>
      <use x="524.023438" xlink:href="#DejaVuSans-111"/>
      <use x="585.205078" xlink:href="#DejaVuSans-114"/>
      <use x="624.568359" xlink:href="#DejaVuSans-114"/>
      <use x="663.431641" xlink:href="#DejaVuSans-101"/>
      <use x="724.955078" xlink:href="#DejaVuSans-99"/>
      <use x="779.935547" xlink:href="#DejaVuSans-116"/>
      <use x="819.144531" xlink:href="#DejaVuSans-105"/>
      <use x="846.927734" xlink:href="#DejaVuSans-111"/>
      <use x="908.109375" xlink:href="#DejaVuSans-110"/>
     </g>
    </g>
   </g>
   <g id="legend_3">
    <g id="patch_19">
     <path d="M 272.916 395.7312 
L 429.756 395.7312 
Q 432.156 395.7312 432.156 393.3312 
L 432.156 376.91745 
Q 432.156 374.51745 429.756 374.51745 
L 272.916 374.51745 
Q 270.516 374.51745 270.516 376.91745 
L 270.516 393.3312 
Q 270.516 395.7312 272.916 395.7312 
z
" style="fill:#ffffff;opacity:0.5;stroke:#000000;stroke-linejoin:miter;"/>
    </g>
    <g id="line2d_167">
     <path d="M 278.916 384.235575 
L 295.716 384.235575 
" style="fill:none;stroke:#2fa19e;stroke-linecap:square;"/>
    </g>
    <g id="line2d_168"/>
    <g id="text_62">
     <!-- SF10, BW 1600 KHz -->
     <g transform="translate(308.916 388.435575)scale(0.12 -0.12)">
      <use xlink:href="#DejaVuSans-83"/>
      <use x="63.476562" xlink:href="#DejaVuSans-70"/>
      <use x="120.996094" xlink:href="#DejaVuSans-49"/>
      <use x="184.619141" xlink:href="#DejaVuSans-48"/>
      <use x="248.242188" xlink:href="#DejaVuSans-44"/>
      <use x="280.029297" xlink:href="#DejaVuSans-32"/>
      <use x="311.816406" xlink:href="#DejaVuSans-66"/>
      <use x="376.794922" xlink:href="#DejaVuSans-87"/>
      <use x="475.671875" xlink:href="#DejaVuSans-32"/>
      <use x="507.458984" xlink:href="#DejaVuSans-49"/>
      <use x="571.082031" xlink:href="#DejaVuSans-54"/>
      <use x="634.705078" xlink:href="#DejaVuSans-48"/>
      <use x="698.328125" xlink:href="#DejaVuSans-48"/>
      <use x="761.951172" xlink:href="#DejaVuSans-32"/>
      <use x="793.738281" xlink:href="#DejaVuSans-75"/>
      <use x="859.314453" xlink:href="#DejaVuSans-72"/>
      <use x="934.509766" xlink:href="#DejaVuSans-122"/>
     </g>
    </g>
   </g>
  </g>
  <g id="text_63">
   <!-- SF10 -->
   <g transform="translate(438.4575 22.662788)scale(0.18 -0.18)">
    <use xlink:href="#DejaVuSans-83"/>
    <use x="63.476562" xlink:href="#DejaVuSans-70"/>
    <use x="120.996094" xlink:href="#DejaVuSans-49"/>
    <use x="184.619141" xlink:href="#DejaVuSans-48"/>
   </g>
  </g>
 </g>
 <defs>
  <clipPath id="p3cc98edc82">
   <rect height="148.4496" width="343.332" x="94.824" y="51.1056"/>
  </clipPath>
  <clipPath id="paeb4cd1a23">
   <rect height="148.4496" width="343.332" x="545.256" y="51.1056"/>
  </clipPath>
  <clipPath id="p268c64f814">
   <rect height="148.4496" width="343.332" x="94.824" y="253.2816"/>
  </clipPath>
 </defs>
</svg>
