<?xml version="1.0" encoding="utf-8" standalone="no"?>
<!DOCTYPE svg PUBLIC "-//W3C//DTD SVG 1.1//EN"
  "http://www.w3.org/Graphics/SVG/1.1/DTD/svg11.dtd">
<!-- Created with matplotlib (https://matplotlib.org/) -->
<svg height="449.28pt" version="1.1" viewBox="0 0 921.6 449.28" width="921.6pt" xmlns="http://www.w3.org/2000/svg" xmlns:xlink="http://www.w3.org/1999/xlink">
 <metadata>
  <rdf:RDF xmlns:cc="http://creativecommons.org/ns#" xmlns:dc="http://purl.org/dc/elements/1.1/" xmlns:rdf="http://www.w3.org/1999/02/22-rdf-syntax-ns#">
   <cc:Work>
    <dc:type rdf:resource="http://purl.org/dc/dcmitype/StillImage"/>
    <dc:date>2021-04-15T16:22:02.815723</dc:date>
    <dc:format>image/svg+xml</dc:format>
    <dc:creator>
     <cc:Agent>
      <dc:title>Matplotlib v3.3.4, https://matplotlib.org/</dc:title>
     </cc:Agent>
    </dc:creator>
   </cc:Work>
  </rdf:RDF>
 </metadata>
 <defs>
  <style type="text/css">*{stroke-linecap:butt;stroke-linejoin:round;}</style>
 </defs>
 <g id="figure_1">
  <g id="patch_1">
   <path d="M 0 449.28 
L 921.6 449.28 
L 921.6 0 
L 0 0 
z
" style="fill:none;"/>
  </g>
  <g id="axes_1">
   <g id="patch_2">
    <path d="M 115.2 208.302545 
L 439.854545 208.302545 
L 439.854545 44.928 
L 115.2 44.928 
z
" style="fill:none;"/>
   </g>
   <g id="line2d_1">
    <path clip-path="url(#p3e8657aa27)" d="M 133.236364 207.042519 
L 208.989091 207.042519 
L 210.792727 169.882979 
L 212.596364 163.456233 
L 214.4 140.594007 
L 216.203636 137.04878 
L 218.007273 114.37954 
L 219.810909 113.326796 
L 221.614545 114.437743 
L 223.418182 111.341795 
L 225.221818 113.503444 
L 227.025455 114.262115 
L 228.829091 117.183456 
L 230.632727 117.29986 
L 232.436364 112.524218 
L 234.24 117.126275 
L 236.043636 117.710339 
L 237.847273 119.345105 
L 239.650909 120.456052 
L 241.454545 119.930191 
L 243.258182 119.169478 
L 245.061818 120.806287 
L 246.865455 120.922691 
L 248.669091 120.456052 
L 250.472727 120.630659 
L 254.08 121.272925 
L 255.883636 120.572457 
L 257.687273 120.688861 
L 259.490909 121.625201 
L 261.294545 121.272925 
L 263.098182 121.156521 
L 266.705455 120.747063 
L 268.509091 121.741606 
L 270.312727 116.832201 
L 272.116364 119.988393 
L 273.92 119.930191 
L 275.723636 119.287924 
L 277.527273 118.352605 
L 279.330909 116.481967 
L 281.134545 103.863325 
L 282.938182 98.838537 
L 284.741818 98.72009 
L 286.545455 94.513196 
L 288.349091 96.324611 
L 293.76 81.075639 
L 297.367273 70.559424 
L 300.974545 73.284716 
L 302.778182 66.432175 
L 304.581818 76.012049 
L 313.6 82.828852 
L 315.403636 68.630583 
L 317.207273 65.767444 
L 319.010909 66.351508 
L 320.814545 66.236125 
L 322.618182 57.834589 
L 324.421818 66.117679 
L 326.225455 63.093207 
L 328.029091 63.695651 
L 329.832727 61.56055 
L 331.636364 62.144614 
L 333.44 61.676954 
L 335.243636 59.515305 
L 337.047273 58.4064 
L 338.850909 48.07296 
L 340.654545 51.511994 
L 342.458182 46.326895 
L 344.261818 57.004442 
L 362.298182 57.004442 
L 364.101818 164.624361 
L 373.12 164.624361 
L 374.923636 137.394929 
L 376.727273 145.311447 
L 378.530909 141.138249 
L 380.334545 135.411971 
L 382.138182 131.673757 
L 383.941818 130.036948 
L 385.745455 130.153353 
L 387.549091 130.737417 
L 389.352727 128.634991 
L 391.156364 130.737417 
L 392.96 131.556332 
L 394.763636 130.737417 
L 396.567273 131.906566 
L 398.370909 130.737417 
L 400.174545 134.244864 
L 401.978182 132.607034 
L 403.781818 133.777204 
L 405.585455 132.840864 
L 409.192727 133.075715 
L 410.996364 133.777204 
L 412.8 131.906566 
L 414.603636 132.840864 
L 416.407273 132.140396 
L 418.210909 132.840864 
L 420.014545 131.906566 
L 420.014545 131.906566 
" style="fill:none;stroke:#2fa19e;stroke-linecap:square;"/>
   </g>
   <g id="patch_3">
    <path d="M 115.2 208.302545 
L 115.2 44.928 
" style="fill:none;stroke:#000000;stroke-linecap:square;stroke-linejoin:miter;"/>
   </g>
   <g id="patch_4">
    <path d="M 439.854545 208.302545 
L 439.854545 44.928 
" style="fill:none;stroke:#000000;stroke-linecap:square;stroke-linejoin:miter;"/>
   </g>
   <g id="patch_5">
    <path d="M 115.2 208.302545 
L 439.854545 208.302545 
" style="fill:none;stroke:#000000;stroke-linecap:square;stroke-linejoin:miter;"/>
   </g>
   <g id="patch_6">
    <path d="M 115.2 44.928 
L 439.854545 44.928 
" style="fill:none;stroke:#000000;stroke-linecap:square;stroke-linejoin:miter;"/>
   </g>
   <g id="matplotlib.axis_1">
    <g id="xtick_1">
     <g id="line2d_2">
      <path clip-path="url(#p3e8657aa27)" d="M 115.2 208.302545 
L 115.2 44.928 
" style="fill:none;stroke:#000000;stroke-dasharray:1,3;stroke-dashoffset:0;stroke-width:0.5;"/>
     </g>
     <g id="line2d_3">
      <defs>
       <path d="M 0 0 
L 0 -4 
" id="m2b9b7271c2" style="stroke:#000000;stroke-width:0.5;"/>
      </defs>
      <g>
       <use style="stroke:#000000;stroke-width:0.5;" x="115.2" xlink:href="#m2b9b7271c2" y="208.302545"/>
      </g>
     </g>
     <g id="line2d_4">
      <defs>
       <path d="M 0 0 
L 0 4 
" id="m0c83e9f629" style="stroke:#000000;stroke-width:0.5;"/>
      </defs>
      <g>
       <use style="stroke:#000000;stroke-width:0.5;" x="115.2" xlink:href="#m0c83e9f629" y="44.928"/>
      </g>
     </g>
     <g id="text_1">
      <!-- −160 -->
      <g transform="translate(98.719687 221.42067)scale(0.12 -0.12)">
       <defs>
        <path d="M 10.59375 35.5 
L 73.1875 35.5 
L 73.1875 27.203125 
L 10.59375 27.203125 
z
" id="DejaVuSans-8722"/>
        <path d="M 12.40625 8.296875 
L 28.515625 8.296875 
L 28.515625 63.921875 
L 10.984375 60.40625 
L 10.984375 69.390625 
L 28.421875 72.90625 
L 38.28125 72.90625 
L 38.28125 8.296875 
L 54.390625 8.296875 
L 54.390625 0 
L 12.40625 0 
z
" id="DejaVuSans-49"/>
        <path d="M 33.015625 40.375 
Q 26.375 40.375 22.484375 35.828125 
Q 18.609375 31.296875 18.609375 23.390625 
Q 18.609375 15.53125 22.484375 10.953125 
Q 26.375 6.390625 33.015625 6.390625 
Q 39.65625 6.390625 43.53125 10.953125 
Q 47.40625 15.53125 47.40625 23.390625 
Q 47.40625 31.296875 43.53125 35.828125 
Q 39.65625 40.375 33.015625 40.375 
z
M 52.59375 71.296875 
L 52.59375 62.3125 
Q 48.875 64.0625 45.09375 64.984375 
Q 41.3125 65.921875 37.59375 65.921875 
Q 27.828125 65.921875 22.671875 59.328125 
Q 17.53125 52.734375 16.796875 39.40625 
Q 19.671875 43.65625 24.015625 45.921875 
Q 28.375 48.1875 33.59375 48.1875 
Q 44.578125 48.1875 50.953125 41.515625 
Q 57.328125 34.859375 57.328125 23.390625 
Q 57.328125 12.15625 50.6875 5.359375 
Q 44.046875 -1.421875 33.015625 -1.421875 
Q 20.359375 -1.421875 13.671875 8.265625 
Q 6.984375 17.96875 6.984375 36.375 
Q 6.984375 53.65625 15.1875 63.9375 
Q 23.390625 74.21875 37.203125 74.21875 
Q 40.921875 74.21875 44.703125 73.484375 
Q 48.484375 72.75 52.59375 71.296875 
z
" id="DejaVuSans-54"/>
        <path d="M 31.78125 66.40625 
Q 24.171875 66.40625 20.328125 58.90625 
Q 16.5 51.421875 16.5 36.375 
Q 16.5 21.390625 20.328125 13.890625 
Q 24.171875 6.390625 31.78125 6.390625 
Q 39.453125 6.390625 43.28125 13.890625 
Q 47.125 21.390625 47.125 36.375 
Q 47.125 51.421875 43.28125 58.90625 
Q 39.453125 66.40625 31.78125 66.40625 
z
M 31.78125 74.21875 
Q 44.046875 74.21875 50.515625 64.515625 
Q 56.984375 54.828125 56.984375 36.375 
Q 56.984375 17.96875 50.515625 8.265625 
Q 44.046875 -1.421875 31.78125 -1.421875 
Q 19.53125 -1.421875 13.0625 8.265625 
Q 6.59375 17.96875 6.59375 36.375 
Q 6.59375 54.828125 13.0625 64.515625 
Q 19.53125 74.21875 31.78125 74.21875 
z
" id="DejaVuSans-48"/>
       </defs>
       <use xlink:href="#DejaVuSans-8722"/>
       <use x="83.789062" xlink:href="#DejaVuSans-49"/>
       <use x="147.412109" xlink:href="#DejaVuSans-54"/>
       <use x="211.035156" xlink:href="#DejaVuSans-48"/>
      </g>
     </g>
    </g>
    <g id="xtick_2">
     <g id="line2d_5">
      <path clip-path="url(#p3e8657aa27)" d="M 151.272727 208.302545 
L 151.272727 44.928 
" style="fill:none;stroke:#000000;stroke-dasharray:1,3;stroke-dashoffset:0;stroke-width:0.5;"/>
     </g>
     <g id="line2d_6">
      <g>
       <use style="stroke:#000000;stroke-width:0.5;" x="151.272727" xlink:href="#m2b9b7271c2" y="208.302545"/>
      </g>
     </g>
     <g id="line2d_7">
      <g>
       <use style="stroke:#000000;stroke-width:0.5;" x="151.272727" xlink:href="#m0c83e9f629" y="44.928"/>
      </g>
     </g>
     <g id="text_2">
      <!-- −140 -->
      <g transform="translate(134.792415 221.42067)scale(0.12 -0.12)">
       <defs>
        <path d="M 37.796875 64.3125 
L 12.890625 25.390625 
L 37.796875 25.390625 
z
M 35.203125 72.90625 
L 47.609375 72.90625 
L 47.609375 25.390625 
L 58.015625 25.390625 
L 58.015625 17.1875 
L 47.609375 17.1875 
L 47.609375 0 
L 37.796875 0 
L 37.796875 17.1875 
L 4.890625 17.1875 
L 4.890625 26.703125 
z
" id="DejaVuSans-52"/>
       </defs>
       <use xlink:href="#DejaVuSans-8722"/>
       <use x="83.789062" xlink:href="#DejaVuSans-49"/>
       <use x="147.412109" xlink:href="#DejaVuSans-52"/>
       <use x="211.035156" xlink:href="#DejaVuSans-48"/>
      </g>
     </g>
    </g>
    <g id="xtick_3">
     <g id="line2d_8">
      <path clip-path="url(#p3e8657aa27)" d="M 187.345455 208.302545 
L 187.345455 44.928 
" style="fill:none;stroke:#000000;stroke-dasharray:1,3;stroke-dashoffset:0;stroke-width:0.5;"/>
     </g>
     <g id="line2d_9">
      <g>
       <use style="stroke:#000000;stroke-width:0.5;" x="187.345455" xlink:href="#m2b9b7271c2" y="208.302545"/>
      </g>
     </g>
     <g id="line2d_10">
      <g>
       <use style="stroke:#000000;stroke-width:0.5;" x="187.345455" xlink:href="#m0c83e9f629" y="44.928"/>
      </g>
     </g>
     <g id="text_3">
      <!-- −120 -->
      <g transform="translate(170.865142 221.42067)scale(0.12 -0.12)">
       <defs>
        <path d="M 19.1875 8.296875 
L 53.609375 8.296875 
L 53.609375 0 
L 7.328125 0 
L 7.328125 8.296875 
Q 12.9375 14.109375 22.625 23.890625 
Q 32.328125 33.6875 34.8125 36.53125 
Q 39.546875 41.84375 41.421875 45.53125 
Q 43.3125 49.21875 43.3125 52.78125 
Q 43.3125 58.59375 39.234375 62.25 
Q 35.15625 65.921875 28.609375 65.921875 
Q 23.96875 65.921875 18.8125 64.3125 
Q 13.671875 62.703125 7.8125 59.421875 
L 7.8125 69.390625 
Q 13.765625 71.78125 18.9375 73 
Q 24.125 74.21875 28.421875 74.21875 
Q 39.75 74.21875 46.484375 68.546875 
Q 53.21875 62.890625 53.21875 53.421875 
Q 53.21875 48.921875 51.53125 44.890625 
Q 49.859375 40.875 45.40625 35.40625 
Q 44.1875 33.984375 37.640625 27.21875 
Q 31.109375 20.453125 19.1875 8.296875 
z
" id="DejaVuSans-50"/>
       </defs>
       <use xlink:href="#DejaVuSans-8722"/>
       <use x="83.789062" xlink:href="#DejaVuSans-49"/>
       <use x="147.412109" xlink:href="#DejaVuSans-50"/>
       <use x="211.035156" xlink:href="#DejaVuSans-48"/>
      </g>
     </g>
    </g>
    <g id="xtick_4">
     <g id="line2d_11">
      <path clip-path="url(#p3e8657aa27)" d="M 223.418182 208.302545 
L 223.418182 44.928 
" style="fill:none;stroke:#000000;stroke-dasharray:1,3;stroke-dashoffset:0;stroke-width:0.5;"/>
     </g>
     <g id="line2d_12">
      <g>
       <use style="stroke:#000000;stroke-width:0.5;" x="223.418182" xlink:href="#m2b9b7271c2" y="208.302545"/>
      </g>
     </g>
     <g id="line2d_13">
      <g>
       <use style="stroke:#000000;stroke-width:0.5;" x="223.418182" xlink:href="#m0c83e9f629" y="44.928"/>
      </g>
     </g>
     <g id="text_4">
      <!-- −100 -->
      <g transform="translate(206.937869 221.42067)scale(0.12 -0.12)">
       <use xlink:href="#DejaVuSans-8722"/>
       <use x="83.789062" xlink:href="#DejaVuSans-49"/>
       <use x="147.412109" xlink:href="#DejaVuSans-48"/>
       <use x="211.035156" xlink:href="#DejaVuSans-48"/>
      </g>
     </g>
    </g>
    <g id="xtick_5">
     <g id="line2d_14">
      <path clip-path="url(#p3e8657aa27)" d="M 259.490909 208.302545 
L 259.490909 44.928 
" style="fill:none;stroke:#000000;stroke-dasharray:1,3;stroke-dashoffset:0;stroke-width:0.5;"/>
     </g>
     <g id="line2d_15">
      <g>
       <use style="stroke:#000000;stroke-width:0.5;" x="259.490909" xlink:href="#m2b9b7271c2" y="208.302545"/>
      </g>
     </g>
     <g id="line2d_16">
      <g>
       <use style="stroke:#000000;stroke-width:0.5;" x="259.490909" xlink:href="#m0c83e9f629" y="44.928"/>
      </g>
     </g>
     <g id="text_5">
      <!-- −80 -->
      <g transform="translate(246.828097 221.42067)scale(0.12 -0.12)">
       <defs>
        <path d="M 31.78125 34.625 
Q 24.75 34.625 20.71875 30.859375 
Q 16.703125 27.09375 16.703125 20.515625 
Q 16.703125 13.921875 20.71875 10.15625 
Q 24.75 6.390625 31.78125 6.390625 
Q 38.8125 6.390625 42.859375 10.171875 
Q 46.921875 13.96875 46.921875 20.515625 
Q 46.921875 27.09375 42.890625 30.859375 
Q 38.875 34.625 31.78125 34.625 
z
M 21.921875 38.8125 
Q 15.578125 40.375 12.03125 44.71875 
Q 8.5 49.078125 8.5 55.328125 
Q 8.5 64.0625 14.71875 69.140625 
Q 20.953125 74.21875 31.78125 74.21875 
Q 42.671875 74.21875 48.875 69.140625 
Q 55.078125 64.0625 55.078125 55.328125 
Q 55.078125 49.078125 51.53125 44.71875 
Q 48 40.375 41.703125 38.8125 
Q 48.828125 37.15625 52.796875 32.3125 
Q 56.78125 27.484375 56.78125 20.515625 
Q 56.78125 9.90625 50.3125 4.234375 
Q 43.84375 -1.421875 31.78125 -1.421875 
Q 19.734375 -1.421875 13.25 4.234375 
Q 6.78125 9.90625 6.78125 20.515625 
Q 6.78125 27.484375 10.78125 32.3125 
Q 14.796875 37.15625 21.921875 38.8125 
z
M 18.3125 54.390625 
Q 18.3125 48.734375 21.84375 45.5625 
Q 25.390625 42.390625 31.78125 42.390625 
Q 38.140625 42.390625 41.71875 45.5625 
Q 45.3125 48.734375 45.3125 54.390625 
Q 45.3125 60.0625 41.71875 63.234375 
Q 38.140625 66.40625 31.78125 66.40625 
Q 25.390625 66.40625 21.84375 63.234375 
Q 18.3125 60.0625 18.3125 54.390625 
z
" id="DejaVuSans-56"/>
       </defs>
       <use xlink:href="#DejaVuSans-8722"/>
       <use x="83.789062" xlink:href="#DejaVuSans-56"/>
       <use x="147.412109" xlink:href="#DejaVuSans-48"/>
      </g>
     </g>
    </g>
    <g id="xtick_6">
     <g id="line2d_17">
      <path clip-path="url(#p3e8657aa27)" d="M 295.563636 208.302545 
L 295.563636 44.928 
" style="fill:none;stroke:#000000;stroke-dasharray:1,3;stroke-dashoffset:0;stroke-width:0.5;"/>
     </g>
     <g id="line2d_18">
      <g>
       <use style="stroke:#000000;stroke-width:0.5;" x="295.563636" xlink:href="#m2b9b7271c2" y="208.302545"/>
      </g>
     </g>
     <g id="line2d_19">
      <g>
       <use style="stroke:#000000;stroke-width:0.5;" x="295.563636" xlink:href="#m0c83e9f629" y="44.928"/>
      </g>
     </g>
     <g id="text_6">
      <!-- −60 -->
      <g transform="translate(282.900824 221.42067)scale(0.12 -0.12)">
       <use xlink:href="#DejaVuSans-8722"/>
       <use x="83.789062" xlink:href="#DejaVuSans-54"/>
       <use x="147.412109" xlink:href="#DejaVuSans-48"/>
      </g>
     </g>
    </g>
    <g id="xtick_7">
     <g id="line2d_20">
      <path clip-path="url(#p3e8657aa27)" d="M 331.636364 208.302545 
L 331.636364 44.928 
" style="fill:none;stroke:#000000;stroke-dasharray:1,3;stroke-dashoffset:0;stroke-width:0.5;"/>
     </g>
     <g id="line2d_21">
      <g>
       <use style="stroke:#000000;stroke-width:0.5;" x="331.636364" xlink:href="#m2b9b7271c2" y="208.302545"/>
      </g>
     </g>
     <g id="line2d_22">
      <g>
       <use style="stroke:#000000;stroke-width:0.5;" x="331.636364" xlink:href="#m0c83e9f629" y="44.928"/>
      </g>
     </g>
     <g id="text_7">
      <!-- −40 -->
      <g transform="translate(318.973551 221.42067)scale(0.12 -0.12)">
       <use xlink:href="#DejaVuSans-8722"/>
       <use x="83.789062" xlink:href="#DejaVuSans-52"/>
       <use x="147.412109" xlink:href="#DejaVuSans-48"/>
      </g>
     </g>
    </g>
    <g id="xtick_8">
     <g id="line2d_23">
      <path clip-path="url(#p3e8657aa27)" d="M 367.709091 208.302545 
L 367.709091 44.928 
" style="fill:none;stroke:#000000;stroke-dasharray:1,3;stroke-dashoffset:0;stroke-width:0.5;"/>
     </g>
     <g id="line2d_24">
      <g>
       <use style="stroke:#000000;stroke-width:0.5;" x="367.709091" xlink:href="#m2b9b7271c2" y="208.302545"/>
      </g>
     </g>
     <g id="line2d_25">
      <g>
       <use style="stroke:#000000;stroke-width:0.5;" x="367.709091" xlink:href="#m0c83e9f629" y="44.928"/>
      </g>
     </g>
     <g id="text_8">
      <!-- −20 -->
      <g transform="translate(355.046278 221.42067)scale(0.12 -0.12)">
       <use xlink:href="#DejaVuSans-8722"/>
       <use x="83.789062" xlink:href="#DejaVuSans-50"/>
       <use x="147.412109" xlink:href="#DejaVuSans-48"/>
      </g>
     </g>
    </g>
    <g id="xtick_9">
     <g id="line2d_26">
      <path clip-path="url(#p3e8657aa27)" d="M 403.781818 208.302545 
L 403.781818 44.928 
" style="fill:none;stroke:#000000;stroke-dasharray:1,3;stroke-dashoffset:0;stroke-width:0.5;"/>
     </g>
     <g id="line2d_27">
      <g>
       <use style="stroke:#000000;stroke-width:0.5;" x="403.781818" xlink:href="#m2b9b7271c2" y="208.302545"/>
      </g>
     </g>
     <g id="line2d_28">
      <g>
       <use style="stroke:#000000;stroke-width:0.5;" x="403.781818" xlink:href="#m0c83e9f629" y="44.928"/>
      </g>
     </g>
     <g id="text_9">
      <!-- 0 -->
      <g transform="translate(399.964318 221.42067)scale(0.12 -0.12)">
       <use xlink:href="#DejaVuSans-48"/>
      </g>
     </g>
    </g>
    <g id="xtick_10">
     <g id="line2d_29">
      <path clip-path="url(#p3e8657aa27)" d="M 439.854545 208.302545 
L 439.854545 44.928 
" style="fill:none;stroke:#000000;stroke-dasharray:1,3;stroke-dashoffset:0;stroke-width:0.5;"/>
     </g>
     <g id="line2d_30">
      <g>
       <use style="stroke:#000000;stroke-width:0.5;" x="439.854545" xlink:href="#m2b9b7271c2" y="208.302545"/>
      </g>
     </g>
     <g id="line2d_31">
      <g>
       <use style="stroke:#000000;stroke-width:0.5;" x="439.854545" xlink:href="#m0c83e9f629" y="44.928"/>
      </g>
     </g>
     <g id="text_10">
      <!-- 20 -->
      <g transform="translate(432.219545 221.42067)scale(0.12 -0.12)">
       <use xlink:href="#DejaVuSans-50"/>
       <use x="63.623047" xlink:href="#DejaVuSans-48"/>
      </g>
     </g>
    </g>
    <g id="text_11">
     <!-- Ranging RSSI -->
     <g transform="translate(237.462273 238.03442)scale(0.12 -0.12)">
      <defs>
       <path d="M 44.390625 34.1875 
Q 47.5625 33.109375 50.5625 29.59375 
Q 53.5625 26.078125 56.59375 19.921875 
L 66.609375 0 
L 56 0 
L 46.6875 18.703125 
Q 43.0625 26.03125 39.671875 28.421875 
Q 36.28125 30.8125 30.421875 30.8125 
L 19.671875 30.8125 
L 19.671875 0 
L 9.8125 0 
L 9.8125 72.90625 
L 32.078125 72.90625 
Q 44.578125 72.90625 50.734375 67.671875 
Q 56.890625 62.453125 56.890625 51.90625 
Q 56.890625 45.015625 53.6875 40.46875 
Q 50.484375 35.9375 44.390625 34.1875 
z
M 19.671875 64.796875 
L 19.671875 38.921875 
L 32.078125 38.921875 
Q 39.203125 38.921875 42.84375 42.21875 
Q 46.484375 45.515625 46.484375 51.90625 
Q 46.484375 58.296875 42.84375 61.546875 
Q 39.203125 64.796875 32.078125 64.796875 
z
" id="DejaVuSans-82"/>
       <path d="M 34.28125 27.484375 
Q 23.390625 27.484375 19.1875 25 
Q 14.984375 22.515625 14.984375 16.5 
Q 14.984375 11.71875 18.140625 8.90625 
Q 21.296875 6.109375 26.703125 6.109375 
Q 34.1875 6.109375 38.703125 11.40625 
Q 43.21875 16.703125 43.21875 25.484375 
L 43.21875 27.484375 
z
M 52.203125 31.203125 
L 52.203125 0 
L 43.21875 0 
L 43.21875 8.296875 
Q 40.140625 3.328125 35.546875 0.953125 
Q 30.953125 -1.421875 24.3125 -1.421875 
Q 15.921875 -1.421875 10.953125 3.296875 
Q 6 8.015625 6 15.921875 
Q 6 25.140625 12.171875 29.828125 
Q 18.359375 34.515625 30.609375 34.515625 
L 43.21875 34.515625 
L 43.21875 35.40625 
Q 43.21875 41.609375 39.140625 45 
Q 35.0625 48.390625 27.6875 48.390625 
Q 23 48.390625 18.546875 47.265625 
Q 14.109375 46.140625 10.015625 43.890625 
L 10.015625 52.203125 
Q 14.9375 54.109375 19.578125 55.046875 
Q 24.21875 56 28.609375 56 
Q 40.484375 56 46.34375 49.84375 
Q 52.203125 43.703125 52.203125 31.203125 
z
" id="DejaVuSans-97"/>
       <path d="M 54.890625 33.015625 
L 54.890625 0 
L 45.90625 0 
L 45.90625 32.71875 
Q 45.90625 40.484375 42.875 44.328125 
Q 39.84375 48.1875 33.796875 48.1875 
Q 26.515625 48.1875 22.3125 43.546875 
Q 18.109375 38.921875 18.109375 30.90625 
L 18.109375 0 
L 9.078125 0 
L 9.078125 54.6875 
L 18.109375 54.6875 
L 18.109375 46.1875 
Q 21.34375 51.125 25.703125 53.5625 
Q 30.078125 56 35.796875 56 
Q 45.21875 56 50.046875 50.171875 
Q 54.890625 44.34375 54.890625 33.015625 
z
" id="DejaVuSans-110"/>
       <path d="M 45.40625 27.984375 
Q 45.40625 37.75 41.375 43.109375 
Q 37.359375 48.484375 30.078125 48.484375 
Q 22.859375 48.484375 18.828125 43.109375 
Q 14.796875 37.75 14.796875 27.984375 
Q 14.796875 18.265625 18.828125 12.890625 
Q 22.859375 7.515625 30.078125 7.515625 
Q 37.359375 7.515625 41.375 12.890625 
Q 45.40625 18.265625 45.40625 27.984375 
z
M 54.390625 6.78125 
Q 54.390625 -7.171875 48.1875 -13.984375 
Q 42 -20.796875 29.203125 -20.796875 
Q 24.46875 -20.796875 20.265625 -20.09375 
Q 16.0625 -19.390625 12.109375 -17.921875 
L 12.109375 -9.1875 
Q 16.0625 -11.328125 19.921875 -12.34375 
Q 23.78125 -13.375 27.78125 -13.375 
Q 36.625 -13.375 41.015625 -8.765625 
Q 45.40625 -4.15625 45.40625 5.171875 
L 45.40625 9.625 
Q 42.625 4.78125 38.28125 2.390625 
Q 33.9375 0 27.875 0 
Q 17.828125 0 11.671875 7.65625 
Q 5.515625 15.328125 5.515625 27.984375 
Q 5.515625 40.671875 11.671875 48.328125 
Q 17.828125 56 27.875 56 
Q 33.9375 56 38.28125 53.609375 
Q 42.625 51.21875 45.40625 46.390625 
L 45.40625 54.6875 
L 54.390625 54.6875 
z
" id="DejaVuSans-103"/>
       <path d="M 9.421875 54.6875 
L 18.40625 54.6875 
L 18.40625 0 
L 9.421875 0 
z
M 9.421875 75.984375 
L 18.40625 75.984375 
L 18.40625 64.59375 
L 9.421875 64.59375 
z
" id="DejaVuSans-105"/>
       <path id="DejaVuSans-32"/>
       <path d="M 53.515625 70.515625 
L 53.515625 60.890625 
Q 47.90625 63.578125 42.921875 64.890625 
Q 37.9375 66.21875 33.296875 66.21875 
Q 25.25 66.21875 20.875 63.09375 
Q 16.5 59.96875 16.5 54.203125 
Q 16.5 49.359375 19.40625 46.890625 
Q 22.3125 44.4375 30.421875 42.921875 
L 36.375 41.703125 
Q 47.40625 39.59375 52.65625 34.296875 
Q 57.90625 29 57.90625 20.125 
Q 57.90625 9.515625 50.796875 4.046875 
Q 43.703125 -1.421875 29.984375 -1.421875 
Q 24.8125 -1.421875 18.96875 -0.25 
Q 13.140625 0.921875 6.890625 3.21875 
L 6.890625 13.375 
Q 12.890625 10.015625 18.65625 8.296875 
Q 24.421875 6.59375 29.984375 6.59375 
Q 38.421875 6.59375 43.015625 9.90625 
Q 47.609375 13.234375 47.609375 19.390625 
Q 47.609375 24.75 44.3125 27.78125 
Q 41.015625 30.8125 33.5 32.328125 
L 27.484375 33.5 
Q 16.453125 35.6875 11.515625 40.375 
Q 6.59375 45.0625 6.59375 53.421875 
Q 6.59375 63.09375 13.40625 68.65625 
Q 20.21875 74.21875 32.171875 74.21875 
Q 37.3125 74.21875 42.625 73.28125 
Q 47.953125 72.359375 53.515625 70.515625 
z
" id="DejaVuSans-83"/>
       <path d="M 9.8125 72.90625 
L 19.671875 72.90625 
L 19.671875 0 
L 9.8125 0 
z
" id="DejaVuSans-73"/>
      </defs>
      <use xlink:href="#DejaVuSans-82"/>
      <use x="67.232422" xlink:href="#DejaVuSans-97"/>
      <use x="128.511719" xlink:href="#DejaVuSans-110"/>
      <use x="191.890625" xlink:href="#DejaVuSans-103"/>
      <use x="255.367188" xlink:href="#DejaVuSans-105"/>
      <use x="283.150391" xlink:href="#DejaVuSans-110"/>
      <use x="346.529297" xlink:href="#DejaVuSans-103"/>
      <use x="410.005859" xlink:href="#DejaVuSans-32"/>
      <use x="441.792969" xlink:href="#DejaVuSans-82"/>
      <use x="511.275391" xlink:href="#DejaVuSans-83"/>
      <use x="574.751953" xlink:href="#DejaVuSans-83"/>
      <use x="638.228516" xlink:href="#DejaVuSans-73"/>
     </g>
    </g>
   </g>
   <g id="matplotlib.axis_2">
    <g id="ytick_1">
     <g id="line2d_32">
      <path clip-path="url(#p3e8657aa27)" d="M 115.2 208.302545 
L 439.854545 208.302545 
" style="fill:none;stroke:#000000;stroke-dasharray:1,3;stroke-dashoffset:0;stroke-width:0.5;"/>
     </g>
     <g id="line2d_33">
      <defs>
       <path d="M 0 0 
L 4 0 
" id="md183b7b0ab" style="stroke:#000000;stroke-width:0.5;"/>
      </defs>
      <g>
       <use style="stroke:#000000;stroke-width:0.5;" x="115.2" xlink:href="#md183b7b0ab" y="208.302545"/>
      </g>
     </g>
     <g id="line2d_34">
      <defs>
       <path d="M 0 0 
L -4 0 
" id="m1c7e04639e" style="stroke:#000000;stroke-width:0.5;"/>
      </defs>
      <g>
       <use style="stroke:#000000;stroke-width:0.5;" x="439.854545" xlink:href="#m1c7e04639e" y="208.302545"/>
      </g>
     </g>
     <g id="text_12">
      <!-- −6 -->
      <g transform="translate(93.509375 211.613795)scale(0.12 -0.12)">
       <use xlink:href="#DejaVuSans-8722"/>
       <use x="83.789062" xlink:href="#DejaVuSans-54"/>
      </g>
     </g>
    </g>
    <g id="ytick_2">
     <g id="line2d_35">
      <path clip-path="url(#p3e8657aa27)" d="M 115.2 187.880727 
L 439.854545 187.880727 
" style="fill:none;stroke:#000000;stroke-dasharray:1,3;stroke-dashoffset:0;stroke-width:0.5;"/>
     </g>
     <g id="line2d_36">
      <g>
       <use style="stroke:#000000;stroke-width:0.5;" x="115.2" xlink:href="#md183b7b0ab" y="187.880727"/>
      </g>
     </g>
     <g id="line2d_37">
      <g>
       <use style="stroke:#000000;stroke-width:0.5;" x="439.854545" xlink:href="#m1c7e04639e" y="187.880727"/>
      </g>
     </g>
     <g id="text_13">
      <!-- −4 -->
      <g transform="translate(93.509375 191.191977)scale(0.12 -0.12)">
       <use xlink:href="#DejaVuSans-8722"/>
       <use x="83.789062" xlink:href="#DejaVuSans-52"/>
      </g>
     </g>
    </g>
    <g id="ytick_3">
     <g id="line2d_38">
      <path clip-path="url(#p3e8657aa27)" d="M 115.2 167.458909 
L 439.854545 167.458909 
" style="fill:none;stroke:#000000;stroke-dasharray:1,3;stroke-dashoffset:0;stroke-width:0.5;"/>
     </g>
     <g id="line2d_39">
      <g>
       <use style="stroke:#000000;stroke-width:0.5;" x="115.2" xlink:href="#md183b7b0ab" y="167.458909"/>
      </g>
     </g>
     <g id="line2d_40">
      <g>
       <use style="stroke:#000000;stroke-width:0.5;" x="439.854545" xlink:href="#m1c7e04639e" y="167.458909"/>
      </g>
     </g>
     <g id="text_14">
      <!-- −2 -->
      <g transform="translate(93.509375 170.770159)scale(0.12 -0.12)">
       <use xlink:href="#DejaVuSans-8722"/>
       <use x="83.789062" xlink:href="#DejaVuSans-50"/>
      </g>
     </g>
    </g>
    <g id="ytick_4">
     <g id="line2d_41">
      <path clip-path="url(#p3e8657aa27)" d="M 115.2 147.037091 
L 439.854545 147.037091 
" style="fill:none;stroke:#000000;stroke-dasharray:1,3;stroke-dashoffset:0;stroke-width:0.5;"/>
     </g>
     <g id="line2d_42">
      <g>
       <use style="stroke:#000000;stroke-width:0.5;" x="115.2" xlink:href="#md183b7b0ab" y="147.037091"/>
      </g>
     </g>
     <g id="line2d_43">
      <g>
       <use style="stroke:#000000;stroke-width:0.5;" x="439.854545" xlink:href="#m1c7e04639e" y="147.037091"/>
      </g>
     </g>
     <g id="text_15">
      <!-- 0 -->
      <g transform="translate(103.565 150.348341)scale(0.12 -0.12)">
       <use xlink:href="#DejaVuSans-48"/>
      </g>
     </g>
    </g>
    <g id="ytick_5">
     <g id="line2d_44">
      <path clip-path="url(#p3e8657aa27)" d="M 115.2 126.615273 
L 439.854545 126.615273 
" style="fill:none;stroke:#000000;stroke-dasharray:1,3;stroke-dashoffset:0;stroke-width:0.5;"/>
     </g>
     <g id="line2d_45">
      <g>
       <use style="stroke:#000000;stroke-width:0.5;" x="115.2" xlink:href="#md183b7b0ab" y="126.615273"/>
      </g>
     </g>
     <g id="line2d_46">
      <g>
       <use style="stroke:#000000;stroke-width:0.5;" x="439.854545" xlink:href="#m1c7e04639e" y="126.615273"/>
      </g>
     </g>
     <g id="text_16">
      <!-- 2 -->
      <g transform="translate(103.565 129.926523)scale(0.12 -0.12)">
       <use xlink:href="#DejaVuSans-50"/>
      </g>
     </g>
    </g>
    <g id="ytick_6">
     <g id="line2d_47">
      <path clip-path="url(#p3e8657aa27)" d="M 115.2 106.193455 
L 439.854545 106.193455 
" style="fill:none;stroke:#000000;stroke-dasharray:1,3;stroke-dashoffset:0;stroke-width:0.5;"/>
     </g>
     <g id="line2d_48">
      <g>
       <use style="stroke:#000000;stroke-width:0.5;" x="115.2" xlink:href="#md183b7b0ab" y="106.193455"/>
      </g>
     </g>
     <g id="line2d_49">
      <g>
       <use style="stroke:#000000;stroke-width:0.5;" x="439.854545" xlink:href="#m1c7e04639e" y="106.193455"/>
      </g>
     </g>
     <g id="text_17">
      <!-- 4 -->
      <g transform="translate(103.565 109.504705)scale(0.12 -0.12)">
       <use xlink:href="#DejaVuSans-52"/>
      </g>
     </g>
    </g>
    <g id="ytick_7">
     <g id="line2d_50">
      <path clip-path="url(#p3e8657aa27)" d="M 115.2 85.771636 
L 439.854545 85.771636 
" style="fill:none;stroke:#000000;stroke-dasharray:1,3;stroke-dashoffset:0;stroke-width:0.5;"/>
     </g>
     <g id="line2d_51">
      <g>
       <use style="stroke:#000000;stroke-width:0.5;" x="115.2" xlink:href="#md183b7b0ab" y="85.771636"/>
      </g>
     </g>
     <g id="line2d_52">
      <g>
       <use style="stroke:#000000;stroke-width:0.5;" x="439.854545" xlink:href="#m1c7e04639e" y="85.771636"/>
      </g>
     </g>
     <g id="text_18">
      <!-- 6 -->
      <g transform="translate(103.565 89.082886)scale(0.12 -0.12)">
       <use xlink:href="#DejaVuSans-54"/>
      </g>
     </g>
    </g>
    <g id="ytick_8">
     <g id="line2d_53">
      <path clip-path="url(#p3e8657aa27)" d="M 115.2 65.349818 
L 439.854545 65.349818 
" style="fill:none;stroke:#000000;stroke-dasharray:1,3;stroke-dashoffset:0;stroke-width:0.5;"/>
     </g>
     <g id="line2d_54">
      <g>
       <use style="stroke:#000000;stroke-width:0.5;" x="115.2" xlink:href="#md183b7b0ab" y="65.349818"/>
      </g>
     </g>
     <g id="line2d_55">
      <g>
       <use style="stroke:#000000;stroke-width:0.5;" x="439.854545" xlink:href="#m1c7e04639e" y="65.349818"/>
      </g>
     </g>
     <g id="text_19">
      <!-- 8 -->
      <g transform="translate(103.565 68.661068)scale(0.12 -0.12)">
       <use xlink:href="#DejaVuSans-56"/>
      </g>
     </g>
    </g>
    <g id="ytick_9">
     <g id="line2d_56">
      <path clip-path="url(#p3e8657aa27)" d="M 115.2 44.928 
L 439.854545 44.928 
" style="fill:none;stroke:#000000;stroke-dasharray:1,3;stroke-dashoffset:0;stroke-width:0.5;"/>
     </g>
     <g id="line2d_57">
      <g>
       <use style="stroke:#000000;stroke-width:0.5;" x="115.2" xlink:href="#md183b7b0ab" y="44.928"/>
      </g>
     </g>
     <g id="line2d_58">
      <g>
       <use style="stroke:#000000;stroke-width:0.5;" x="439.854545" xlink:href="#m1c7e04639e" y="44.928"/>
      </g>
     </g>
     <g id="text_20">
      <!-- 10 -->
      <g transform="translate(95.93 48.23925)scale(0.12 -0.12)">
       <use xlink:href="#DejaVuSans-49"/>
       <use x="63.623047" xlink:href="#DejaVuSans-48"/>
      </g>
     </g>
    </g>
    <g id="text_21">
     <!-- Distance correction -->
     <g transform="translate(86.01375 184.904335)rotate(-90)scale(0.12 -0.12)">
      <defs>
       <path d="M 19.671875 64.796875 
L 19.671875 8.109375 
L 31.59375 8.109375 
Q 46.6875 8.109375 53.6875 14.9375 
Q 60.6875 21.78125 60.6875 36.53125 
Q 60.6875 51.171875 53.6875 57.984375 
Q 46.6875 64.796875 31.59375 64.796875 
z
M 9.8125 72.90625 
L 30.078125 72.90625 
Q 51.265625 72.90625 61.171875 64.09375 
Q 71.09375 55.28125 71.09375 36.53125 
Q 71.09375 17.671875 61.125 8.828125 
Q 51.171875 0 30.078125 0 
L 9.8125 0 
z
" id="DejaVuSans-68"/>
       <path d="M 44.28125 53.078125 
L 44.28125 44.578125 
Q 40.484375 46.53125 36.375 47.5 
Q 32.28125 48.484375 27.875 48.484375 
Q 21.1875 48.484375 17.84375 46.4375 
Q 14.5 44.390625 14.5 40.28125 
Q 14.5 37.15625 16.890625 35.375 
Q 19.28125 33.59375 26.515625 31.984375 
L 29.59375 31.296875 
Q 39.15625 29.25 43.1875 25.515625 
Q 47.21875 21.78125 47.21875 15.09375 
Q 47.21875 7.46875 41.1875 3.015625 
Q 35.15625 -1.421875 24.609375 -1.421875 
Q 20.21875 -1.421875 15.453125 -0.5625 
Q 10.6875 0.296875 5.421875 2 
L 5.421875 11.28125 
Q 10.40625 8.6875 15.234375 7.390625 
Q 20.0625 6.109375 24.8125 6.109375 
Q 31.15625 6.109375 34.5625 8.28125 
Q 37.984375 10.453125 37.984375 14.40625 
Q 37.984375 18.0625 35.515625 20.015625 
Q 33.0625 21.96875 24.703125 23.78125 
L 21.578125 24.515625 
Q 13.234375 26.265625 9.515625 29.90625 
Q 5.8125 33.546875 5.8125 39.890625 
Q 5.8125 47.609375 11.28125 51.796875 
Q 16.75 56 26.8125 56 
Q 31.78125 56 36.171875 55.265625 
Q 40.578125 54.546875 44.28125 53.078125 
z
" id="DejaVuSans-115"/>
       <path d="M 18.3125 70.21875 
L 18.3125 54.6875 
L 36.8125 54.6875 
L 36.8125 47.703125 
L 18.3125 47.703125 
L 18.3125 18.015625 
Q 18.3125 11.328125 20.140625 9.421875 
Q 21.96875 7.515625 27.59375 7.515625 
L 36.8125 7.515625 
L 36.8125 0 
L 27.59375 0 
Q 17.1875 0 13.234375 3.875 
Q 9.28125 7.765625 9.28125 18.015625 
L 9.28125 47.703125 
L 2.6875 47.703125 
L 2.6875 54.6875 
L 9.28125 54.6875 
L 9.28125 70.21875 
z
" id="DejaVuSans-116"/>
       <path d="M 48.78125 52.59375 
L 48.78125 44.1875 
Q 44.96875 46.296875 41.140625 47.34375 
Q 37.3125 48.390625 33.40625 48.390625 
Q 24.65625 48.390625 19.8125 42.84375 
Q 14.984375 37.3125 14.984375 27.296875 
Q 14.984375 17.28125 19.8125 11.734375 
Q 24.65625 6.203125 33.40625 6.203125 
Q 37.3125 6.203125 41.140625 7.25 
Q 44.96875 8.296875 48.78125 10.40625 
L 48.78125 2.09375 
Q 45.015625 0.34375 40.984375 -0.53125 
Q 36.96875 -1.421875 32.421875 -1.421875 
Q 20.0625 -1.421875 12.78125 6.34375 
Q 5.515625 14.109375 5.515625 27.296875 
Q 5.515625 40.671875 12.859375 48.328125 
Q 20.21875 56 33.015625 56 
Q 37.15625 56 41.109375 55.140625 
Q 45.0625 54.296875 48.78125 52.59375 
z
" id="DejaVuSans-99"/>
       <path d="M 56.203125 29.59375 
L 56.203125 25.203125 
L 14.890625 25.203125 
Q 15.484375 15.921875 20.484375 11.0625 
Q 25.484375 6.203125 34.421875 6.203125 
Q 39.59375 6.203125 44.453125 7.46875 
Q 49.3125 8.734375 54.109375 11.28125 
L 54.109375 2.78125 
Q 49.265625 0.734375 44.1875 -0.34375 
Q 39.109375 -1.421875 33.890625 -1.421875 
Q 20.796875 -1.421875 13.15625 6.1875 
Q 5.515625 13.8125 5.515625 26.8125 
Q 5.515625 40.234375 12.765625 48.109375 
Q 20.015625 56 32.328125 56 
Q 43.359375 56 49.78125 48.890625 
Q 56.203125 41.796875 56.203125 29.59375 
z
M 47.21875 32.234375 
Q 47.125 39.59375 43.09375 43.984375 
Q 39.0625 48.390625 32.421875 48.390625 
Q 24.90625 48.390625 20.390625 44.140625 
Q 15.875 39.890625 15.1875 32.171875 
z
" id="DejaVuSans-101"/>
       <path d="M 30.609375 48.390625 
Q 23.390625 48.390625 19.1875 42.75 
Q 14.984375 37.109375 14.984375 27.296875 
Q 14.984375 17.484375 19.15625 11.84375 
Q 23.34375 6.203125 30.609375 6.203125 
Q 37.796875 6.203125 41.984375 11.859375 
Q 46.1875 17.53125 46.1875 27.296875 
Q 46.1875 37.015625 41.984375 42.703125 
Q 37.796875 48.390625 30.609375 48.390625 
z
M 30.609375 56 
Q 42.328125 56 49.015625 48.375 
Q 55.71875 40.765625 55.71875 27.296875 
Q 55.71875 13.875 49.015625 6.21875 
Q 42.328125 -1.421875 30.609375 -1.421875 
Q 18.84375 -1.421875 12.171875 6.21875 
Q 5.515625 13.875 5.515625 27.296875 
Q 5.515625 40.765625 12.171875 48.375 
Q 18.84375 56 30.609375 56 
z
" id="DejaVuSans-111"/>
       <path d="M 41.109375 46.296875 
Q 39.59375 47.171875 37.8125 47.578125 
Q 36.03125 48 33.890625 48 
Q 26.265625 48 22.1875 43.046875 
Q 18.109375 38.09375 18.109375 28.8125 
L 18.109375 0 
L 9.078125 0 
L 9.078125 54.6875 
L 18.109375 54.6875 
L 18.109375 46.1875 
Q 20.953125 51.171875 25.484375 53.578125 
Q 30.03125 56 36.53125 56 
Q 37.453125 56 38.578125 55.875 
Q 39.703125 55.765625 41.0625 55.515625 
z
" id="DejaVuSans-114"/>
      </defs>
      <use xlink:href="#DejaVuSans-68"/>
      <use x="77.001953" xlink:href="#DejaVuSans-105"/>
      <use x="104.785156" xlink:href="#DejaVuSans-115"/>
      <use x="156.884766" xlink:href="#DejaVuSans-116"/>
      <use x="196.09375" xlink:href="#DejaVuSans-97"/>
      <use x="257.373047" xlink:href="#DejaVuSans-110"/>
      <use x="320.751953" xlink:href="#DejaVuSans-99"/>
      <use x="375.732422" xlink:href="#DejaVuSans-101"/>
      <use x="437.255859" xlink:href="#DejaVuSans-32"/>
      <use x="469.042969" xlink:href="#DejaVuSans-99"/>
      <use x="524.023438" xlink:href="#DejaVuSans-111"/>
      <use x="585.205078" xlink:href="#DejaVuSans-114"/>
      <use x="624.568359" xlink:href="#DejaVuSans-114"/>
      <use x="663.431641" xlink:href="#DejaVuSans-101"/>
      <use x="724.955078" xlink:href="#DejaVuSans-99"/>
      <use x="779.935547" xlink:href="#DejaVuSans-116"/>
      <use x="819.144531" xlink:href="#DejaVuSans-105"/>
      <use x="846.927734" xlink:href="#DejaVuSans-111"/>
      <use x="908.109375" xlink:href="#DejaVuSans-110"/>
     </g>
    </g>
   </g>
   <g id="legend_1">
    <g id="patch_7">
     <path d="M 289.884545 202.302545 
L 431.454545 202.302545 
Q 433.854545 202.302545 433.854545 199.902545 
L 433.854545 183.488795 
Q 433.854545 181.088795 431.454545 181.088795 
L 289.884545 181.088795 
Q 287.484545 181.088795 287.484545 183.488795 
L 287.484545 199.902545 
Q 287.484545 202.302545 289.884545 202.302545 
z
" style="fill:#ffffff;opacity:0.5;stroke:#000000;stroke-linejoin:miter;"/>
    </g>
    <g id="line2d_59">
     <path d="M 295.884545 190.80692 
L 312.684545 190.80692 
" style="fill:none;stroke:#2fa19e;stroke-linecap:square;"/>
    </g>
    <g id="line2d_60"/>
    <g id="text_22">
     <!-- SF8, BW 400 KHz -->
     <g transform="translate(325.884545 195.00692)scale(0.12 -0.12)">
      <defs>
       <path d="M 9.8125 72.90625 
L 51.703125 72.90625 
L 51.703125 64.59375 
L 19.671875 64.59375 
L 19.671875 43.109375 
L 48.578125 43.109375 
L 48.578125 34.8125 
L 19.671875 34.8125 
L 19.671875 0 
L 9.8125 0 
z
" id="DejaVuSans-70"/>
       <path d="M 11.71875 12.40625 
L 22.015625 12.40625 
L 22.015625 4 
L 14.015625 -11.625 
L 7.71875 -11.625 
L 11.71875 4 
z
" id="DejaVuSans-44"/>
       <path d="M 19.671875 34.8125 
L 19.671875 8.109375 
L 35.5 8.109375 
Q 43.453125 8.109375 47.28125 11.40625 
Q 51.125 14.703125 51.125 21.484375 
Q 51.125 28.328125 47.28125 31.5625 
Q 43.453125 34.8125 35.5 34.8125 
z
M 19.671875 64.796875 
L 19.671875 42.828125 
L 34.28125 42.828125 
Q 41.5 42.828125 45.03125 45.53125 
Q 48.578125 48.25 48.578125 53.8125 
Q 48.578125 59.328125 45.03125 62.0625 
Q 41.5 64.796875 34.28125 64.796875 
z
M 9.8125 72.90625 
L 35.015625 72.90625 
Q 46.296875 72.90625 52.390625 68.21875 
Q 58.5 63.53125 58.5 54.890625 
Q 58.5 48.1875 55.375 44.234375 
Q 52.25 40.28125 46.1875 39.3125 
Q 53.46875 37.75 57.5 32.78125 
Q 61.53125 27.828125 61.53125 20.40625 
Q 61.53125 10.640625 54.890625 5.3125 
Q 48.25 0 35.984375 0 
L 9.8125 0 
z
" id="DejaVuSans-66"/>
       <path d="M 3.328125 72.90625 
L 13.28125 72.90625 
L 28.609375 11.28125 
L 43.890625 72.90625 
L 54.984375 72.90625 
L 70.3125 11.28125 
L 85.59375 72.90625 
L 95.609375 72.90625 
L 77.296875 0 
L 64.890625 0 
L 49.515625 63.28125 
L 33.984375 0 
L 21.578125 0 
z
" id="DejaVuSans-87"/>
       <path d="M 9.8125 72.90625 
L 19.671875 72.90625 
L 19.671875 42.09375 
L 52.390625 72.90625 
L 65.09375 72.90625 
L 28.90625 38.921875 
L 67.671875 0 
L 54.6875 0 
L 19.671875 35.109375 
L 19.671875 0 
L 9.8125 0 
z
" id="DejaVuSans-75"/>
       <path d="M 9.8125 72.90625 
L 19.671875 72.90625 
L 19.671875 43.015625 
L 55.515625 43.015625 
L 55.515625 72.90625 
L 65.375 72.90625 
L 65.375 0 
L 55.515625 0 
L 55.515625 34.71875 
L 19.671875 34.71875 
L 19.671875 0 
L 9.8125 0 
z
" id="DejaVuSans-72"/>
       <path d="M 5.515625 54.6875 
L 48.1875 54.6875 
L 48.1875 46.484375 
L 14.40625 7.171875 
L 48.1875 7.171875 
L 48.1875 0 
L 4.296875 0 
L 4.296875 8.203125 
L 38.09375 47.515625 
L 5.515625 47.515625 
z
" id="DejaVuSans-122"/>
      </defs>
      <use xlink:href="#DejaVuSans-83"/>
      <use x="63.476562" xlink:href="#DejaVuSans-70"/>
      <use x="120.996094" xlink:href="#DejaVuSans-56"/>
      <use x="184.619141" xlink:href="#DejaVuSans-44"/>
      <use x="216.40625" xlink:href="#DejaVuSans-32"/>
      <use x="248.193359" xlink:href="#DejaVuSans-66"/>
      <use x="313.171875" xlink:href="#DejaVuSans-87"/>
      <use x="412.048828" xlink:href="#DejaVuSans-32"/>
      <use x="443.835938" xlink:href="#DejaVuSans-52"/>
      <use x="507.458984" xlink:href="#DejaVuSans-48"/>
      <use x="571.082031" xlink:href="#DejaVuSans-48"/>
      <use x="634.705078" xlink:href="#DejaVuSans-32"/>
      <use x="666.492188" xlink:href="#DejaVuSans-75"/>
      <use x="732.068359" xlink:href="#DejaVuSans-72"/>
      <use x="807.263672" xlink:href="#DejaVuSans-122"/>
     </g>
    </g>
   </g>
  </g>
  <g id="axes_2">
   <g id="patch_8">
    <path d="M 504.785455 208.302545 
L 829.44 208.302545 
L 829.44 44.928 
L 504.785455 44.928 
z
" style="fill:none;"/>
   </g>
   <g id="line2d_61">
    <path clip-path="url(#p80f8df1f7a)" d="M 522.821818 80.257745 
L 582.341818 80.257745 
L 584.145455 49.237004 
L 585.949091 62.027188 
L 587.752727 58.055145 
L 589.556364 66.234083 
L 591.36 87.267535 
L 593.163636 117.182435 
L 596.770909 108.303028 
L 598.574545 100.123069 
L 600.378182 112.976561 
L 602.181818 112.509923 
L 603.985455 121.856989 
L 605.789091 123.726607 
L 607.592727 123.961457 
L 609.396364 119.519712 
L 611.2 120.922691 
L 613.003636 119.519712 
L 614.807273 119.053073 
L 616.610909 126.998182 
L 618.414545 119.988393 
L 620.218182 120.222223 
L 622.021818 121.856989 
L 623.825455 121.856989 
L 625.629091 119.988393 
L 627.432727 121.389329 
L 629.236364 119.519712 
L 631.04 120.456052 
L 632.843636 124.195287 
L 634.647273 118.344436 
L 636.450909 122.32567 
L 640.058182 123.258947 
L 641.861818 134.010013 
L 643.665455 122.792308 
L 645.469091 125.129585 
L 647.272727 122.32567 
L 649.076364 124.195287 
L 650.88 124.661926 
L 652.683636 124.661926 
L 654.487273 116.424785 
L 656.290909 127.465841 
L 658.094545 129.335459 
L 659.898182 126.998182 
L 661.701818 118.344436 
L 663.505455 115.312817 
L 665.309091 110.639284 
L 667.112727 113.91086 
L 668.916364 120.456052 
L 670.72 123.258947 
L 672.523636 121.856989 
L 674.327273 114.852305 
L 676.130909 114.846179 
L 677.934545 111.106944 
L 679.738182 109.703965 
L 681.541818 99.229615 
L 683.345455 102.225495 
L 685.149091 106.900049 
L 686.952727 104.563793 
L 688.756364 100.823537 
L 690.56 99.229615 
L 692.363636 103.159793 
L 694.167273 101.290176 
L 695.970909 83.99698 
L 697.774545 96.150004 
L 699.578182 98.018601 
L 701.381818 94.279366 
L 703.185455 89.604812 
L 704.989091 79.790086 
L 706.792727 90.072471 
L 708.596364 82.126342 
L 710.4 76.985149 
L 712.203636 87.736215 
L 714.007273 90.540131 
L 715.810909 71.118982 
L 717.614545 73.245914 
L 719.418182 71.118982 
L 721.221818 75.583191 
L 723.025455 69.03902 
L 724.829091 70.440977 
L 726.632727 73.712553 
L 730.24 72.779276 
L 732.043636 66.432175 
L 733.847273 70.440977 
L 735.650909 71.375276 
L 737.454545 73.712553 
L 739.258182 66.701743 
L 741.061818 66.701743 
L 742.865455 67.170423 
L 744.669091 63.896806 
L 746.472727 58.756634 
L 748.276364 62.494848 
L 750.08 76.518511 
L 751.883636 63.429146 
L 753.687273 207.042519 
L 771.723636 207.042519 
L 773.527273 169.882979 
L 775.330909 163.456233 
L 777.134545 140.594007 
L 778.938182 137.04878 
L 780.741818 114.37954 
L 782.545455 113.326796 
L 784.349091 114.437743 
L 786.152727 111.341795 
L 787.956364 113.503444 
L 789.76 114.262115 
L 791.563636 117.183456 
L 793.367273 117.29986 
L 795.170909 112.524218 
L 796.974545 117.126275 
L 798.778182 117.710339 
L 800.581818 119.345105 
L 802.385455 120.456052 
L 804.189091 119.930191 
L 805.992727 119.169478 
L 807.796364 120.806287 
L 809.6 120.922691 
L 809.6 120.922691 
" style="fill:none;stroke:#2fa19e;stroke-linecap:square;"/>
   </g>
   <g id="patch_9">
    <path d="M 504.785455 208.302545 
L 504.785455 44.928 
" style="fill:none;stroke:#000000;stroke-linecap:square;stroke-linejoin:miter;"/>
   </g>
   <g id="patch_10">
    <path d="M 829.44 208.302545 
L 829.44 44.928 
" style="fill:none;stroke:#000000;stroke-linecap:square;stroke-linejoin:miter;"/>
   </g>
   <g id="patch_11">
    <path d="M 504.785455 208.302545 
L 829.44 208.302545 
" style="fill:none;stroke:#000000;stroke-linecap:square;stroke-linejoin:miter;"/>
   </g>
   <g id="patch_12">
    <path d="M 504.785455 44.928 
L 829.44 44.928 
" style="fill:none;stroke:#000000;stroke-linecap:square;stroke-linejoin:miter;"/>
   </g>
   <g id="matplotlib.axis_3">
    <g id="xtick_11">
     <g id="line2d_62">
      <path clip-path="url(#p80f8df1f7a)" d="M 504.785455 208.302545 
L 504.785455 44.928 
" style="fill:none;stroke:#000000;stroke-dasharray:1,3;stroke-dashoffset:0;stroke-width:0.5;"/>
     </g>
     <g id="line2d_63">
      <g>
       <use style="stroke:#000000;stroke-width:0.5;" x="504.785455" xlink:href="#m2b9b7271c2" y="208.302545"/>
      </g>
     </g>
     <g id="line2d_64">
      <g>
       <use style="stroke:#000000;stroke-width:0.5;" x="504.785455" xlink:href="#m0c83e9f629" y="44.928"/>
      </g>
     </g>
     <g id="text_23">
      <!-- −160 -->
      <g transform="translate(488.305142 221.42067)scale(0.12 -0.12)">
       <use xlink:href="#DejaVuSans-8722"/>
       <use x="83.789062" xlink:href="#DejaVuSans-49"/>
       <use x="147.412109" xlink:href="#DejaVuSans-54"/>
       <use x="211.035156" xlink:href="#DejaVuSans-48"/>
      </g>
     </g>
    </g>
    <g id="xtick_12">
     <g id="line2d_65">
      <path clip-path="url(#p80f8df1f7a)" d="M 540.858182 208.302545 
L 540.858182 44.928 
" style="fill:none;stroke:#000000;stroke-dasharray:1,3;stroke-dashoffset:0;stroke-width:0.5;"/>
     </g>
     <g id="line2d_66">
      <g>
       <use style="stroke:#000000;stroke-width:0.5;" x="540.858182" xlink:href="#m2b9b7271c2" y="208.302545"/>
      </g>
     </g>
     <g id="line2d_67">
      <g>
       <use style="stroke:#000000;stroke-width:0.5;" x="540.858182" xlink:href="#m0c83e9f629" y="44.928"/>
      </g>
     </g>
     <g id="text_24">
      <!-- −140 -->
      <g transform="translate(524.377869 221.42067)scale(0.12 -0.12)">
       <use xlink:href="#DejaVuSans-8722"/>
       <use x="83.789062" xlink:href="#DejaVuSans-49"/>
       <use x="147.412109" xlink:href="#DejaVuSans-52"/>
       <use x="211.035156" xlink:href="#DejaVuSans-48"/>
      </g>
     </g>
    </g>
    <g id="xtick_13">
     <g id="line2d_68">
      <path clip-path="url(#p80f8df1f7a)" d="M 576.930909 208.302545 
L 576.930909 44.928 
" style="fill:none;stroke:#000000;stroke-dasharray:1,3;stroke-dashoffset:0;stroke-width:0.5;"/>
     </g>
     <g id="line2d_69">
      <g>
       <use style="stroke:#000000;stroke-width:0.5;" x="576.930909" xlink:href="#m2b9b7271c2" y="208.302545"/>
      </g>
     </g>
     <g id="line2d_70">
      <g>
       <use style="stroke:#000000;stroke-width:0.5;" x="576.930909" xlink:href="#m0c83e9f629" y="44.928"/>
      </g>
     </g>
     <g id="text_25">
      <!-- −120 -->
      <g transform="translate(560.450597 221.42067)scale(0.12 -0.12)">
       <use xlink:href="#DejaVuSans-8722"/>
       <use x="83.789062" xlink:href="#DejaVuSans-49"/>
       <use x="147.412109" xlink:href="#DejaVuSans-50"/>
       <use x="211.035156" xlink:href="#DejaVuSans-48"/>
      </g>
     </g>
    </g>
    <g id="xtick_14">
     <g id="line2d_71">
      <path clip-path="url(#p80f8df1f7a)" d="M 613.003636 208.302545 
L 613.003636 44.928 
" style="fill:none;stroke:#000000;stroke-dasharray:1,3;stroke-dashoffset:0;stroke-width:0.5;"/>
     </g>
     <g id="line2d_72">
      <g>
       <use style="stroke:#000000;stroke-width:0.5;" x="613.003636" xlink:href="#m2b9b7271c2" y="208.302545"/>
      </g>
     </g>
     <g id="line2d_73">
      <g>
       <use style="stroke:#000000;stroke-width:0.5;" x="613.003636" xlink:href="#m0c83e9f629" y="44.928"/>
      </g>
     </g>
     <g id="text_26">
      <!-- −100 -->
      <g transform="translate(596.523324 221.42067)scale(0.12 -0.12)">
       <use xlink:href="#DejaVuSans-8722"/>
       <use x="83.789062" xlink:href="#DejaVuSans-49"/>
       <use x="147.412109" xlink:href="#DejaVuSans-48"/>
       <use x="211.035156" xlink:href="#DejaVuSans-48"/>
      </g>
     </g>
    </g>
    <g id="xtick_15">
     <g id="line2d_74">
      <path clip-path="url(#p80f8df1f7a)" d="M 649.076364 208.302545 
L 649.076364 44.928 
" style="fill:none;stroke:#000000;stroke-dasharray:1,3;stroke-dashoffset:0;stroke-width:0.5;"/>
     </g>
     <g id="line2d_75">
      <g>
       <use style="stroke:#000000;stroke-width:0.5;" x="649.076364" xlink:href="#m2b9b7271c2" y="208.302545"/>
      </g>
     </g>
     <g id="line2d_76">
      <g>
       <use style="stroke:#000000;stroke-width:0.5;" x="649.076364" xlink:href="#m0c83e9f629" y="44.928"/>
      </g>
     </g>
     <g id="text_27">
      <!-- −80 -->
      <g transform="translate(636.413551 221.42067)scale(0.12 -0.12)">
       <use xlink:href="#DejaVuSans-8722"/>
       <use x="83.789062" xlink:href="#DejaVuSans-56"/>
       <use x="147.412109" xlink:href="#DejaVuSans-48"/>
      </g>
     </g>
    </g>
    <g id="xtick_16">
     <g id="line2d_77">
      <path clip-path="url(#p80f8df1f7a)" d="M 685.149091 208.302545 
L 685.149091 44.928 
" style="fill:none;stroke:#000000;stroke-dasharray:1,3;stroke-dashoffset:0;stroke-width:0.5;"/>
     </g>
     <g id="line2d_78">
      <g>
       <use style="stroke:#000000;stroke-width:0.5;" x="685.149091" xlink:href="#m2b9b7271c2" y="208.302545"/>
      </g>
     </g>
     <g id="line2d_79">
      <g>
       <use style="stroke:#000000;stroke-width:0.5;" x="685.149091" xlink:href="#m0c83e9f629" y="44.928"/>
      </g>
     </g>
     <g id="text_28">
      <!-- −60 -->
      <g transform="translate(672.486278 221.42067)scale(0.12 -0.12)">
       <use xlink:href="#DejaVuSans-8722"/>
       <use x="83.789062" xlink:href="#DejaVuSans-54"/>
       <use x="147.412109" xlink:href="#DejaVuSans-48"/>
      </g>
     </g>
    </g>
    <g id="xtick_17">
     <g id="line2d_80">
      <path clip-path="url(#p80f8df1f7a)" d="M 721.221818 208.302545 
L 721.221818 44.928 
" style="fill:none;stroke:#000000;stroke-dasharray:1,3;stroke-dashoffset:0;stroke-width:0.5;"/>
     </g>
     <g id="line2d_81">
      <g>
       <use style="stroke:#000000;stroke-width:0.5;" x="721.221818" xlink:href="#m2b9b7271c2" y="208.302545"/>
      </g>
     </g>
     <g id="line2d_82">
      <g>
       <use style="stroke:#000000;stroke-width:0.5;" x="721.221818" xlink:href="#m0c83e9f629" y="44.928"/>
      </g>
     </g>
     <g id="text_29">
      <!-- −40 -->
      <g transform="translate(708.559006 221.42067)scale(0.12 -0.12)">
       <use xlink:href="#DejaVuSans-8722"/>
       <use x="83.789062" xlink:href="#DejaVuSans-52"/>
       <use x="147.412109" xlink:href="#DejaVuSans-48"/>
      </g>
     </g>
    </g>
    <g id="xtick_18">
     <g id="line2d_83">
      <path clip-path="url(#p80f8df1f7a)" d="M 757.294545 208.302545 
L 757.294545 44.928 
" style="fill:none;stroke:#000000;stroke-dasharray:1,3;stroke-dashoffset:0;stroke-width:0.5;"/>
     </g>
     <g id="line2d_84">
      <g>
       <use style="stroke:#000000;stroke-width:0.5;" x="757.294545" xlink:href="#m2b9b7271c2" y="208.302545"/>
      </g>
     </g>
     <g id="line2d_85">
      <g>
       <use style="stroke:#000000;stroke-width:0.5;" x="757.294545" xlink:href="#m0c83e9f629" y="44.928"/>
      </g>
     </g>
     <g id="text_30">
      <!-- −20 -->
      <g transform="translate(744.631733 221.42067)scale(0.12 -0.12)">
       <use xlink:href="#DejaVuSans-8722"/>
       <use x="83.789062" xlink:href="#DejaVuSans-50"/>
       <use x="147.412109" xlink:href="#DejaVuSans-48"/>
      </g>
     </g>
    </g>
    <g id="xtick_19">
     <g id="line2d_86">
      <path clip-path="url(#p80f8df1f7a)" d="M 793.367273 208.302545 
L 793.367273 44.928 
" style="fill:none;stroke:#000000;stroke-dasharray:1,3;stroke-dashoffset:0;stroke-width:0.5;"/>
     </g>
     <g id="line2d_87">
      <g>
       <use style="stroke:#000000;stroke-width:0.5;" x="793.367273" xlink:href="#m2b9b7271c2" y="208.302545"/>
      </g>
     </g>
     <g id="line2d_88">
      <g>
       <use style="stroke:#000000;stroke-width:0.5;" x="793.367273" xlink:href="#m0c83e9f629" y="44.928"/>
      </g>
     </g>
     <g id="text_31">
      <!-- 0 -->
      <g transform="translate(789.549773 221.42067)scale(0.12 -0.12)">
       <use xlink:href="#DejaVuSans-48"/>
      </g>
     </g>
    </g>
    <g id="xtick_20">
     <g id="line2d_89">
      <path clip-path="url(#p80f8df1f7a)" d="M 829.44 208.302545 
L 829.44 44.928 
" style="fill:none;stroke:#000000;stroke-dasharray:1,3;stroke-dashoffset:0;stroke-width:0.5;"/>
     </g>
     <g id="line2d_90">
      <g>
       <use style="stroke:#000000;stroke-width:0.5;" x="829.44" xlink:href="#m2b9b7271c2" y="208.302545"/>
      </g>
     </g>
     <g id="line2d_91">
      <g>
       <use style="stroke:#000000;stroke-width:0.5;" x="829.44" xlink:href="#m0c83e9f629" y="44.928"/>
      </g>
     </g>
     <g id="text_32">
      <!-- 20 -->
      <g transform="translate(821.805 221.42067)scale(0.12 -0.12)">
       <use xlink:href="#DejaVuSans-50"/>
       <use x="63.623047" xlink:href="#DejaVuSans-48"/>
      </g>
     </g>
    </g>
    <g id="text_33">
     <!-- Ranging RSSI -->
     <g transform="translate(627.047727 238.03442)scale(0.12 -0.12)">
      <use xlink:href="#DejaVuSans-82"/>
      <use x="67.232422" xlink:href="#DejaVuSans-97"/>
      <use x="128.511719" xlink:href="#DejaVuSans-110"/>
      <use x="191.890625" xlink:href="#DejaVuSans-103"/>
      <use x="255.367188" xlink:href="#DejaVuSans-105"/>
      <use x="283.150391" xlink:href="#DejaVuSans-110"/>
      <use x="346.529297" xlink:href="#DejaVuSans-103"/>
      <use x="410.005859" xlink:href="#DejaVuSans-32"/>
      <use x="441.792969" xlink:href="#DejaVuSans-82"/>
      <use x="511.275391" xlink:href="#DejaVuSans-83"/>
      <use x="574.751953" xlink:href="#DejaVuSans-83"/>
      <use x="638.228516" xlink:href="#DejaVuSans-73"/>
     </g>
    </g>
   </g>
   <g id="matplotlib.axis_4">
    <g id="ytick_10">
     <g id="line2d_92">
      <path clip-path="url(#p80f8df1f7a)" d="M 504.785455 208.302545 
L 829.44 208.302545 
" style="fill:none;stroke:#000000;stroke-dasharray:1,3;stroke-dashoffset:0;stroke-width:0.5;"/>
     </g>
     <g id="line2d_93">
      <g>
       <use style="stroke:#000000;stroke-width:0.5;" x="504.785455" xlink:href="#md183b7b0ab" y="208.302545"/>
      </g>
     </g>
     <g id="line2d_94">
      <g>
       <use style="stroke:#000000;stroke-width:0.5;" x="829.44" xlink:href="#m1c7e04639e" y="208.302545"/>
      </g>
     </g>
     <g id="text_34">
      <!-- −6 -->
      <g transform="translate(483.09483 211.613795)scale(0.12 -0.12)">
       <use xlink:href="#DejaVuSans-8722"/>
       <use x="83.789062" xlink:href="#DejaVuSans-54"/>
      </g>
     </g>
    </g>
    <g id="ytick_11">
     <g id="line2d_95">
      <path clip-path="url(#p80f8df1f7a)" d="M 504.785455 187.880727 
L 829.44 187.880727 
" style="fill:none;stroke:#000000;stroke-dasharray:1,3;stroke-dashoffset:0;stroke-width:0.5;"/>
     </g>
     <g id="line2d_96">
      <g>
       <use style="stroke:#000000;stroke-width:0.5;" x="504.785455" xlink:href="#md183b7b0ab" y="187.880727"/>
      </g>
     </g>
     <g id="line2d_97">
      <g>
       <use style="stroke:#000000;stroke-width:0.5;" x="829.44" xlink:href="#m1c7e04639e" y="187.880727"/>
      </g>
     </g>
     <g id="text_35">
      <!-- −4 -->
      <g transform="translate(483.09483 191.191977)scale(0.12 -0.12)">
       <use xlink:href="#DejaVuSans-8722"/>
       <use x="83.789062" xlink:href="#DejaVuSans-52"/>
      </g>
     </g>
    </g>
    <g id="ytick_12">
     <g id="line2d_98">
      <path clip-path="url(#p80f8df1f7a)" d="M 504.785455 167.458909 
L 829.44 167.458909 
" style="fill:none;stroke:#000000;stroke-dasharray:1,3;stroke-dashoffset:0;stroke-width:0.5;"/>
     </g>
     <g id="line2d_99">
      <g>
       <use style="stroke:#000000;stroke-width:0.5;" x="504.785455" xlink:href="#md183b7b0ab" y="167.458909"/>
      </g>
     </g>
     <g id="line2d_100">
      <g>
       <use style="stroke:#000000;stroke-width:0.5;" x="829.44" xlink:href="#m1c7e04639e" y="167.458909"/>
      </g>
     </g>
     <g id="text_36">
      <!-- −2 -->
      <g transform="translate(483.09483 170.770159)scale(0.12 -0.12)">
       <use xlink:href="#DejaVuSans-8722"/>
       <use x="83.789062" xlink:href="#DejaVuSans-50"/>
      </g>
     </g>
    </g>
    <g id="ytick_13">
     <g id="line2d_101">
      <path clip-path="url(#p80f8df1f7a)" d="M 504.785455 147.037091 
L 829.44 147.037091 
" style="fill:none;stroke:#000000;stroke-dasharray:1,3;stroke-dashoffset:0;stroke-width:0.5;"/>
     </g>
     <g id="line2d_102">
      <g>
       <use style="stroke:#000000;stroke-width:0.5;" x="504.785455" xlink:href="#md183b7b0ab" y="147.037091"/>
      </g>
     </g>
     <g id="line2d_103">
      <g>
       <use style="stroke:#000000;stroke-width:0.5;" x="829.44" xlink:href="#m1c7e04639e" y="147.037091"/>
      </g>
     </g>
     <g id="text_37">
      <!-- 0 -->
      <g transform="translate(493.150455 150.348341)scale(0.12 -0.12)">
       <use xlink:href="#DejaVuSans-48"/>
      </g>
     </g>
    </g>
    <g id="ytick_14">
     <g id="line2d_104">
      <path clip-path="url(#p80f8df1f7a)" d="M 504.785455 126.615273 
L 829.44 126.615273 
" style="fill:none;stroke:#000000;stroke-dasharray:1,3;stroke-dashoffset:0;stroke-width:0.5;"/>
     </g>
     <g id="line2d_105">
      <g>
       <use style="stroke:#000000;stroke-width:0.5;" x="504.785455" xlink:href="#md183b7b0ab" y="126.615273"/>
      </g>
     </g>
     <g id="line2d_106">
      <g>
       <use style="stroke:#000000;stroke-width:0.5;" x="829.44" xlink:href="#m1c7e04639e" y="126.615273"/>
      </g>
     </g>
     <g id="text_38">
      <!-- 2 -->
      <g transform="translate(493.150455 129.926523)scale(0.12 -0.12)">
       <use xlink:href="#DejaVuSans-50"/>
      </g>
     </g>
    </g>
    <g id="ytick_15">
     <g id="line2d_107">
      <path clip-path="url(#p80f8df1f7a)" d="M 504.785455 106.193455 
L 829.44 106.193455 
" style="fill:none;stroke:#000000;stroke-dasharray:1,3;stroke-dashoffset:0;stroke-width:0.5;"/>
     </g>
     <g id="line2d_108">
      <g>
       <use style="stroke:#000000;stroke-width:0.5;" x="504.785455" xlink:href="#md183b7b0ab" y="106.193455"/>
      </g>
     </g>
     <g id="line2d_109">
      <g>
       <use style="stroke:#000000;stroke-width:0.5;" x="829.44" xlink:href="#m1c7e04639e" y="106.193455"/>
      </g>
     </g>
     <g id="text_39">
      <!-- 4 -->
      <g transform="translate(493.150455 109.504705)scale(0.12 -0.12)">
       <use xlink:href="#DejaVuSans-52"/>
      </g>
     </g>
    </g>
    <g id="ytick_16">
     <g id="line2d_110">
      <path clip-path="url(#p80f8df1f7a)" d="M 504.785455 85.771636 
L 829.44 85.771636 
" style="fill:none;stroke:#000000;stroke-dasharray:1,3;stroke-dashoffset:0;stroke-width:0.5;"/>
     </g>
     <g id="line2d_111">
      <g>
       <use style="stroke:#000000;stroke-width:0.5;" x="504.785455" xlink:href="#md183b7b0ab" y="85.771636"/>
      </g>
     </g>
     <g id="line2d_112">
      <g>
       <use style="stroke:#000000;stroke-width:0.5;" x="829.44" xlink:href="#m1c7e04639e" y="85.771636"/>
      </g>
     </g>
     <g id="text_40">
      <!-- 6 -->
      <g transform="translate(493.150455 89.082886)scale(0.12 -0.12)">
       <use xlink:href="#DejaVuSans-54"/>
      </g>
     </g>
    </g>
    <g id="ytick_17">
     <g id="line2d_113">
      <path clip-path="url(#p80f8df1f7a)" d="M 504.785455 65.349818 
L 829.44 65.349818 
" style="fill:none;stroke:#000000;stroke-dasharray:1,3;stroke-dashoffset:0;stroke-width:0.5;"/>
     </g>
     <g id="line2d_114">
      <g>
       <use style="stroke:#000000;stroke-width:0.5;" x="504.785455" xlink:href="#md183b7b0ab" y="65.349818"/>
      </g>
     </g>
     <g id="line2d_115">
      <g>
       <use style="stroke:#000000;stroke-width:0.5;" x="829.44" xlink:href="#m1c7e04639e" y="65.349818"/>
      </g>
     </g>
     <g id="text_41">
      <!-- 8 -->
      <g transform="translate(493.150455 68.661068)scale(0.12 -0.12)">
       <use xlink:href="#DejaVuSans-56"/>
      </g>
     </g>
    </g>
    <g id="ytick_18">
     <g id="line2d_116">
      <path clip-path="url(#p80f8df1f7a)" d="M 504.785455 44.928 
L 829.44 44.928 
" style="fill:none;stroke:#000000;stroke-dasharray:1,3;stroke-dashoffset:0;stroke-width:0.5;"/>
     </g>
     <g id="line2d_117">
      <g>
       <use style="stroke:#000000;stroke-width:0.5;" x="504.785455" xlink:href="#md183b7b0ab" y="44.928"/>
      </g>
     </g>
     <g id="line2d_118">
      <g>
       <use style="stroke:#000000;stroke-width:0.5;" x="829.44" xlink:href="#m1c7e04639e" y="44.928"/>
      </g>
     </g>
     <g id="text_42">
      <!-- 10 -->
      <g transform="translate(485.515455 48.23925)scale(0.12 -0.12)">
       <use xlink:href="#DejaVuSans-49"/>
       <use x="63.623047" xlink:href="#DejaVuSans-48"/>
      </g>
     </g>
    </g>
    <g id="text_43">
     <!-- Distance correction -->
     <g transform="translate(475.599205 184.904335)rotate(-90)scale(0.12 -0.12)">
      <use xlink:href="#DejaVuSans-68"/>
      <use x="77.001953" xlink:href="#DejaVuSans-105"/>
      <use x="104.785156" xlink:href="#DejaVuSans-115"/>
      <use x="156.884766" xlink:href="#DejaVuSans-116"/>
      <use x="196.09375" xlink:href="#DejaVuSans-97"/>
      <use x="257.373047" xlink:href="#DejaVuSans-110"/>
      <use x="320.751953" xlink:href="#DejaVuSans-99"/>
      <use x="375.732422" xlink:href="#DejaVuSans-101"/>
      <use x="437.255859" xlink:href="#DejaVuSans-32"/>
      <use x="469.042969" xlink:href="#DejaVuSans-99"/>
      <use x="524.023438" xlink:href="#DejaVuSans-111"/>
      <use x="585.205078" xlink:href="#DejaVuSans-114"/>
      <use x="624.568359" xlink:href="#DejaVuSans-114"/>
      <use x="663.431641" xlink:href="#DejaVuSans-101"/>
      <use x="724.955078" xlink:href="#DejaVuSans-99"/>
      <use x="779.935547" xlink:href="#DejaVuSans-116"/>
      <use x="819.144531" xlink:href="#DejaVuSans-105"/>
      <use x="846.927734" xlink:href="#DejaVuSans-111"/>
      <use x="908.109375" xlink:href="#DejaVuSans-110"/>
     </g>
    </g>
   </g>
   <g id="legend_2">
    <g id="patch_13">
     <path d="M 679.47 202.302545 
L 821.04 202.302545 
Q 823.44 202.302545 823.44 199.902545 
L 823.44 183.488795 
Q 823.44 181.088795 821.04 181.088795 
L 679.47 181.088795 
Q 677.07 181.088795 677.07 183.488795 
L 677.07 199.902545 
Q 677.07 202.302545 679.47 202.302545 
z
" style="fill:#ffffff;opacity:0.5;stroke:#000000;stroke-linejoin:miter;"/>
    </g>
    <g id="line2d_119">
     <path d="M 685.47 190.80692 
L 702.27 190.80692 
" style="fill:none;stroke:#2fa19e;stroke-linecap:square;"/>
    </g>
    <g id="line2d_120"/>
    <g id="text_44">
     <!-- SF8, BW 800 KHz -->
     <g transform="translate(715.47 195.00692)scale(0.12 -0.12)">
      <use xlink:href="#DejaVuSans-83"/>
      <use x="63.476562" xlink:href="#DejaVuSans-70"/>
      <use x="120.996094" xlink:href="#DejaVuSans-56"/>
      <use x="184.619141" xlink:href="#DejaVuSans-44"/>
      <use x="216.40625" xlink:href="#DejaVuSans-32"/>
      <use x="248.193359" xlink:href="#DejaVuSans-66"/>
      <use x="313.171875" xlink:href="#DejaVuSans-87"/>
      <use x="412.048828" xlink:href="#DejaVuSans-32"/>
      <use x="443.835938" xlink:href="#DejaVuSans-56"/>
      <use x="507.458984" xlink:href="#DejaVuSans-48"/>
      <use x="571.082031" xlink:href="#DejaVuSans-48"/>
      <use x="634.705078" xlink:href="#DejaVuSans-32"/>
      <use x="666.492188" xlink:href="#DejaVuSans-75"/>
      <use x="732.068359" xlink:href="#DejaVuSans-72"/>
      <use x="807.263672" xlink:href="#DejaVuSans-122"/>
     </g>
    </g>
   </g>
  </g>
  <g id="axes_3">
   <g id="patch_14">
    <path d="M 115.2 404.352 
L 439.854545 404.352 
L 439.854545 240.977455 
L 115.2 240.977455 
z
" style="fill:none;"/>
   </g>
   <g id="line2d_121">
    <path clip-path="url(#p03f13ec800)" d="M 133.236364 399.624594 
L 196.363636 399.624594 
L 199.970909 330.895537 
L 201.774545 322.207279 
L 203.578182 302.5494 
L 205.381818 288.342349 
L 207.185455 261.739092 
L 208.989091 259.223124 
L 210.792727 269.720265 
L 212.596364 268.674014 
L 214.4 263.289189 
L 216.203636 263.214691 
L 218.007273 271.590577 
L 219.810909 283.854777 
L 221.614545 290.736113 
L 223.418182 281.387822 
L 225.221818 283.331979 
L 227.025455 283.556129 
L 228.829091 278.245802 
L 230.632727 281.537473 
L 232.436364 284.229885 
L 234.24 283.556129 
L 236.043636 283.331979 
L 237.847273 282.883679 
L 243.258182 286.996143 
L 245.061818 282.729453 
L 246.865455 285.72901 
L 248.669091 287.369944 
L 250.472727 287.969202 
L 252.276364 282.883679 
L 254.08 284.229885 
L 255.883636 288.118199 
L 257.687273 288.417502 
L 259.490909 288.865801 
L 261.294545 288.118199 
L 263.098182 288.71615 
L 264.901818 288.566499 
L 266.705455 288.71615 
L 270.312727 288.118199 
L 272.116364 288.26785 
L 273.92 288.118199 
L 277.527273 287.519595 
L 279.330909 282.13477 
L 281.134545 282.434072 
L 282.938182 284.528534 
L 284.741818 282.13477 
L 286.545455 284.229885 
L 290.152727 280.639566 
L 291.956364 281.387822 
L 293.76 274.240512 
L 295.563636 277.423702 
L 297.367273 275.703041 
L 299.170909 276.152648 
L 300.974545 275.254741 
L 302.778182 273.759537 
L 304.581818 263.588492 
L 306.385455 264.732113 
L 308.189091 270.617518 
L 309.992727 267.327155 
L 311.796364 257.52991 
L 313.6 269.420963 
L 315.403636 272.861631 
L 317.207273 271.731079 
L 319.010909 267.626457 
L 320.814545 256.109858 
L 322.618182 258.502969 
L 324.421818 262.540934 
L 326.225455 254.463697 
L 328.029091 260.596777 
L 329.832727 261.344379 
L 331.636364 252.519539 
L 333.44 253.11749 
L 335.243636 250.725033 
L 337.047273 253.267141 
L 338.850909 254.91265 
L 340.654545 252.237228 
L 342.458182 255.511254 
L 344.261818 251.173333 
L 346.065455 252.369888 
L 347.869091 252.519539 
L 349.672727 250.425731 
L 351.476364 250.127083 
L 353.28 250.27608 
L 355.083636 248.705071 
L 356.887273 246.835412 
L 358.690909 248.181619 
L 360.494545 248.33127 
L 362.298182 246.387112 
L 364.101818 263.588492 
L 365.905455 263.588492 
L 367.709091 243.735217 
L 369.512727 251.920935 
L 371.316364 249.378827 
L 373.12 254.613348 
L 374.923636 268.074757 
L 376.727273 287.220293 
L 380.334545 281.537473 
L 382.138182 276.302299 
L 383.941818 284.528534 
L 385.745455 284.229885 
L 387.549091 290.212008 
L 389.352727 291.408563 
L 391.156364 291.558867 
L 392.96 288.71615 
L 394.763636 289.614057 
L 396.567273 288.71615 
L 398.370909 288.417502 
L 400.174545 293.502371 
L 401.978182 289.016106 
L 403.781818 289.165757 
L 405.585455 290.212008 
L 407.389091 290.212008 
L 409.192727 289.016106 
L 410.996364 289.912705 
L 412.8 288.71615 
L 414.603636 289.315408 
L 416.407273 291.708518 
L 418.210909 287.963974 
L 420.014545 290.511963 
L 420.014545 290.511963 
" style="fill:none;stroke:#2fa19e;stroke-linecap:square;"/>
   </g>
   <g id="patch_15">
    <path d="M 115.2 404.352 
L 115.2 240.977455 
" style="fill:none;stroke:#000000;stroke-linecap:square;stroke-linejoin:miter;"/>
   </g>
   <g id="patch_16">
    <path d="M 439.854545 404.352 
L 439.854545 240.977455 
" style="fill:none;stroke:#000000;stroke-linecap:square;stroke-linejoin:miter;"/>
   </g>
   <g id="patch_17">
    <path d="M 115.2 404.352 
L 439.854545 404.352 
" style="fill:none;stroke:#000000;stroke-linecap:square;stroke-linejoin:miter;"/>
   </g>
   <g id="patch_18">
    <path d="M 115.2 240.977455 
L 439.854545 240.977455 
" style="fill:none;stroke:#000000;stroke-linecap:square;stroke-linejoin:miter;"/>
   </g>
   <g id="matplotlib.axis_5">
    <g id="xtick_21">
     <g id="line2d_122">
      <path clip-path="url(#p03f13ec800)" d="M 115.2 404.352 
L 115.2 240.977455 
" style="fill:none;stroke:#000000;stroke-dasharray:1,3;stroke-dashoffset:0;stroke-width:0.5;"/>
     </g>
     <g id="line2d_123">
      <g>
       <use style="stroke:#000000;stroke-width:0.5;" x="115.2" xlink:href="#m2b9b7271c2" y="404.352"/>
      </g>
     </g>
     <g id="line2d_124">
      <g>
       <use style="stroke:#000000;stroke-width:0.5;" x="115.2" xlink:href="#m0c83e9f629" y="240.977455"/>
      </g>
     </g>
     <g id="text_45">
      <!-- −160 -->
      <g transform="translate(98.719687 417.470125)scale(0.12 -0.12)">
       <use xlink:href="#DejaVuSans-8722"/>
       <use x="83.789062" xlink:href="#DejaVuSans-49"/>
       <use x="147.412109" xlink:href="#DejaVuSans-54"/>
       <use x="211.035156" xlink:href="#DejaVuSans-48"/>
      </g>
     </g>
    </g>
    <g id="xtick_22">
     <g id="line2d_125">
      <path clip-path="url(#p03f13ec800)" d="M 151.272727 404.352 
L 151.272727 240.977455 
" style="fill:none;stroke:#000000;stroke-dasharray:1,3;stroke-dashoffset:0;stroke-width:0.5;"/>
     </g>
     <g id="line2d_126">
      <g>
       <use style="stroke:#000000;stroke-width:0.5;" x="151.272727" xlink:href="#m2b9b7271c2" y="404.352"/>
      </g>
     </g>
     <g id="line2d_127">
      <g>
       <use style="stroke:#000000;stroke-width:0.5;" x="151.272727" xlink:href="#m0c83e9f629" y="240.977455"/>
      </g>
     </g>
     <g id="text_46">
      <!-- −140 -->
      <g transform="translate(134.792415 417.470125)scale(0.12 -0.12)">
       <use xlink:href="#DejaVuSans-8722"/>
       <use x="83.789062" xlink:href="#DejaVuSans-49"/>
       <use x="147.412109" xlink:href="#DejaVuSans-52"/>
       <use x="211.035156" xlink:href="#DejaVuSans-48"/>
      </g>
     </g>
    </g>
    <g id="xtick_23">
     <g id="line2d_128">
      <path clip-path="url(#p03f13ec800)" d="M 187.345455 404.352 
L 187.345455 240.977455 
" style="fill:none;stroke:#000000;stroke-dasharray:1,3;stroke-dashoffset:0;stroke-width:0.5;"/>
     </g>
     <g id="line2d_129">
      <g>
       <use style="stroke:#000000;stroke-width:0.5;" x="187.345455" xlink:href="#m2b9b7271c2" y="404.352"/>
      </g>
     </g>
     <g id="line2d_130">
      <g>
       <use style="stroke:#000000;stroke-width:0.5;" x="187.345455" xlink:href="#m0c83e9f629" y="240.977455"/>
      </g>
     </g>
     <g id="text_47">
      <!-- −120 -->
      <g transform="translate(170.865142 417.470125)scale(0.12 -0.12)">
       <use xlink:href="#DejaVuSans-8722"/>
       <use x="83.789062" xlink:href="#DejaVuSans-49"/>
       <use x="147.412109" xlink:href="#DejaVuSans-50"/>
       <use x="211.035156" xlink:href="#DejaVuSans-48"/>
      </g>
     </g>
    </g>
    <g id="xtick_24">
     <g id="line2d_131">
      <path clip-path="url(#p03f13ec800)" d="M 223.418182 404.352 
L 223.418182 240.977455 
" style="fill:none;stroke:#000000;stroke-dasharray:1,3;stroke-dashoffset:0;stroke-width:0.5;"/>
     </g>
     <g id="line2d_132">
      <g>
       <use style="stroke:#000000;stroke-width:0.5;" x="223.418182" xlink:href="#m2b9b7271c2" y="404.352"/>
      </g>
     </g>
     <g id="line2d_133">
      <g>
       <use style="stroke:#000000;stroke-width:0.5;" x="223.418182" xlink:href="#m0c83e9f629" y="240.977455"/>
      </g>
     </g>
     <g id="text_48">
      <!-- −100 -->
      <g transform="translate(206.937869 417.470125)scale(0.12 -0.12)">
       <use xlink:href="#DejaVuSans-8722"/>
       <use x="83.789062" xlink:href="#DejaVuSans-49"/>
       <use x="147.412109" xlink:href="#DejaVuSans-48"/>
       <use x="211.035156" xlink:href="#DejaVuSans-48"/>
      </g>
     </g>
    </g>
    <g id="xtick_25">
     <g id="line2d_134">
      <path clip-path="url(#p03f13ec800)" d="M 259.490909 404.352 
L 259.490909 240.977455 
" style="fill:none;stroke:#000000;stroke-dasharray:1,3;stroke-dashoffset:0;stroke-width:0.5;"/>
     </g>
     <g id="line2d_135">
      <g>
       <use style="stroke:#000000;stroke-width:0.5;" x="259.490909" xlink:href="#m2b9b7271c2" y="404.352"/>
      </g>
     </g>
     <g id="line2d_136">
      <g>
       <use style="stroke:#000000;stroke-width:0.5;" x="259.490909" xlink:href="#m0c83e9f629" y="240.977455"/>
      </g>
     </g>
     <g id="text_49">
      <!-- −80 -->
      <g transform="translate(246.828097 417.470125)scale(0.12 -0.12)">
       <use xlink:href="#DejaVuSans-8722"/>
       <use x="83.789062" xlink:href="#DejaVuSans-56"/>
       <use x="147.412109" xlink:href="#DejaVuSans-48"/>
      </g>
     </g>
    </g>
    <g id="xtick_26">
     <g id="line2d_137">
      <path clip-path="url(#p03f13ec800)" d="M 295.563636 404.352 
L 295.563636 240.977455 
" style="fill:none;stroke:#000000;stroke-dasharray:1,3;stroke-dashoffset:0;stroke-width:0.5;"/>
     </g>
     <g id="line2d_138">
      <g>
       <use style="stroke:#000000;stroke-width:0.5;" x="295.563636" xlink:href="#m2b9b7271c2" y="404.352"/>
      </g>
     </g>
     <g id="line2d_139">
      <g>
       <use style="stroke:#000000;stroke-width:0.5;" x="295.563636" xlink:href="#m0c83e9f629" y="240.977455"/>
      </g>
     </g>
     <g id="text_50">
      <!-- −60 -->
      <g transform="translate(282.900824 417.470125)scale(0.12 -0.12)">
       <use xlink:href="#DejaVuSans-8722"/>
       <use x="83.789062" xlink:href="#DejaVuSans-54"/>
       <use x="147.412109" xlink:href="#DejaVuSans-48"/>
      </g>
     </g>
    </g>
    <g id="xtick_27">
     <g id="line2d_140">
      <path clip-path="url(#p03f13ec800)" d="M 331.636364 404.352 
L 331.636364 240.977455 
" style="fill:none;stroke:#000000;stroke-dasharray:1,3;stroke-dashoffset:0;stroke-width:0.5;"/>
     </g>
     <g id="line2d_141">
      <g>
       <use style="stroke:#000000;stroke-width:0.5;" x="331.636364" xlink:href="#m2b9b7271c2" y="404.352"/>
      </g>
     </g>
     <g id="line2d_142">
      <g>
       <use style="stroke:#000000;stroke-width:0.5;" x="331.636364" xlink:href="#m0c83e9f629" y="240.977455"/>
      </g>
     </g>
     <g id="text_51">
      <!-- −40 -->
      <g transform="translate(318.973551 417.470125)scale(0.12 -0.12)">
       <use xlink:href="#DejaVuSans-8722"/>
       <use x="83.789062" xlink:href="#DejaVuSans-52"/>
       <use x="147.412109" xlink:href="#DejaVuSans-48"/>
      </g>
     </g>
    </g>
    <g id="xtick_28">
     <g id="line2d_143">
      <path clip-path="url(#p03f13ec800)" d="M 367.709091 404.352 
L 367.709091 240.977455 
" style="fill:none;stroke:#000000;stroke-dasharray:1,3;stroke-dashoffset:0;stroke-width:0.5;"/>
     </g>
     <g id="line2d_144">
      <g>
       <use style="stroke:#000000;stroke-width:0.5;" x="367.709091" xlink:href="#m2b9b7271c2" y="404.352"/>
      </g>
     </g>
     <g id="line2d_145">
      <g>
       <use style="stroke:#000000;stroke-width:0.5;" x="367.709091" xlink:href="#m0c83e9f629" y="240.977455"/>
      </g>
     </g>
     <g id="text_52">
      <!-- −20 -->
      <g transform="translate(355.046278 417.470125)scale(0.12 -0.12)">
       <use xlink:href="#DejaVuSans-8722"/>
       <use x="83.789062" xlink:href="#DejaVuSans-50"/>
       <use x="147.412109" xlink:href="#DejaVuSans-48"/>
      </g>
     </g>
    </g>
    <g id="xtick_29">
     <g id="line2d_146">
      <path clip-path="url(#p03f13ec800)" d="M 403.781818 404.352 
L 403.781818 240.977455 
" style="fill:none;stroke:#000000;stroke-dasharray:1,3;stroke-dashoffset:0;stroke-width:0.5;"/>
     </g>
     <g id="line2d_147">
      <g>
       <use style="stroke:#000000;stroke-width:0.5;" x="403.781818" xlink:href="#m2b9b7271c2" y="404.352"/>
      </g>
     </g>
     <g id="line2d_148">
      <g>
       <use style="stroke:#000000;stroke-width:0.5;" x="403.781818" xlink:href="#m0c83e9f629" y="240.977455"/>
      </g>
     </g>
     <g id="text_53">
      <!-- 0 -->
      <g transform="translate(399.964318 417.470125)scale(0.12 -0.12)">
       <use xlink:href="#DejaVuSans-48"/>
      </g>
     </g>
    </g>
    <g id="xtick_30">
     <g id="line2d_149">
      <path clip-path="url(#p03f13ec800)" d="M 439.854545 404.352 
L 439.854545 240.977455 
" style="fill:none;stroke:#000000;stroke-dasharray:1,3;stroke-dashoffset:0;stroke-width:0.5;"/>
     </g>
     <g id="line2d_150">
      <g>
       <use style="stroke:#000000;stroke-width:0.5;" x="439.854545" xlink:href="#m2b9b7271c2" y="404.352"/>
      </g>
     </g>
     <g id="line2d_151">
      <g>
       <use style="stroke:#000000;stroke-width:0.5;" x="439.854545" xlink:href="#m0c83e9f629" y="240.977455"/>
      </g>
     </g>
     <g id="text_54">
      <!-- 20 -->
      <g transform="translate(432.219545 417.470125)scale(0.12 -0.12)">
       <use xlink:href="#DejaVuSans-50"/>
       <use x="63.623047" xlink:href="#DejaVuSans-48"/>
      </g>
     </g>
    </g>
    <g id="text_55">
     <!-- Ranging RSSI -->
     <g transform="translate(237.462273 434.083875)scale(0.12 -0.12)">
      <use xlink:href="#DejaVuSans-82"/>
      <use x="67.232422" xlink:href="#DejaVuSans-97"/>
      <use x="128.511719" xlink:href="#DejaVuSans-110"/>
      <use x="191.890625" xlink:href="#DejaVuSans-103"/>
      <use x="255.367188" xlink:href="#DejaVuSans-105"/>
      <use x="283.150391" xlink:href="#DejaVuSans-110"/>
      <use x="346.529297" xlink:href="#DejaVuSans-103"/>
      <use x="410.005859" xlink:href="#DejaVuSans-32"/>
      <use x="441.792969" xlink:href="#DejaVuSans-82"/>
      <use x="511.275391" xlink:href="#DejaVuSans-83"/>
      <use x="574.751953" xlink:href="#DejaVuSans-83"/>
      <use x="638.228516" xlink:href="#DejaVuSans-73"/>
     </g>
    </g>
   </g>
   <g id="matplotlib.axis_6">
    <g id="ytick_19">
     <g id="line2d_152">
      <path clip-path="url(#p03f13ec800)" d="M 115.2 404.352 
L 439.854545 404.352 
" style="fill:none;stroke:#000000;stroke-dasharray:1,3;stroke-dashoffset:0;stroke-width:0.5;"/>
     </g>
     <g id="line2d_153">
      <g>
       <use style="stroke:#000000;stroke-width:0.5;" x="115.2" xlink:href="#md183b7b0ab" y="404.352"/>
      </g>
     </g>
     <g id="line2d_154">
      <g>
       <use style="stroke:#000000;stroke-width:0.5;" x="439.854545" xlink:href="#m1c7e04639e" y="404.352"/>
      </g>
     </g>
     <g id="text_56">
      <!-- −15 -->
      <g transform="translate(85.874375 407.66325)scale(0.12 -0.12)">
       <defs>
        <path d="M 10.796875 72.90625 
L 49.515625 72.90625 
L 49.515625 64.59375 
L 19.828125 64.59375 
L 19.828125 46.734375 
Q 21.96875 47.46875 24.109375 47.828125 
Q 26.265625 48.1875 28.421875 48.1875 
Q 40.625 48.1875 47.75 41.5 
Q 54.890625 34.8125 54.890625 23.390625 
Q 54.890625 11.625 47.5625 5.09375 
Q 40.234375 -1.421875 26.90625 -1.421875 
Q 22.3125 -1.421875 17.546875 -0.640625 
Q 12.796875 0.140625 7.71875 1.703125 
L 7.71875 11.625 
Q 12.109375 9.234375 16.796875 8.0625 
Q 21.484375 6.890625 26.703125 6.890625 
Q 35.15625 6.890625 40.078125 11.328125 
Q 45.015625 15.765625 45.015625 23.390625 
Q 45.015625 31 40.078125 35.4375 
Q 35.15625 39.890625 26.703125 39.890625 
Q 22.75 39.890625 18.8125 39.015625 
Q 14.890625 38.140625 10.796875 36.28125 
z
" id="DejaVuSans-53"/>
       </defs>
       <use xlink:href="#DejaVuSans-8722"/>
       <use x="83.789062" xlink:href="#DejaVuSans-49"/>
       <use x="147.412109" xlink:href="#DejaVuSans-53"/>
      </g>
     </g>
    </g>
    <g id="ytick_20">
     <g id="line2d_155">
      <path clip-path="url(#p03f13ec800)" d="M 115.2 371.677091 
L 439.854545 371.677091 
" style="fill:none;stroke:#000000;stroke-dasharray:1,3;stroke-dashoffset:0;stroke-width:0.5;"/>
     </g>
     <g id="line2d_156">
      <g>
       <use style="stroke:#000000;stroke-width:0.5;" x="115.2" xlink:href="#md183b7b0ab" y="371.677091"/>
      </g>
     </g>
     <g id="line2d_157">
      <g>
       <use style="stroke:#000000;stroke-width:0.5;" x="439.854545" xlink:href="#m1c7e04639e" y="371.677091"/>
      </g>
     </g>
     <g id="text_57">
      <!-- −10 -->
      <g transform="translate(85.874375 374.988341)scale(0.12 -0.12)">
       <use xlink:href="#DejaVuSans-8722"/>
       <use x="83.789062" xlink:href="#DejaVuSans-49"/>
       <use x="147.412109" xlink:href="#DejaVuSans-48"/>
      </g>
     </g>
    </g>
    <g id="ytick_21">
     <g id="line2d_158">
      <path clip-path="url(#p03f13ec800)" d="M 115.2 339.002182 
L 439.854545 339.002182 
" style="fill:none;stroke:#000000;stroke-dasharray:1,3;stroke-dashoffset:0;stroke-width:0.5;"/>
     </g>
     <g id="line2d_159">
      <g>
       <use style="stroke:#000000;stroke-width:0.5;" x="115.2" xlink:href="#md183b7b0ab" y="339.002182"/>
      </g>
     </g>
     <g id="line2d_160">
      <g>
       <use style="stroke:#000000;stroke-width:0.5;" x="439.854545" xlink:href="#m1c7e04639e" y="339.002182"/>
      </g>
     </g>
     <g id="text_58">
      <!-- −5 -->
      <g transform="translate(93.509375 342.313432)scale(0.12 -0.12)">
       <use xlink:href="#DejaVuSans-8722"/>
       <use x="83.789062" xlink:href="#DejaVuSans-53"/>
      </g>
     </g>
    </g>
    <g id="ytick_22">
     <g id="line2d_161">
      <path clip-path="url(#p03f13ec800)" d="M 115.2 306.327273 
L 439.854545 306.327273 
" style="fill:none;stroke:#000000;stroke-dasharray:1,3;stroke-dashoffset:0;stroke-width:0.5;"/>
     </g>
     <g id="line2d_162">
      <g>
       <use style="stroke:#000000;stroke-width:0.5;" x="115.2" xlink:href="#md183b7b0ab" y="306.327273"/>
      </g>
     </g>
     <g id="line2d_163">
      <g>
       <use style="stroke:#000000;stroke-width:0.5;" x="439.854545" xlink:href="#m1c7e04639e" y="306.327273"/>
      </g>
     </g>
     <g id="text_59">
      <!-- 0 -->
      <g transform="translate(103.565 309.638523)scale(0.12 -0.12)">
       <use xlink:href="#DejaVuSans-48"/>
      </g>
     </g>
    </g>
    <g id="ytick_23">
     <g id="line2d_164">
      <path clip-path="url(#p03f13ec800)" d="M 115.2 273.652364 
L 439.854545 273.652364 
" style="fill:none;stroke:#000000;stroke-dasharray:1,3;stroke-dashoffset:0;stroke-width:0.5;"/>
     </g>
     <g id="line2d_165">
      <g>
       <use style="stroke:#000000;stroke-width:0.5;" x="115.2" xlink:href="#md183b7b0ab" y="273.652364"/>
      </g>
     </g>
     <g id="line2d_166">
      <g>
       <use style="stroke:#000000;stroke-width:0.5;" x="439.854545" xlink:href="#m1c7e04639e" y="273.652364"/>
      </g>
     </g>
     <g id="text_60">
      <!-- 5 -->
      <g transform="translate(103.565 276.963614)scale(0.12 -0.12)">
       <use xlink:href="#DejaVuSans-53"/>
      </g>
     </g>
    </g>
    <g id="ytick_24">
     <g id="line2d_167">
      <path clip-path="url(#p03f13ec800)" d="M 115.2 240.977455 
L 439.854545 240.977455 
" style="fill:none;stroke:#000000;stroke-dasharray:1,3;stroke-dashoffset:0;stroke-width:0.5;"/>
     </g>
     <g id="line2d_168">
      <g>
       <use style="stroke:#000000;stroke-width:0.5;" x="115.2" xlink:href="#md183b7b0ab" y="240.977455"/>
      </g>
     </g>
     <g id="line2d_169">
      <g>
       <use style="stroke:#000000;stroke-width:0.5;" x="439.854545" xlink:href="#m1c7e04639e" y="240.977455"/>
      </g>
     </g>
     <g id="text_61">
      <!-- 10 -->
      <g transform="translate(95.93 244.288705)scale(0.12 -0.12)">
       <use xlink:href="#DejaVuSans-49"/>
       <use x="63.623047" xlink:href="#DejaVuSans-48"/>
      </g>
     </g>
    </g>
    <g id="text_62">
     <!-- Distance correction -->
     <g transform="translate(78.37875 380.95379)rotate(-90)scale(0.12 -0.12)">
      <use xlink:href="#DejaVuSans-68"/>
      <use x="77.001953" xlink:href="#DejaVuSans-105"/>
      <use x="104.785156" xlink:href="#DejaVuSans-115"/>
      <use x="156.884766" xlink:href="#DejaVuSans-116"/>
      <use x="196.09375" xlink:href="#DejaVuSans-97"/>
      <use x="257.373047" xlink:href="#DejaVuSans-110"/>
      <use x="320.751953" xlink:href="#DejaVuSans-99"/>
      <use x="375.732422" xlink:href="#DejaVuSans-101"/>
      <use x="437.255859" xlink:href="#DejaVuSans-32"/>
      <use x="469.042969" xlink:href="#DejaVuSans-99"/>
      <use x="524.023438" xlink:href="#DejaVuSans-111"/>
      <use x="585.205078" xlink:href="#DejaVuSans-114"/>
      <use x="624.568359" xlink:href="#DejaVuSans-114"/>
      <use x="663.431641" xlink:href="#DejaVuSans-101"/>
      <use x="724.955078" xlink:href="#DejaVuSans-99"/>
      <use x="779.935547" xlink:href="#DejaVuSans-116"/>
      <use x="819.144531" xlink:href="#DejaVuSans-105"/>
      <use x="846.927734" xlink:href="#DejaVuSans-111"/>
      <use x="908.109375" xlink:href="#DejaVuSans-110"/>
     </g>
    </g>
   </g>
   <g id="legend_3">
    <g id="patch_19">
     <path d="M 282.249545 398.352 
L 431.454545 398.352 
Q 433.854545 398.352 433.854545 395.952 
L 433.854545 379.53825 
Q 433.854545 377.13825 431.454545 377.13825 
L 282.249545 377.13825 
Q 279.849545 377.13825 279.849545 379.53825 
L 279.849545 395.952 
Q 279.849545 398.352 282.249545 398.352 
z
" style="fill:#ffffff;opacity:0.5;stroke:#000000;stroke-linejoin:miter;"/>
    </g>
    <g id="line2d_170">
     <path d="M 288.249545 386.856375 
L 305.049545 386.856375 
" style="fill:none;stroke:#2fa19e;stroke-linecap:square;"/>
    </g>
    <g id="line2d_171"/>
    <g id="text_63">
     <!-- SF8, BW 1600 KHz -->
     <g transform="translate(318.249545 391.056375)scale(0.12 -0.12)">
      <use xlink:href="#DejaVuSans-83"/>
      <use x="63.476562" xlink:href="#DejaVuSans-70"/>
      <use x="120.996094" xlink:href="#DejaVuSans-56"/>
      <use x="184.619141" xlink:href="#DejaVuSans-44"/>
      <use x="216.40625" xlink:href="#DejaVuSans-32"/>
      <use x="248.193359" xlink:href="#DejaVuSans-66"/>
      <use x="313.171875" xlink:href="#DejaVuSans-87"/>
      <use x="412.048828" xlink:href="#DejaVuSans-32"/>
      <use x="443.835938" xlink:href="#DejaVuSans-49"/>
      <use x="507.458984" xlink:href="#DejaVuSans-54"/>
      <use x="571.082031" xlink:href="#DejaVuSans-48"/>
      <use x="634.705078" xlink:href="#DejaVuSans-48"/>
      <use x="698.328125" xlink:href="#DejaVuSans-32"/>
      <use x="730.115234" xlink:href="#DejaVuSans-75"/>
      <use x="795.691406" xlink:href="#DejaVuSans-72"/>
      <use x="870.886719" xlink:href="#DejaVuSans-122"/>
     </g>
    </g>
   </g>
  </g>
  <g id="text_64">
   <!-- SF8 -->
   <g transform="translate(444.18375 22.662788)scale(0.18 -0.18)">
    <use xlink:href="#DejaVuSans-83"/>
    <use x="63.476562" xlink:href="#DejaVuSans-70"/>
    <use x="120.996094" xlink:href="#DejaVuSans-56"/>
   </g>
  </g>
 </g>
 <defs>
  <clipPath id="p3e8657aa27">
   <rect height="163.374545" width="324.654545" x="115.2" y="44.928"/>
  </clipPath>
  <clipPath id="p80f8df1f7a">
   <rect height="163.374545" width="324.654545" x="504.785455" y="44.928"/>
  </clipPath>
  <clipPath id="p03f13ec800">
   <rect height="163.374545" width="324.654545" x="115.2" y="240.977455"/>
  </clipPath>
 </defs>
</svg>
